<?xml version="1.0" encoding="utf-8" standalone="no"?>
<!DOCTYPE svg PUBLIC "-//W3C//DTD SVG 1.1//EN"
  "http://www.w3.org/Graphics/SVG/1.1/DTD/svg11.dtd">
<svg xmlns:xlink="http://www.w3.org/1999/xlink" width="733.896875pt" height="403.609844pt" viewBox="0 0 733.896875 403.609844" xmlns="http://www.w3.org/2000/svg" version="1.1">
 <metadata>
  <rdf:RDF xmlns:dc="http://purl.org/dc/elements/1.1/" xmlns:cc="http://creativecommons.org/ns#" xmlns:rdf="http://www.w3.org/1999/02/22-rdf-syntax-ns#">
   <cc:Work>
    <dc:type rdf:resource="http://purl.org/dc/dcmitype/StillImage"/>
    <dc:date>2025-03-31T11:16:56.178173</dc:date>
    <dc:format>image/svg+xml</dc:format>
    <dc:creator>
     <cc:Agent>
      <dc:title>Matplotlib v3.9.2, https://matplotlib.org/</dc:title>
     </cc:Agent>
    </dc:creator>
   </cc:Work>
  </rdf:RDF>
 </metadata>
 <defs>
  <style type="text/css">*{stroke-linejoin: round; stroke-linecap: butt}</style>
 </defs>
 <g id="figure_1">
  <g id="patch_1">
   <path d="M 0 403.609844 
L 733.896875 403.609844 
L 733.896875 0 
L 0 0 
z
" style="fill: #ffffff"/>
  </g>
  <g id="axes_1">
   <g id="patch_2">
    <path d="M 57.096875 360.92125 
L 726.696875 360.92125 
L 726.696875 28.28125 
L 57.096875 28.28125 
z
" style="fill: #ffffff"/>
   </g>
   <g id="matplotlib.axis_1">
    <g id="xtick_1">
     <g id="text_1">
      <!-- 1880 -->
      <g style="fill: #262626" transform="translate(156.462813 378.294844) scale(0.11 -0.11)">
       <defs>
        <path id="ArialMT-31" d="M 2384 0 
L 1822 0 
L 1822 3584 
Q 1619 3391 1289 3197 
Q 959 3003 697 2906 
L 697 3450 
Q 1169 3672 1522 3987 
Q 1875 4303 2022 4600 
L 2384 4600 
L 2384 0 
z
" transform="scale(0.015625)"/>
        <path id="ArialMT-38" d="M 1131 2484 
Q 781 2613 612 2850 
Q 444 3088 444 3419 
Q 444 3919 803 4259 
Q 1163 4600 1759 4600 
Q 2359 4600 2725 4251 
Q 3091 3903 3091 3403 
Q 3091 3084 2923 2848 
Q 2756 2613 2416 2484 
Q 2838 2347 3058 2040 
Q 3278 1734 3278 1309 
Q 3278 722 2862 322 
Q 2447 -78 1769 -78 
Q 1091 -78 675 323 
Q 259 725 259 1325 
Q 259 1772 486 2073 
Q 713 2375 1131 2484 
z
M 1019 3438 
Q 1019 3113 1228 2906 
Q 1438 2700 1772 2700 
Q 2097 2700 2305 2904 
Q 2513 3109 2513 3406 
Q 2513 3716 2298 3927 
Q 2084 4138 1766 4138 
Q 1444 4138 1231 3931 
Q 1019 3725 1019 3438 
z
M 838 1322 
Q 838 1081 952 856 
Q 1066 631 1291 507 
Q 1516 384 1775 384 
Q 2178 384 2440 643 
Q 2703 903 2703 1303 
Q 2703 1709 2433 1975 
Q 2163 2241 1756 2241 
Q 1359 2241 1098 1978 
Q 838 1716 838 1322 
z
" transform="scale(0.015625)"/>
        <path id="ArialMT-30" d="M 266 2259 
Q 266 3072 433 3567 
Q 600 4063 929 4331 
Q 1259 4600 1759 4600 
Q 2128 4600 2406 4451 
Q 2684 4303 2865 4023 
Q 3047 3744 3150 3342 
Q 3253 2941 3253 2259 
Q 3253 1453 3087 958 
Q 2922 463 2592 192 
Q 2263 -78 1759 -78 
Q 1097 -78 719 397 
Q 266 969 266 2259 
z
M 844 2259 
Q 844 1131 1108 757 
Q 1372 384 1759 384 
Q 2147 384 2411 759 
Q 2675 1134 2675 2259 
Q 2675 3391 2411 3762 
Q 2147 4134 1753 4134 
Q 1366 4134 1134 3806 
Q 844 3388 844 2259 
z
" transform="scale(0.015625)"/>
       </defs>
       <use xlink:href="#ArialMT-31"/>
       <use xlink:href="#ArialMT-38" x="55.615234"/>
       <use xlink:href="#ArialMT-38" x="111.230469"/>
       <use xlink:href="#ArialMT-30" x="166.845703"/>
      </g>
     </g>
    </g>
    <g id="xtick_2">
     <g id="text_2">
      <!-- 1900 -->
      <g style="fill: #262626" transform="translate(379.662813 378.294844) scale(0.11 -0.11)">
       <defs>
        <path id="ArialMT-39" d="M 350 1059 
L 891 1109 
Q 959 728 1153 556 
Q 1347 384 1650 384 
Q 1909 384 2104 503 
Q 2300 622 2425 820 
Q 2550 1019 2634 1356 
Q 2719 1694 2719 2044 
Q 2719 2081 2716 2156 
Q 2547 1888 2255 1720 
Q 1963 1553 1622 1553 
Q 1053 1553 659 1965 
Q 266 2378 266 3053 
Q 266 3750 677 4175 
Q 1088 4600 1706 4600 
Q 2153 4600 2523 4359 
Q 2894 4119 3086 3673 
Q 3278 3228 3278 2384 
Q 3278 1506 3087 986 
Q 2897 466 2520 194 
Q 2144 -78 1638 -78 
Q 1100 -78 759 220 
Q 419 519 350 1059 
z
M 2653 3081 
Q 2653 3566 2395 3850 
Q 2138 4134 1775 4134 
Q 1400 4134 1122 3828 
Q 844 3522 844 3034 
Q 844 2597 1108 2323 
Q 1372 2050 1759 2050 
Q 2150 2050 2401 2323 
Q 2653 2597 2653 3081 
z
" transform="scale(0.015625)"/>
       </defs>
       <use xlink:href="#ArialMT-31"/>
       <use xlink:href="#ArialMT-39" x="55.615234"/>
       <use xlink:href="#ArialMT-30" x="111.230469"/>
       <use xlink:href="#ArialMT-30" x="166.845703"/>
      </g>
     </g>
    </g>
    <g id="xtick_3">
     <g id="text_3">
      <!-- 1910 -->
      <g style="fill: #262626" transform="translate(602.862812 378.294844) scale(0.11 -0.11)">
       <use xlink:href="#ArialMT-31"/>
       <use xlink:href="#ArialMT-39" x="55.615234"/>
       <use xlink:href="#ArialMT-31" x="111.230469"/>
       <use xlink:href="#ArialMT-30" x="166.845703"/>
      </g>
     </g>
    </g>
    <g id="text_4">
     <!-- Year -->
     <g style="fill: #262626" transform="translate(378.438125 393.529844) scale(0.12 -0.12)">
      <defs>
       <path id="Satoshi-Black-59" d="M 1664 1798 
L 1664 0 
L 2701 0 
L 2701 1798 
L 4301 4736 
L 3174 4736 
L 2381 3206 
C 2304 3053 2253 2931 2195 2816 
C 2144 2938 2093 3053 2016 3200 
L 1222 4736 
L 64 4736 
L 1664 1798 
z
" transform="scale(0.015625)"/>
       <path id="Satoshi-Black-65" d="M 1856 -83 
C 2733 -83 3366 371 3482 1082 
L 2579 1082 
C 2509 851 2246 717 1875 717 
C 1440 717 1203 915 1146 1338 
L 3469 1350 
L 3469 1600 
C 3469 2643 2842 3302 1837 3302 
C 870 3302 198 2605 198 1606 
C 198 621 890 -83 1856 -83 
z
M 1843 2502 
C 2240 2502 2490 2285 2490 1946 
L 1158 1946 
C 1235 2330 1453 2502 1843 2502 
z
" transform="scale(0.015625)"/>
       <path id="Satoshi-Black-61" d="M 1338 -83 
C 1818 -83 2240 128 2342 422 
L 2406 0 
L 3277 0 
L 3277 1869 
C 3277 2784 2752 3302 1824 3302 
C 909 3302 314 2829 314 2106 
L 1133 2106 
C 1133 2394 1357 2554 1773 2554 
C 2125 2554 2317 2387 2317 2074 
L 2317 2022 
L 1421 1952 
C 653 1894 237 1530 237 941 
C 237 314 659 -83 1338 -83 
z
M 1683 646 
C 1382 646 1242 755 1242 986 
C 1242 1190 1395 1286 1824 1325 
L 2323 1370 
L 2323 1197 
C 2323 832 2061 646 1683 646 
z
" transform="scale(0.015625)"/>
       <path id="Satoshi-Black-72" d="M 2573 3200 
C 2438 3232 2310 3245 2195 3245 
C 1766 3245 1485 3034 1350 2720 
L 1299 3194 
L 371 3194 
L 371 0 
L 1357 0 
L 1357 1389 
C 1357 2022 1696 2272 2259 2272 
L 2573 2272 
L 2573 3200 
z
" transform="scale(0.015625)"/>
      </defs>
      <use xlink:href="#Satoshi-Black-59"/>
      <use xlink:href="#Satoshi-Black-65" x="68.199982"/>
      <use xlink:href="#Satoshi-Black-61" x="125.699966"/>
      <use xlink:href="#Satoshi-Black-72" x="182.09996"/>
     </g>
    </g>
   </g>
   <g id="matplotlib.axis_2">
    <g id="ytick_1">
     <g id="line2d_1">
      <path d="M 57.096875 360.92125 
L 726.696875 360.92125 
" clip-path="url(#pc56e6e1dca)" style="fill: none; stroke: #cccccc; stroke-opacity: 0.5; stroke-linecap: round"/>
     </g>
     <g id="text_5">
      <!-- 0 -->
      <g style="fill: #262626" transform="translate(41.479844 364.858047) scale(0.11 -0.11)">
       <use xlink:href="#ArialMT-30"/>
      </g>
     </g>
    </g>
    <g id="ytick_2">
     <g id="line2d_2">
      <path d="M 57.096875 301.282696 
L 726.696875 301.282696 
" clip-path="url(#pc56e6e1dca)" style="fill: none; stroke: #cccccc; stroke-opacity: 0.5; stroke-linecap: round"/>
     </g>
     <g id="text_6">
      <!-- 500 -->
      <g style="fill: #262626" transform="translate(29.245781 305.219493) scale(0.11 -0.11)">
       <defs>
        <path id="ArialMT-35" d="M 266 1200 
L 856 1250 
Q 922 819 1161 601 
Q 1400 384 1738 384 
Q 2144 384 2425 690 
Q 2706 997 2706 1503 
Q 2706 1984 2436 2262 
Q 2166 2541 1728 2541 
Q 1456 2541 1237 2417 
Q 1019 2294 894 2097 
L 366 2166 
L 809 4519 
L 3088 4519 
L 3088 3981 
L 1259 3981 
L 1013 2750 
Q 1425 3038 1878 3038 
Q 2478 3038 2890 2622 
Q 3303 2206 3303 1553 
Q 3303 931 2941 478 
Q 2500 -78 1738 -78 
Q 1113 -78 717 272 
Q 322 622 266 1200 
z
" transform="scale(0.015625)"/>
       </defs>
       <use xlink:href="#ArialMT-35"/>
       <use xlink:href="#ArialMT-30" x="55.615234"/>
       <use xlink:href="#ArialMT-30" x="111.230469"/>
      </g>
     </g>
    </g>
    <g id="ytick_3">
     <g id="line2d_3">
      <path d="M 57.096875 241.644142 
L 726.696875 241.644142 
" clip-path="url(#pc56e6e1dca)" style="fill: none; stroke: #cccccc; stroke-opacity: 0.5; stroke-linecap: round"/>
     </g>
     <g id="text_7">
      <!-- 1000 -->
      <g style="fill: #262626" transform="translate(23.12875 245.580938) scale(0.11 -0.11)">
       <use xlink:href="#ArialMT-31"/>
       <use xlink:href="#ArialMT-30" x="55.615234"/>
       <use xlink:href="#ArialMT-30" x="111.230469"/>
       <use xlink:href="#ArialMT-30" x="166.845703"/>
      </g>
     </g>
    </g>
    <g id="ytick_4">
     <g id="line2d_4">
      <path d="M 57.096875 182.005587 
L 726.696875 182.005587 
" clip-path="url(#pc56e6e1dca)" style="fill: none; stroke: #cccccc; stroke-opacity: 0.5; stroke-linecap: round"/>
     </g>
     <g id="text_8">
      <!-- 1500 -->
      <g style="fill: #262626" transform="translate(23.12875 185.942384) scale(0.11 -0.11)">
       <use xlink:href="#ArialMT-31"/>
       <use xlink:href="#ArialMT-35" x="55.615234"/>
       <use xlink:href="#ArialMT-30" x="111.230469"/>
       <use xlink:href="#ArialMT-30" x="166.845703"/>
      </g>
     </g>
    </g>
    <g id="ytick_5">
     <g id="line2d_5">
      <path d="M 57.096875 122.367033 
L 726.696875 122.367033 
" clip-path="url(#pc56e6e1dca)" style="fill: none; stroke: #cccccc; stroke-opacity: 0.5; stroke-linecap: round"/>
     </g>
     <g id="text_9">
      <!-- 2000 -->
      <g style="fill: #262626" transform="translate(23.12875 126.30383) scale(0.11 -0.11)">
       <defs>
        <path id="ArialMT-32" d="M 3222 541 
L 3222 0 
L 194 0 
Q 188 203 259 391 
Q 375 700 629 1000 
Q 884 1300 1366 1694 
Q 2113 2306 2375 2664 
Q 2638 3022 2638 3341 
Q 2638 3675 2398 3904 
Q 2159 4134 1775 4134 
Q 1369 4134 1125 3890 
Q 881 3647 878 3216 
L 300 3275 
Q 359 3922 746 4261 
Q 1134 4600 1788 4600 
Q 2447 4600 2831 4234 
Q 3216 3869 3216 3328 
Q 3216 3053 3103 2787 
Q 2991 2522 2730 2228 
Q 2469 1934 1863 1422 
Q 1356 997 1212 845 
Q 1069 694 975 541 
L 3222 541 
z
" transform="scale(0.015625)"/>
       </defs>
       <use xlink:href="#ArialMT-32"/>
       <use xlink:href="#ArialMT-30" x="55.615234"/>
       <use xlink:href="#ArialMT-30" x="111.230469"/>
       <use xlink:href="#ArialMT-30" x="166.845703"/>
      </g>
     </g>
    </g>
    <g id="ytick_6">
     <g id="line2d_6">
      <path d="M 57.096875 62.728479 
L 726.696875 62.728479 
" clip-path="url(#pc56e6e1dca)" style="fill: none; stroke: #cccccc; stroke-opacity: 0.5; stroke-linecap: round"/>
     </g>
     <g id="text_10">
      <!-- 2500 -->
      <g style="fill: #262626" transform="translate(23.12875 66.665276) scale(0.11 -0.11)">
       <use xlink:href="#ArialMT-32"/>
       <use xlink:href="#ArialMT-35" x="55.615234"/>
       <use xlink:href="#ArialMT-30" x="111.230469"/>
       <use xlink:href="#ArialMT-30" x="166.845703"/>
      </g>
     </g>
    </g>
    <g id="text_11">
     <!-- Count -->
     <g style="fill: #262626" transform="translate(16.24875 212.384687) rotate(-90) scale(0.12 -0.12)">
      <defs>
       <path id="Satoshi-Black-43" d="M 2541 -77 
C 3725 -77 4608 621 4774 1677 
L 3699 1677 
C 3571 1210 3142 922 2560 922 
C 1798 922 1325 1478 1325 2368 
C 1325 3270 1792 3814 2560 3814 
C 3130 3814 3533 3546 3674 3072 
L 4768 3072 
C 4621 4134 3770 4813 2586 4813 
C 1171 4813 230 3840 230 2362 
C 230 864 1120 -77 2541 -77 
z
" transform="scale(0.015625)"/>
       <path id="Satoshi-Black-6f" d="M 198 1606 
C 198 595 941 -77 1965 -77 
C 2982 -77 3725 595 3725 1606 
C 3725 2618 2982 3296 1965 3296 
C 941 3296 198 2618 198 1606 
z
M 1190 1613 
C 1190 2093 1504 2413 1965 2413 
C 2419 2413 2733 2093 2733 1613 
C 2733 1126 2419 806 1965 806 
C 1504 806 1190 1126 1190 1613 
z
" transform="scale(0.015625)"/>
       <path id="Satoshi-Black-75" d="M 2496 3200 
L 2496 1536 
C 2496 1011 2323 794 1901 794 
C 1498 794 1318 1024 1318 1549 
L 1318 3200 
L 333 3200 
L 333 1190 
C 333 403 781 -83 1510 -83 
C 1894 -83 2291 96 2490 358 
L 2554 0 
L 3482 0 
L 3482 3200 
L 2496 3200 
z
" transform="scale(0.015625)"/>
       <path id="Satoshi-Black-6e" d="M 1357 0 
L 1357 1754 
C 1357 2150 1606 2406 1997 2406 
C 2336 2406 2560 2144 2560 1741 
L 2560 0 
L 3546 0 
L 3546 1978 
C 3546 2816 3104 3302 2342 3302 
C 1926 3302 1562 3142 1363 2867 
L 1299 3200 
L 371 3200 
L 371 0 
L 1357 0 
z
" transform="scale(0.015625)"/>
       <path id="Satoshi-Black-74" d="M 1664 0 
L 1664 2381 
L 2272 2381 
L 2272 3200 
L 1664 3200 
L 1664 4192 
L 678 4192 
L 678 3200 
L 70 3200 
L 70 2381 
L 678 2381 
L 678 0 
L 1664 0 
z
" transform="scale(0.015625)"/>
      </defs>
      <use xlink:href="#Satoshi-Black-43"/>
      <use xlink:href="#Satoshi-Black-6f" x="77.699982"/>
      <use xlink:href="#Satoshi-Black-75" x="138.999969"/>
      <use xlink:href="#Satoshi-Black-6e" x="199.199966"/>
      <use xlink:href="#Satoshi-Black-74" x="259.799957"/>
     </g>
    </g>
   </g>
   <g id="patch_3">
    <path d="M 79.416875 360.92125 
L 101.736875 360.92125 
L 101.736875 347.32366 
L 79.416875 347.32366 
z
" clip-path="url(#pc56e6e1dca)" style="fill: #aeccdb; stroke: #ffffff; stroke-linejoin: miter"/>
   </g>
   <g id="patch_4">
    <path d="M 302.616875 360.92125 
L 324.936875 360.92125 
L 324.936875 340.644142 
L 302.616875 340.644142 
z
" clip-path="url(#pc56e6e1dca)" style="fill: #aeccdb; stroke: #ffffff; stroke-linejoin: miter"/>
   </g>
   <g id="patch_5">
    <path d="M 525.816875 360.92125 
L 548.136875 360.92125 
L 548.136875 332.533298 
L 525.816875 332.533298 
z
" clip-path="url(#pc56e6e1dca)" style="fill: #aeccdb; stroke: #ffffff; stroke-linejoin: miter"/>
   </g>
   <g id="patch_6">
    <path d="M 101.736875 360.92125 
L 124.056875 360.92125 
L 124.056875 350.18631 
L 101.736875 350.18631 
z
" clip-path="url(#pc56e6e1dca)" style="fill: #3274a1; stroke: #ffffff; stroke-linejoin: miter"/>
   </g>
   <g id="patch_7">
    <path d="M 324.936875 360.92125 
L 347.256875 360.92125 
L 347.256875 346.130889 
L 324.936875 346.130889 
z
" clip-path="url(#pc56e6e1dca)" style="fill: #3274a1; stroke: #ffffff; stroke-linejoin: miter"/>
   </g>
   <g id="patch_8">
    <path d="M 548.136875 360.92125 
L 570.456875 360.92125 
L 570.456875 346.011611 
L 548.136875 346.011611 
z
" clip-path="url(#pc56e6e1dca)" style="fill: #3274a1; stroke: #ffffff; stroke-linejoin: miter"/>
   </g>
   <g id="patch_9">
    <path d="M 124.056875 360.92125 
L 146.376875 360.92125 
L 146.376875 360.324864 
L 124.056875 360.324864 
z
" clip-path="url(#pc56e6e1dca)" style="fill: #b3d495; stroke: #ffffff; stroke-linejoin: miter"/>
   </g>
   <g id="patch_10">
    <path d="M 347.256875 360.92125 
L 369.576875 360.92125 
L 369.576875 357.700768 
L 347.256875 357.700768 
z
" clip-path="url(#pc56e6e1dca)" style="fill: #b3d495; stroke: #ffffff; stroke-linejoin: miter"/>
   </g>
   <g id="patch_11">
    <path d="M 570.456875 360.92125 
L 592.776875 360.92125 
L 592.776875 333.606792 
L 570.456875 333.606792 
z
" clip-path="url(#pc56e6e1dca)" style="fill: #b3d495; stroke: #ffffff; stroke-linejoin: miter"/>
   </g>
   <g id="patch_12">
    <path d="M 146.376875 360.92125 
L 168.696875 360.92125 
L 168.696875 241.524864 
L 146.376875 241.524864 
z
" clip-path="url(#pc56e6e1dca)" style="fill: #40923a; stroke: #ffffff; stroke-linejoin: miter"/>
   </g>
   <g id="patch_13">
    <path d="M 369.576875 360.92125 
L 391.896875 360.92125 
L 391.896875 215.999563 
L 369.576875 215.999563 
z
" clip-path="url(#pc56e6e1dca)" style="fill: #40923a; stroke: #ffffff; stroke-linejoin: miter"/>
   </g>
   <g id="patch_14">
    <path d="M 592.776875 360.92125 
L 615.096875 360.92125 
L 615.096875 247.846551 
L 592.776875 247.846551 
z
" clip-path="url(#pc56e6e1dca)" style="fill: #40923a; stroke: #ffffff; stroke-linejoin: miter"/>
   </g>
   <g id="patch_15">
    <path d="M 168.696875 360.92125 
L 191.016875 360.92125 
L 191.016875 353.048961 
L 168.696875 353.048961 
z
" clip-path="url(#pc56e6e1dca)" style="fill: #efa6a5; stroke: #ffffff; stroke-linejoin: miter"/>
   </g>
   <g id="patch_16">
    <path d="M 391.896875 360.92125 
L 414.216875 360.92125 
L 414.216875 325.257395 
L 391.896875 325.257395 
z
" clip-path="url(#pc56e6e1dca)" style="fill: #efa6a5; stroke: #ffffff; stroke-linejoin: miter"/>
   </g>
   <g id="patch_17">
    <path d="M 615.096875 360.92125 
L 637.416875 360.92125 
L 637.416875 325.734503 
L 615.096875 325.734503 
z
" clip-path="url(#pc56e6e1dca)" style="fill: #efa6a5; stroke: #ffffff; stroke-linejoin: miter"/>
   </g>
   <g id="patch_18">
    <path d="M 191.016875 360.92125 
L 213.336875 360.92125 
L 213.336875 344.699563 
L 191.016875 344.699563 
z
" clip-path="url(#pc56e6e1dca)" style="fill: #ca3335; stroke: #ffffff; stroke-linejoin: miter"/>
   </g>
   <g id="patch_19">
    <path d="M 414.216875 360.92125 
L 436.536875 360.92125 
L 436.536875 340.047756 
L 414.216875 340.047756 
z
" clip-path="url(#pc56e6e1dca)" style="fill: #ca3335; stroke: #ffffff; stroke-linejoin: miter"/>
   </g>
   <g id="patch_20">
    <path d="M 637.416875 360.92125 
L 659.736875 360.92125 
L 659.736875 334.441732 
L 637.416875 334.441732 
z
" clip-path="url(#pc56e6e1dca)" style="fill: #ca3335; stroke: #ffffff; stroke-linejoin: miter"/>
   </g>
   <g id="patch_21">
    <path d="M 213.336875 360.92125 
L 235.656875 360.92125 
L 235.656875 356.985105 
L 213.336875 356.985105 
z
" clip-path="url(#pc56e6e1dca)" style="fill: #ebbd81; stroke: #ffffff; stroke-linejoin: miter"/>
   </g>
   <g id="patch_22">
    <path d="M 436.536875 360.92125 
L 458.856875 360.92125 
L 458.856875 222.679081 
L 436.536875 222.679081 
z
" clip-path="url(#pc56e6e1dca)" style="fill: #ebbd81; stroke: #ffffff; stroke-linejoin: miter"/>
   </g>
   <g id="patch_23">
    <path d="M 659.736875 360.92125 
L 682.056875 360.92125 
L 682.056875 44.12125 
L 659.736875 44.12125 
z
" clip-path="url(#pc56e6e1dca)" style="fill: #ebbd81; stroke: #ffffff; stroke-linejoin: miter"/>
   </g>
   <g id="patch_24">
    <path d="M 235.656875 360.92125 
L 257.976875 360.92125 
L 257.976875 359.132093 
L 235.656875 359.132093 
z
" clip-path="url(#pc56e6e1dca)" style="fill: #df7f20; stroke: #ffffff; stroke-linejoin: miter"/>
   </g>
   <g id="patch_25">
    <path d="M 458.856875 360.92125 
L 481.176875 360.92125 
L 481.176875 337.065828 
L 458.856875 337.065828 
z
" clip-path="url(#pc56e6e1dca)" style="fill: #df7f20; stroke: #ffffff; stroke-linejoin: miter"/>
   </g>
   <g id="patch_26">
    <path d="M 682.056875 360.92125 
L 704.376875 360.92125 
L 704.376875 323.587515 
L 682.056875 323.587515 
z
" clip-path="url(#pc56e6e1dca)" style="fill: #df7f20; stroke: #ffffff; stroke-linejoin: miter"/>
   </g>
   <g id="patch_27">
    <path d="M 168.696875 360.92125 
L 168.696875 360.92125 
L 168.696875 360.92125 
L 168.696875 360.92125 
z
" clip-path="url(#pc56e6e1dca)" style="fill: #aeccdb; stroke: #ffffff; stroke-linejoin: miter"/>
   </g>
   <g id="patch_28">
    <path d="M 168.696875 360.92125 
L 168.696875 360.92125 
L 168.696875 360.92125 
L 168.696875 360.92125 
z
" clip-path="url(#pc56e6e1dca)" style="fill: #3274a1; stroke: #ffffff; stroke-linejoin: miter"/>
   </g>
   <g id="patch_29">
    <path d="M 168.696875 360.92125 
L 168.696875 360.92125 
L 168.696875 360.92125 
L 168.696875 360.92125 
z
" clip-path="url(#pc56e6e1dca)" style="fill: #b3d495; stroke: #ffffff; stroke-linejoin: miter"/>
   </g>
   <g id="patch_30">
    <path d="M 168.696875 360.92125 
L 168.696875 360.92125 
L 168.696875 360.92125 
L 168.696875 360.92125 
z
" clip-path="url(#pc56e6e1dca)" style="fill: #40923a; stroke: #ffffff; stroke-linejoin: miter"/>
   </g>
   <g id="patch_31">
    <path d="M 168.696875 360.92125 
L 168.696875 360.92125 
L 168.696875 360.92125 
L 168.696875 360.92125 
z
" clip-path="url(#pc56e6e1dca)" style="fill: #efa6a5; stroke: #ffffff; stroke-linejoin: miter"/>
   </g>
   <g id="patch_32">
    <path d="M 168.696875 360.92125 
L 168.696875 360.92125 
L 168.696875 360.92125 
L 168.696875 360.92125 
z
" clip-path="url(#pc56e6e1dca)" style="fill: #ca3335; stroke: #ffffff; stroke-linejoin: miter"/>
   </g>
   <g id="patch_33">
    <path d="M 168.696875 360.92125 
L 168.696875 360.92125 
L 168.696875 360.92125 
L 168.696875 360.92125 
z
" clip-path="url(#pc56e6e1dca)" style="fill: #ebbd81; stroke: #ffffff; stroke-linejoin: miter"/>
   </g>
   <g id="patch_34">
    <path d="M 168.696875 360.92125 
L 168.696875 360.92125 
L 168.696875 360.92125 
L 168.696875 360.92125 
z
" clip-path="url(#pc56e6e1dca)" style="fill: #df7f20; stroke: #ffffff; stroke-linejoin: miter"/>
   </g>
   <g id="patch_35">
    <path d="M 57.096875 360.92125 
L 57.096875 28.28125 
" style="fill: none; stroke: #cccccc; stroke-width: 1.25; stroke-linejoin: miter; stroke-linecap: square"/>
   </g>
   <g id="patch_36">
    <path d="M 726.696875 360.92125 
L 726.696875 28.28125 
" style="fill: none; stroke: #cccccc; stroke-width: 1.25; stroke-linejoin: miter; stroke-linecap: square"/>
   </g>
   <g id="patch_37">
    <path d="M 57.096875 360.92125 
L 726.696875 360.92125 
" style="fill: none; stroke: #cccccc; stroke-width: 1.25; stroke-linejoin: miter; stroke-linecap: square"/>
   </g>
   <g id="patch_38">
    <path d="M 57.096875 28.28125 
L 726.696875 28.28125 
" style="fill: none; stroke: #cccccc; stroke-width: 1.25; stroke-linejoin: miter; stroke-linecap: square"/>
   </g>
   <g id="text_12">
    <!-- Brooklyn Longshoremen by Race/Ethnicity, 1880-1910 -->
    <g style="fill: #262626" transform="translate(128.779688 22.28125) scale(0.2 -0.2)">
     <defs>
      <path id="Satoshi-Black-42" d="M 493 0 
L 2464 0 
C 3488 0 4051 467 4051 1306 
C 4051 1843 3802 2208 3334 2362 
C 3763 2547 3994 2918 3994 3424 
C 3994 4237 3418 4736 2464 4736 
L 493 4736 
L 493 0 
z
M 2355 3827 
C 2733 3827 2931 3654 2931 3322 
C 2931 2982 2726 2797 2355 2797 
L 1530 2797 
L 1530 3827 
L 2355 3827 
z
M 2406 1926 
C 2784 1926 2989 1754 2989 1434 
C 2989 1082 2790 909 2406 909 
L 1530 909 
L 1530 1926 
L 2406 1926 
z
" transform="scale(0.015625)"/>
      <path id="Satoshi-Black-6b" d="M 1357 0 
L 1357 800 
L 1734 1197 
L 2451 0 
L 3590 0 
L 2426 1933 
L 3629 3200 
L 2394 3200 
L 1357 2048 
L 1357 4826 
L 371 4826 
L 371 0 
L 1357 0 
z
" transform="scale(0.015625)"/>
      <path id="Satoshi-Black-6c" d="M 1357 0 
L 1357 4826 
L 371 4826 
L 371 0 
L 1357 0 
z
" transform="scale(0.015625)"/>
      <path id="Satoshi-Black-79" d="M 115 -1536 
C 307 -1594 531 -1626 768 -1626 
C 1331 -1626 1690 -1350 1958 -698 
L 3584 3200 
L 2560 3200 
L 1786 1146 
L 1088 3200 
L 32 3200 
L 1318 -109 
L 1261 -262 
C 1133 -608 992 -710 659 -710 
L 115 -710 
L 115 -1536 
z
" transform="scale(0.015625)"/>
      <path id="Satoshi-Black-20" transform="scale(0.015625)"/>
      <path id="Satoshi-Black-4c" d="M 1530 4736 
L 493 4736 
L 493 0 
L 3398 0 
L 3398 960 
L 1530 960 
L 1530 4736 
z
" transform="scale(0.015625)"/>
      <path id="Satoshi-Black-67" d="M 211 1658 
C 211 698 832 38 1728 38 
C 2144 38 2502 186 2694 416 
L 2694 0 
C 2694 -454 2394 -736 1920 -736 
C 1485 -736 1216 -525 1197 -166 
L 198 -166 
C 288 -1075 947 -1632 1926 -1632 
C 3021 -1632 3680 -941 3680 205 
L 3680 3200 
L 2752 3200 
L 2701 2880 
C 2528 3142 2182 3309 1747 3309 
C 845 3309 211 2630 211 1658 
z
M 1203 1683 
C 1203 2138 1504 2451 1939 2451 
C 2394 2451 2694 2150 2694 1683 
C 2694 1210 2394 896 1946 896 
C 1510 896 1203 1222 1203 1683 
z
" transform="scale(0.015625)"/>
      <path id="Satoshi-Black-73" d="M 141 1011 
C 141 365 672 -83 1517 -83 
C 2349 -83 2931 333 2931 1018 
C 2931 1530 2643 1773 2118 1888 
L 1523 2016 
C 1299 2067 1178 2150 1178 2298 
C 1178 2470 1318 2586 1542 2586 
C 1779 2586 1914 2438 1914 2221 
L 2848 2221 
C 2848 2867 2330 3302 1587 3302 
C 819 3302 250 2918 250 2253 
C 250 1690 538 1434 1126 1306 
L 1715 1178 
C 1952 1126 2003 1024 2003 928 
C 2003 762 1862 653 1555 653 
C 1254 653 1088 787 1075 1011 
L 141 1011 
z
" transform="scale(0.015625)"/>
      <path id="Satoshi-Black-68" d="M 1357 0 
L 1357 1754 
C 1357 2150 1606 2406 1997 2406 
C 2336 2406 2560 2144 2560 1741 
L 2560 0 
L 3546 0 
L 3546 1978 
C 3546 2816 3104 3302 2342 3302 
C 1926 3302 1562 3142 1363 2867 
L 1363 4826 
L 371 4826 
L 371 0 
L 1357 0 
z
" transform="scale(0.015625)"/>
      <path id="Satoshi-Black-6d" d="M 1357 0 
L 1357 1715 
C 1357 2253 1645 2406 1926 2406 
C 2240 2406 2445 2214 2445 1818 
L 2445 0 
L 3430 0 
L 3430 1715 
C 3430 2259 3712 2413 3994 2413 
C 4307 2413 4518 2221 4518 1818 
L 4518 0 
L 5504 0 
L 5504 2093 
C 5504 2822 5094 3302 4269 3302 
C 3808 3302 3430 3078 3264 2739 
C 3078 3078 2771 3302 2291 3302 
C 1830 3302 1517 3091 1357 2867 
L 1293 3200 
L 371 3200 
L 371 0 
L 1357 0 
z
" transform="scale(0.015625)"/>
      <path id="Satoshi-Black-62" d="M 1299 0 
L 1350 410 
C 1523 115 1907 -83 2355 -83 
C 3264 -83 3898 576 3898 1568 
C 3898 2611 3328 3309 2432 3309 
C 1971 3309 1549 3117 1357 2829 
L 1357 4826 
L 371 4826 
L 371 0 
L 1299 0 
z
M 1363 1619 
C 1363 2099 1683 2419 2144 2419 
C 2611 2419 2906 2093 2906 1619 
C 2906 1146 2611 819 2144 819 
C 1683 819 1363 1139 1363 1619 
z
" transform="scale(0.015625)"/>
      <path id="Satoshi-Black-52" d="M 1530 0 
L 1530 1658 
L 2330 1658 
L 3040 0 
L 4173 0 
L 3341 1882 
C 3866 2150 4128 2586 4128 3200 
C 4128 4179 3475 4736 2323 4736 
L 493 4736 
L 493 0 
L 1530 0 
z
M 1530 3814 
L 2323 3814 
C 2784 3814 3034 3597 3034 3200 
C 3034 2797 2771 2566 2317 2566 
L 1530 2566 
L 1530 3814 
z
" transform="scale(0.015625)"/>
      <path id="Satoshi-Black-63" d="M 198 1613 
C 198 589 851 -83 1862 -83 
C 2758 -83 3411 467 3475 1274 
L 2483 1274 
C 2419 960 2208 800 1862 800 
C 1440 800 1190 1101 1190 1613 
C 1190 2106 1459 2419 1875 2419 
C 2214 2419 2413 2266 2483 1946 
L 3475 1946 
C 3411 2784 2784 3302 1837 3302 
C 877 3302 198 2598 198 1613 
z
" transform="scale(0.015625)"/>
      <path id="Satoshi-Black-2f" d="M 979 0 
L 2829 4723 
L 1843 4723 
L 0 0 
L 979 0 
z
" transform="scale(0.015625)"/>
      <path id="Satoshi-Black-45" d="M 3501 0 
L 3501 960 
L 1530 960 
L 1530 1939 
L 3277 1939 
L 3277 2848 
L 1530 2848 
L 1530 3776 
L 3501 3776 
L 3501 4736 
L 493 4736 
L 493 0 
L 3501 0 
z
" transform="scale(0.015625)"/>
      <path id="Satoshi-Black-69" d="M 858 3699 
C 1165 3699 1414 3949 1414 4262 
C 1414 4576 1165 4819 858 4819 
C 544 4819 294 4576 294 4262 
C 294 3949 544 3699 858 3699 
z
M 371 0 
L 1357 0 
L 1357 3200 
L 371 3200 
L 371 0 
z
" transform="scale(0.015625)"/>
      <path id="Satoshi-Black-2c" d="M 1574 326 
C 1574 768 1318 1075 947 1075 
C 614 1075 397 838 397 486 
C 397 205 627 -19 928 -19 
C 998 -19 1062 -6 1114 19 
C 1094 -243 864 -416 544 -474 
L 544 -826 
C 1146 -762 1574 -288 1574 326 
z
" transform="scale(0.015625)"/>
      <path id="Satoshi-Black-31" d="M 1293 3808 
L 1293 0 
L 2285 0 
L 2285 4736 
L 218 4736 
L 218 3808 
L 1293 3808 
z
" transform="scale(0.015625)"/>
      <path id="Satoshi-Black-38" d="M 230 1370 
C 230 480 954 -77 2106 -77 
C 3258 -77 3987 486 3987 1376 
C 3987 1926 3686 2374 3213 2554 
C 3603 2726 3814 3066 3814 3507 
C 3814 4301 3136 4826 2118 4826 
C 1101 4826 403 4294 403 3520 
C 403 3078 608 2746 986 2560 
C 525 2374 230 1920 230 1370 
z
M 1338 3418 
C 1338 3744 1632 3949 2099 3949 
C 2566 3949 2861 3744 2861 3418 
C 2861 3098 2566 2899 2099 2899 
C 1632 2899 1338 3098 1338 3418 
z
M 1248 1440 
C 1248 1824 1574 2054 2106 2054 
C 2637 2054 2963 1824 2963 1440 
C 2963 1056 2643 832 2106 832 
C 1568 832 1248 1056 1248 1440 
z
" transform="scale(0.015625)"/>
      <path id="Satoshi-Black-30" d="M 230 2355 
C 230 890 998 -83 2298 -83 
C 3597 -83 4365 890 4365 2355 
C 4365 3821 3533 4826 2298 4826 
C 1062 4826 230 3821 230 2355 
z
M 1254 2355 
C 1254 3405 1638 3917 2298 3917 
C 2957 3917 3341 3405 3341 2355 
C 3341 1338 2957 826 2298 826 
C 1638 826 1254 1338 1254 2355 
z
" transform="scale(0.015625)"/>
      <path id="Satoshi-Black-2d" d="M 384 1293 
L 2573 1293 
L 2573 2163 
L 384 2163 
L 384 1293 
z
" transform="scale(0.015625)"/>
      <path id="Satoshi-Black-39" d="M 3053 1274 
C 3629 2061 3840 2490 3840 3072 
C 3840 4064 3066 4819 2003 4819 
C 954 4819 192 4115 192 3078 
C 192 2106 858 1434 1830 1434 
C 1894 1434 1958 1440 2022 1453 
L 941 0 
L 2125 0 
L 3053 1274 
z
M 2778 3085 
C 2778 2598 2470 2272 2003 2272 
C 1549 2272 1242 2598 1242 3085 
C 1242 3571 1555 3904 2003 3904 
C 2464 3904 2778 3571 2778 3085 
z
" transform="scale(0.015625)"/>
     </defs>
     <use xlink:href="#Satoshi-Black-42"/>
     <use xlink:href="#Satoshi-Black-72" x="66.499985"/>
     <use xlink:href="#Satoshi-Black-6f" x="108.699982"/>
     <use xlink:href="#Satoshi-Black-6f" x="169.999969"/>
     <use xlink:href="#Satoshi-Black-6b" x="231.299957"/>
     <use xlink:href="#Satoshi-Black-6c" x="288.499954"/>
     <use xlink:href="#Satoshi-Black-79" x="315.499939"/>
     <use xlink:href="#Satoshi-Black-6e" x="371.999924"/>
     <use xlink:href="#Satoshi-Black-20" x="432.599915"/>
     <use xlink:href="#Satoshi-Black-4c" x="459.099899"/>
     <use xlink:href="#Satoshi-Black-6f" x="514.69989"/>
     <use xlink:href="#Satoshi-Black-6e" x="575.999878"/>
     <use xlink:href="#Satoshi-Black-67" x="636.599869"/>
     <use xlink:href="#Satoshi-Black-73" x="699.899857"/>
     <use xlink:href="#Satoshi-Black-68" x="747.899841"/>
     <use xlink:href="#Satoshi-Black-6f" x="808.499832"/>
     <use xlink:href="#Satoshi-Black-72" x="869.79982"/>
     <use xlink:href="#Satoshi-Black-65" x="911.999817"/>
     <use xlink:href="#Satoshi-Black-6d" x="969.499802"/>
     <use xlink:href="#Satoshi-Black-65" x="1060.699783"/>
     <use xlink:href="#Satoshi-Black-6e" x="1118.199768"/>
     <use xlink:href="#Satoshi-Black-20" x="1178.799759"/>
     <use xlink:href="#Satoshi-Black-62" x="1205.299744"/>
     <use xlink:href="#Satoshi-Black-79" x="1269.299728"/>
     <use xlink:href="#Satoshi-Black-20" x="1325.799713"/>
     <use xlink:href="#Satoshi-Black-52" x="1352.299698"/>
     <use xlink:href="#Satoshi-Black-61" x="1421.099686"/>
     <use xlink:href="#Satoshi-Black-63" x="1477.49968"/>
     <use xlink:href="#Satoshi-Black-65" x="1534.399673"/>
     <use xlink:href="#Satoshi-Black-2f" x="1591.899658"/>
     <use xlink:href="#Satoshi-Black-45" x="1636.099655"/>
     <use xlink:href="#Satoshi-Black-74" x="1696.399643"/>
     <use xlink:href="#Satoshi-Black-68" x="1732.999634"/>
     <use xlink:href="#Satoshi-Black-6e" x="1793.599625"/>
     <use xlink:href="#Satoshi-Black-69" x="1854.199615"/>
     <use xlink:href="#Satoshi-Black-63" x="1881.1996"/>
     <use xlink:href="#Satoshi-Black-69" x="1938.099594"/>
     <use xlink:href="#Satoshi-Black-74" x="1965.099579"/>
     <use xlink:href="#Satoshi-Black-79" x="2001.69957"/>
     <use xlink:href="#Satoshi-Black-2c" x="2058.199554"/>
     <use xlink:href="#Satoshi-Black-20" x="2088.999542"/>
     <use xlink:href="#Satoshi-Black-31" x="2115.499527"/>
     <use xlink:href="#Satoshi-Black-38" x="2159.199524"/>
     <use xlink:href="#Satoshi-Black-38" x="2225.099518"/>
     <use xlink:href="#Satoshi-Black-30" x="2290.999512"/>
     <use xlink:href="#Satoshi-Black-2d" x="2362.7995"/>
     <use xlink:href="#Satoshi-Black-31" x="2408.999496"/>
     <use xlink:href="#Satoshi-Black-39" x="2452.699493"/>
     <use xlink:href="#Satoshi-Black-31" x="2515.699478"/>
     <use xlink:href="#Satoshi-Black-30" x="2559.399475"/>
    </g>
   </g>
   <g id="legend_1">
    <g id="patch_39">
     <path d="M 65.496875 193.849375 
L 196.791875 193.849375 
Q 199.191875 193.849375 199.191875 191.449375 
L 199.191875 36.68125 
Q 199.191875 34.28125 196.791875 34.28125 
L 65.496875 34.28125 
Q 63.096875 34.28125 63.096875 36.68125 
L 63.096875 191.449375 
Q 63.096875 193.849375 65.496875 193.849375 
z
" style="fill: #ffffff; opacity: 0.8; stroke: #cccccc; stroke-linejoin: miter"/>
    </g>
    <g id="text_13">
     <!-- Race/Ethnicity -->
     <g style="fill: #262626" transform="translate(92.795938 47.816875) scale(0.12 -0.12)">
      <defs>
       <path id="ArialMT-52" d="M 503 0 
L 503 4581 
L 2534 4581 
Q 3147 4581 3465 4457 
Q 3784 4334 3975 4021 
Q 4166 3709 4166 3331 
Q 4166 2844 3850 2509 
Q 3534 2175 2875 2084 
Q 3116 1969 3241 1856 
Q 3506 1613 3744 1247 
L 4541 0 
L 3778 0 
L 3172 953 
Q 2906 1366 2734 1584 
Q 2563 1803 2427 1890 
Q 2291 1978 2150 2013 
Q 2047 2034 1813 2034 
L 1109 2034 
L 1109 0 
L 503 0 
z
M 1109 2559 
L 2413 2559 
Q 2828 2559 3062 2645 
Q 3297 2731 3419 2920 
Q 3541 3109 3541 3331 
Q 3541 3656 3305 3865 
Q 3069 4075 2559 4075 
L 1109 4075 
L 1109 2559 
z
" transform="scale(0.015625)"/>
       <path id="ArialMT-61" d="M 2588 409 
Q 2275 144 1986 34 
Q 1697 -75 1366 -75 
Q 819 -75 525 192 
Q 231 459 231 875 
Q 231 1119 342 1320 
Q 453 1522 633 1644 
Q 813 1766 1038 1828 
Q 1203 1872 1538 1913 
Q 2219 1994 2541 2106 
Q 2544 2222 2544 2253 
Q 2544 2597 2384 2738 
Q 2169 2928 1744 2928 
Q 1347 2928 1158 2789 
Q 969 2650 878 2297 
L 328 2372 
Q 403 2725 575 2942 
Q 747 3159 1072 3276 
Q 1397 3394 1825 3394 
Q 2250 3394 2515 3294 
Q 2781 3194 2906 3042 
Q 3031 2891 3081 2659 
Q 3109 2516 3109 2141 
L 3109 1391 
Q 3109 606 3145 398 
Q 3181 191 3288 0 
L 2700 0 
Q 2613 175 2588 409 
z
M 2541 1666 
Q 2234 1541 1622 1453 
Q 1275 1403 1131 1340 
Q 988 1278 909 1158 
Q 831 1038 831 891 
Q 831 666 1001 516 
Q 1172 366 1500 366 
Q 1825 366 2078 508 
Q 2331 650 2450 897 
Q 2541 1088 2541 1459 
L 2541 1666 
z
" transform="scale(0.015625)"/>
       <path id="ArialMT-63" d="M 2588 1216 
L 3141 1144 
Q 3050 572 2676 248 
Q 2303 -75 1759 -75 
Q 1078 -75 664 370 
Q 250 816 250 1647 
Q 250 2184 428 2587 
Q 606 2991 970 3192 
Q 1334 3394 1763 3394 
Q 2303 3394 2647 3120 
Q 2991 2847 3088 2344 
L 2541 2259 
Q 2463 2594 2264 2762 
Q 2066 2931 1784 2931 
Q 1359 2931 1093 2626 
Q 828 2322 828 1663 
Q 828 994 1084 691 
Q 1341 388 1753 388 
Q 2084 388 2306 591 
Q 2528 794 2588 1216 
z
" transform="scale(0.015625)"/>
       <path id="ArialMT-65" d="M 2694 1069 
L 3275 997 
Q 3138 488 2766 206 
Q 2394 -75 1816 -75 
Q 1088 -75 661 373 
Q 234 822 234 1631 
Q 234 2469 665 2931 
Q 1097 3394 1784 3394 
Q 2450 3394 2872 2941 
Q 3294 2488 3294 1666 
Q 3294 1616 3291 1516 
L 816 1516 
Q 847 969 1125 678 
Q 1403 388 1819 388 
Q 2128 388 2347 550 
Q 2566 713 2694 1069 
z
M 847 1978 
L 2700 1978 
Q 2663 2397 2488 2606 
Q 2219 2931 1791 2931 
Q 1403 2931 1139 2672 
Q 875 2413 847 1978 
z
" transform="scale(0.015625)"/>
       <path id="ArialMT-2f" d="M 0 -78 
L 1328 4659 
L 1778 4659 
L 453 -78 
L 0 -78 
z
" transform="scale(0.015625)"/>
       <path id="ArialMT-45" d="M 506 0 
L 506 4581 
L 3819 4581 
L 3819 4041 
L 1113 4041 
L 1113 2638 
L 3647 2638 
L 3647 2100 
L 1113 2100 
L 1113 541 
L 3925 541 
L 3925 0 
L 506 0 
z
" transform="scale(0.015625)"/>
       <path id="ArialMT-74" d="M 1650 503 
L 1731 6 
Q 1494 -44 1306 -44 
Q 1000 -44 831 53 
Q 663 150 594 308 
Q 525 466 525 972 
L 525 2881 
L 113 2881 
L 113 3319 
L 525 3319 
L 525 4141 
L 1084 4478 
L 1084 3319 
L 1650 3319 
L 1650 2881 
L 1084 2881 
L 1084 941 
Q 1084 700 1114 631 
Q 1144 563 1211 522 
Q 1278 481 1403 481 
Q 1497 481 1650 503 
z
" transform="scale(0.015625)"/>
       <path id="ArialMT-68" d="M 422 0 
L 422 4581 
L 984 4581 
L 984 2938 
Q 1378 3394 1978 3394 
Q 2347 3394 2619 3248 
Q 2891 3103 3008 2847 
Q 3125 2591 3125 2103 
L 3125 0 
L 2563 0 
L 2563 2103 
Q 2563 2525 2380 2717 
Q 2197 2909 1863 2909 
Q 1613 2909 1392 2779 
Q 1172 2650 1078 2428 
Q 984 2206 984 1816 
L 984 0 
L 422 0 
z
" transform="scale(0.015625)"/>
       <path id="ArialMT-6e" d="M 422 0 
L 422 3319 
L 928 3319 
L 928 2847 
Q 1294 3394 1984 3394 
Q 2284 3394 2536 3286 
Q 2788 3178 2913 3003 
Q 3038 2828 3088 2588 
Q 3119 2431 3119 2041 
L 3119 0 
L 2556 0 
L 2556 2019 
Q 2556 2363 2490 2533 
Q 2425 2703 2258 2804 
Q 2091 2906 1866 2906 
Q 1506 2906 1245 2678 
Q 984 2450 984 1813 
L 984 0 
L 422 0 
z
" transform="scale(0.015625)"/>
       <path id="ArialMT-69" d="M 425 3934 
L 425 4581 
L 988 4581 
L 988 3934 
L 425 3934 
z
M 425 0 
L 425 3319 
L 988 3319 
L 988 0 
L 425 0 
z
" transform="scale(0.015625)"/>
       <path id="ArialMT-79" d="M 397 -1278 
L 334 -750 
Q 519 -800 656 -800 
Q 844 -800 956 -737 
Q 1069 -675 1141 -563 
Q 1194 -478 1313 -144 
Q 1328 -97 1363 -6 
L 103 3319 
L 709 3319 
L 1400 1397 
Q 1534 1031 1641 628 
Q 1738 1016 1872 1384 
L 2581 3319 
L 3144 3319 
L 1881 -56 
Q 1678 -603 1566 -809 
Q 1416 -1088 1222 -1217 
Q 1028 -1347 759 -1347 
Q 597 -1347 397 -1278 
z
" transform="scale(0.015625)"/>
      </defs>
      <use xlink:href="#ArialMT-52"/>
      <use xlink:href="#ArialMT-61" x="72.216797"/>
      <use xlink:href="#ArialMT-63" x="127.832031"/>
      <use xlink:href="#ArialMT-65" x="177.832031"/>
      <use xlink:href="#ArialMT-2f" x="233.447266"/>
      <use xlink:href="#ArialMT-45" x="261.230469"/>
      <use xlink:href="#ArialMT-74" x="327.929688"/>
      <use xlink:href="#ArialMT-68" x="355.712891"/>
      <use xlink:href="#ArialMT-6e" x="411.328125"/>
      <use xlink:href="#ArialMT-69" x="466.943359"/>
      <use xlink:href="#ArialMT-63" x="489.160156"/>
      <use xlink:href="#ArialMT-69" x="539.160156"/>
      <use xlink:href="#ArialMT-74" x="561.376953"/>
      <use xlink:href="#ArialMT-79" x="589.160156"/>
     </g>
    </g>
    <g id="patch_40">
     <path d="M 67.896875 65.09125 
L 91.896875 65.09125 
L 91.896875 56.69125 
L 67.896875 56.69125 
z
" style="fill: #aeccdb; stroke: #ffffff; stroke-linejoin: miter"/>
    </g>
    <g id="text_14">
     <!-- Other (Native) -->
     <g style="fill: #262626" transform="translate(101.496875 65.09125) scale(0.12 -0.12)">
      <defs>
       <path id="Satoshi-Regular-4f" d="M 4640 2291 
C 4640 3686 3744 4666 2458 4666 
C 1178 4666 275 3680 275 2291 
C 275 902 1171 -77 2458 -77 
C 3738 -77 4640 902 4640 2291 
z
M 4166 2291 
C 4166 1152 3469 365 2458 365 
C 1446 365 755 1146 755 2291 
C 755 3437 1446 4218 2458 4218 
C 3469 4218 4166 3437 4166 2291 
z
" transform="scale(0.015625)"/>
       <path id="Satoshi-Regular-74" d="M 1171 0 
L 1171 2726 
L 1792 2726 
L 1792 3098 
L 1171 3098 
L 1171 4077 
L 736 4077 
L 736 3098 
L 115 3098 
L 115 2726 
L 736 2726 
L 736 0 
L 1171 0 
z
" transform="scale(0.015625)"/>
       <path id="Satoshi-Regular-68" d="M 902 6 
L 902 1690 
C 902 2285 1248 2778 1914 2778 
C 2394 2778 2733 2522 2733 1798 
L 2733 0 
L 3174 0 
L 3174 1894 
C 3174 2675 2810 3181 1997 3181 
C 1478 3181 1101 2931 902 2560 
L 902 4666 
L 461 4666 
L 461 6 
L 902 6 
z
" transform="scale(0.015625)"/>
       <path id="Satoshi-Regular-65" d="M 1760 -77 
C 2490 -77 2970 275 3136 928 
L 2714 928 
C 2598 518 2272 301 1766 301 
C 1101 301 704 736 672 1491 
L 3136 1491 
L 3136 1709 
C 3136 2586 2566 3181 1728 3181 
C 845 3181 243 2515 243 1549 
C 243 576 851 -77 1760 -77 
z
M 1728 2803 
C 2310 2803 2694 2406 2694 1811 
L 685 1811 
C 762 2419 1146 2803 1728 2803 
z
" transform="scale(0.015625)"/>
       <path id="Satoshi-Regular-72" d="M 2080 3136 
C 1971 3162 1888 3168 1792 3168 
C 1357 3168 1030 2950 909 2618 
L 877 3098 
L 461 3098 
L 461 0 
L 902 0 
L 902 1766 
C 902 2355 1267 2739 1837 2739 
L 2080 2739 
L 2080 3136 
z
" transform="scale(0.015625)"/>
       <path id="Satoshi-Regular-20" transform="scale(0.015625)"/>
       <path id="Satoshi-Regular-28" d="M 1626 -1005 
C 1120 -301 787 794 787 1920 
C 787 3072 1133 4147 1626 4838 
L 1222 4838 
C 672 4077 333 2976 333 1920 
C 333 819 685 -269 1222 -1005 
L 1626 -1005 
z
" transform="scale(0.015625)"/>
       <path id="Satoshi-Regular-4e" d="M 1018 0 
L 1018 3814 
L 3546 0 
L 4000 0 
L 4000 4582 
L 3546 4582 
L 3546 768 
L 1024 4582 
L 557 4582 
L 557 0 
L 1018 0 
z
" transform="scale(0.015625)"/>
       <path id="Satoshi-Regular-61" d="M 1350 -77 
C 1875 -77 2298 154 2490 544 
L 2547 0 
L 2918 0 
L 2918 2003 
C 2918 2822 2394 3181 1677 3181 
C 915 3181 403 2778 403 2150 
L 806 2150 
C 806 2566 1126 2810 1664 2810 
C 2118 2810 2483 2618 2483 2010 
L 2483 1907 
L 1459 1824 
C 736 1766 301 1408 301 838 
C 301 294 691 -77 1350 -77 
z
M 1453 282 
C 1030 282 749 474 749 851 
C 749 1197 986 1453 1568 1504 
L 2483 1574 
L 2483 1408 
C 2483 736 2106 282 1453 282 
z
" transform="scale(0.015625)"/>
       <path id="Satoshi-Regular-69" d="M 678 3949 
C 858 3949 1011 4096 1011 4275 
C 1011 4454 858 4608 678 4608 
C 499 4608 352 4454 352 4275 
C 352 4096 499 3949 678 3949 
z
M 461 0 
L 902 0 
L 902 3098 
L 461 3098 
L 461 0 
z
" transform="scale(0.015625)"/>
       <path id="Satoshi-Regular-76" d="M 1325 0 
L 1766 0 
L 3053 3098 
L 2598 3098 
L 1786 1101 
C 1696 877 1613 672 1555 461 
C 1498 666 1414 877 1331 1101 
L 531 3098 
L 58 3098 
L 1325 0 
z
" transform="scale(0.015625)"/>
       <path id="Satoshi-Regular-29" d="M 403 -1005 
C 941 -269 1293 819 1293 1920 
C 1293 2976 960 4077 403 4838 
L 0 4838 
C 493 4147 845 3072 845 1920 
C 845 794 506 -301 0 -1005 
L 403 -1005 
z
" transform="scale(0.015625)"/>
      </defs>
      <use xlink:href="#Satoshi-Regular-4f"/>
      <use xlink:href="#Satoshi-Regular-74" x="76.899994"/>
      <use xlink:href="#Satoshi-Regular-68" x="106.699982"/>
      <use xlink:href="#Satoshi-Regular-65" x="162.899979"/>
      <use xlink:href="#Satoshi-Regular-72" x="215.699966"/>
      <use xlink:href="#Satoshi-Regular-20" x="250.199951"/>
      <use xlink:href="#Satoshi-Regular-28" x="277.899948"/>
      <use xlink:href="#Satoshi-Regular-4e" x="303.299942"/>
      <use xlink:href="#Satoshi-Regular-61" x="374.59993"/>
      <use xlink:href="#Satoshi-Regular-74" x="426.799927"/>
      <use xlink:href="#Satoshi-Regular-69" x="456.599915"/>
      <use xlink:href="#Satoshi-Regular-76" x="477.899902"/>
      <use xlink:href="#Satoshi-Regular-65" x="526.499893"/>
      <use xlink:href="#Satoshi-Regular-29" x="579.299881"/>
     </g>
    </g>
    <g id="patch_41">
     <path d="M 67.896875 82.69375 
L 91.896875 82.69375 
L 91.896875 74.29375 
L 67.896875 74.29375 
z
" style="fill: #3274a1; stroke: #ffffff; stroke-linejoin: miter"/>
    </g>
    <g id="text_15">
     <!-- Other (Immigrant) -->
     <g style="fill: #262626" transform="translate(101.496875 82.69375) scale(0.12 -0.12)">
      <defs>
       <path id="Satoshi-Regular-49" d="M 1018 4582 
L 557 4582 
L 557 0 
L 1018 0 
L 1018 4582 
z
" transform="scale(0.015625)"/>
       <path id="Satoshi-Regular-6d" d="M 902 0 
L 902 1920 
C 902 2394 1216 2778 1734 2778 
C 2202 2778 2502 2470 2502 1946 
L 2502 0 
L 2938 0 
L 2938 1914 
C 2938 2394 3245 2784 3763 2784 
C 4237 2784 4531 2470 4531 1939 
L 4531 0 
L 4960 0 
L 4960 2029 
C 4960 2746 4518 3181 3846 3181 
C 3347 3181 2970 2925 2829 2522 
C 2682 2925 2317 3181 1830 3181 
C 1395 3181 1050 2982 896 2656 
L 845 3098 
L 461 3098 
L 461 0 
L 902 0 
z
" transform="scale(0.015625)"/>
       <path id="Satoshi-Regular-67" d="M 250 1638 
C 250 794 787 96 1670 96 
C 2202 96 2630 352 2842 787 
L 2842 51 
C 2842 -595 2419 -1024 1786 -1024 
C 1229 -1024 845 -730 749 -230 
L 307 -230 
C 429 -979 986 -1427 1779 -1427 
C 2688 -1427 3277 -826 3277 96 
L 3277 3098 
L 2893 3098 
L 2848 2477 
C 2650 2931 2240 3181 1702 3181 
C 794 3181 250 2483 250 1638 
z
M 691 1645 
C 691 2272 1075 2790 1741 2790 
C 2419 2790 2803 2304 2803 1645 
C 2803 979 2406 493 1734 493 
C 1082 493 691 1011 691 1645 
z
" transform="scale(0.015625)"/>
       <path id="Satoshi-Regular-6e" d="M 902 0 
L 902 1619 
C 902 2317 1261 2778 1894 2778 
C 2406 2778 2733 2522 2733 1798 
L 2733 0 
L 3174 0 
L 3174 1894 
C 3174 2675 2822 3181 1971 3181 
C 1523 3181 1114 2957 909 2560 
L 845 3098 
L 461 3098 
L 461 0 
L 902 0 
z
" transform="scale(0.015625)"/>
      </defs>
      <use xlink:href="#Satoshi-Regular-4f"/>
      <use xlink:href="#Satoshi-Regular-74" x="76.899994"/>
      <use xlink:href="#Satoshi-Regular-68" x="106.699982"/>
      <use xlink:href="#Satoshi-Regular-65" x="162.899979"/>
      <use xlink:href="#Satoshi-Regular-72" x="215.699966"/>
      <use xlink:href="#Satoshi-Regular-20" x="250.199951"/>
      <use xlink:href="#Satoshi-Regular-28" x="277.899948"/>
      <use xlink:href="#Satoshi-Regular-49" x="303.299942"/>
      <use xlink:href="#Satoshi-Regular-6d" x="327.899933"/>
      <use xlink:href="#Satoshi-Regular-6d" x="412.099915"/>
      <use xlink:href="#Satoshi-Regular-69" x="496.299896"/>
      <use xlink:href="#Satoshi-Regular-67" x="517.599884"/>
      <use xlink:href="#Satoshi-Regular-72" x="575.999878"/>
      <use xlink:href="#Satoshi-Regular-61" x="610.499863"/>
      <use xlink:href="#Satoshi-Regular-6e" x="662.69986"/>
      <use xlink:href="#Satoshi-Regular-74" x="718.899857"/>
      <use xlink:href="#Satoshi-Regular-29" x="748.699844"/>
     </g>
    </g>
    <g id="patch_42">
     <path d="M 67.896875 100.118125 
L 91.896875 100.118125 
L 91.896875 91.718125 
L 67.896875 91.718125 
z
" style="fill: #b3d495; stroke: #ffffff; stroke-linejoin: miter"/>
    </g>
    <g id="text_16">
     <!-- Slavic -->
     <g style="fill: #262626" transform="translate(101.496875 100.118125) scale(0.12 -0.12)">
      <defs>
       <path id="Satoshi-Regular-53" d="M 282 3392 
C 282 2765 659 2355 1376 2182 
L 2150 1990 
C 2643 1875 2874 1606 2874 1197 
C 2874 672 2445 346 1773 346 
C 1146 346 723 659 698 1139 
L 224 1139 
C 282 390 883 -77 1773 -77 
C 2720 -77 3334 429 3334 1222 
C 3334 1843 2963 2253 2246 2426 
L 1459 2618 
C 979 2739 742 2995 742 3398 
C 742 3917 1165 4250 1811 4250 
C 2387 4250 2739 3955 2790 3437 
L 3258 3437 
C 3187 4205 2643 4666 1818 4666 
C 896 4666 282 4160 282 3392 
z
" transform="scale(0.015625)"/>
       <path id="Satoshi-Regular-6c" d="M 922 0 
L 922 4666 
L 480 4666 
L 480 0 
L 922 0 
z
" transform="scale(0.015625)"/>
       <path id="Satoshi-Regular-63" d="M 243 1542 
C 243 570 838 -77 1715 -77 
C 2419 -77 2970 339 3117 973 
L 2669 973 
C 2547 576 2176 320 1715 320 
C 1088 320 678 813 678 1549 
C 678 2310 1120 2790 1747 2790 
C 2176 2790 2547 2554 2662 2125 
L 3104 2125 
C 2982 2765 2458 3181 1741 3181 
C 838 3181 243 2515 243 1542 
z
" transform="scale(0.015625)"/>
      </defs>
      <use xlink:href="#Satoshi-Regular-53"/>
      <use xlink:href="#Satoshi-Regular-6c" x="56.299988"/>
      <use xlink:href="#Satoshi-Regular-61" x="78.199982"/>
      <use xlink:href="#Satoshi-Regular-76" x="130.399979"/>
      <use xlink:href="#Satoshi-Regular-69" x="178.999969"/>
      <use xlink:href="#Satoshi-Regular-63" x="200.299957"/>
     </g>
    </g>
    <g id="patch_43">
     <path d="M 67.896875 117.398125 
L 91.896875 117.398125 
L 91.896875 108.998125 
L 67.896875 108.998125 
z
" style="fill: #40923a; stroke: #ffffff; stroke-linejoin: miter"/>
    </g>
    <g id="text_17">
     <!-- Irish -->
     <g style="fill: #262626" transform="translate(101.496875 117.398125) scale(0.12 -0.12)">
      <defs>
       <path id="Satoshi-Regular-73" d="M 198 870 
C 198 294 634 -77 1331 -77 
C 2035 -77 2509 288 2509 845 
C 2509 1293 2266 1542 1728 1677 
L 1197 1811 
C 858 1894 691 2061 691 2298 
C 691 2630 934 2816 1370 2816 
C 1786 2816 2035 2605 2048 2246 
L 2477 2246 
C 2458 2822 2035 3181 1382 3181 
C 717 3181 262 2835 262 2291 
C 262 1869 525 1587 1062 1453 
L 1594 1318 
C 1958 1229 2086 1082 2086 826 
C 2086 493 1805 288 1325 288 
C 890 288 621 512 621 870 
L 198 870 
z
" transform="scale(0.015625)"/>
      </defs>
      <use xlink:href="#Satoshi-Regular-49"/>
      <use xlink:href="#Satoshi-Regular-72" x="24.599991"/>
      <use xlink:href="#Satoshi-Regular-69" x="59.099976"/>
      <use xlink:href="#Satoshi-Regular-73" x="80.399963"/>
      <use xlink:href="#Satoshi-Regular-68" x="123.799957"/>
     </g>
    </g>
    <g id="patch_44">
     <path d="M 67.896875 134.678125 
L 91.896875 134.678125 
L 91.896875 126.278125 
L 67.896875 126.278125 
z
" style="fill: #efa6a5; stroke: #ffffff; stroke-linejoin: miter"/>
    </g>
    <g id="text_18">
     <!-- Scandinavian -->
     <g style="fill: #262626" transform="translate(101.496875 134.678125) scale(0.12 -0.12)">
      <defs>
       <path id="Satoshi-Regular-64" d="M 1677 -77 
C 2195 -77 2630 154 2848 634 
L 2893 0 
L 3277 0 
L 3277 4666 
L 2835 4666 
L 2835 2509 
C 2618 2957 2208 3181 1696 3181 
C 774 3181 243 2477 243 1542 
C 243 614 774 -77 1677 -77 
z
M 1754 326 
C 1082 326 691 838 691 1555 
C 691 2266 1082 2784 1754 2784 
C 2432 2784 2829 2266 2829 1555 
C 2829 838 2432 326 1754 326 
z
" transform="scale(0.015625)"/>
      </defs>
      <use xlink:href="#Satoshi-Regular-53"/>
      <use xlink:href="#Satoshi-Regular-63" x="56.299988"/>
      <use xlink:href="#Satoshi-Regular-61" x="108.299973"/>
      <use xlink:href="#Satoshi-Regular-6e" x="160.499969"/>
      <use xlink:href="#Satoshi-Regular-64" x="216.699966"/>
      <use xlink:href="#Satoshi-Regular-69" x="275.09996"/>
      <use xlink:href="#Satoshi-Regular-6e" x="296.399948"/>
      <use xlink:href="#Satoshi-Regular-61" x="352.599945"/>
      <use xlink:href="#Satoshi-Regular-76" x="404.799942"/>
      <use xlink:href="#Satoshi-Regular-69" x="453.399933"/>
      <use xlink:href="#Satoshi-Regular-61" x="474.699921"/>
      <use xlink:href="#Satoshi-Regular-6e" x="526.899918"/>
     </g>
    </g>
    <g id="patch_45">
     <path d="M 67.896875 151.958125 
L 91.896875 151.958125 
L 91.896875 143.558125 
L 67.896875 143.558125 
z
" style="fill: #ca3335; stroke: #ffffff; stroke-linejoin: miter"/>
    </g>
    <g id="text_19">
     <!-- German -->
     <g style="fill: #262626" transform="translate(101.496875 151.958125) scale(0.12 -0.12)">
      <defs>
       <path id="Satoshi-Regular-47" d="M 2477 4224 
C 3149 4224 3686 3904 3878 3277 
L 4378 3277 
C 4198 4109 3450 4659 2483 4659 
C 1171 4659 275 3674 275 2272 
C 275 858 1171 -77 2470 -77 
C 3213 -77 3789 269 4032 723 
L 4077 -6 
L 4442 -6 
L 4442 2477 
L 2349 2477 
L 2349 2067 
L 4006 2067 
L 4006 1830 
C 4006 730 3258 358 2490 358 
C 1459 358 755 1082 755 2272 
C 755 3443 1421 4224 2477 4224 
z
" transform="scale(0.015625)"/>
      </defs>
      <use xlink:href="#Satoshi-Regular-47"/>
      <use xlink:href="#Satoshi-Regular-65" x="74.999985"/>
      <use xlink:href="#Satoshi-Regular-72" x="127.799973"/>
      <use xlink:href="#Satoshi-Regular-6d" x="162.299957"/>
      <use xlink:href="#Satoshi-Regular-61" x="246.499939"/>
      <use xlink:href="#Satoshi-Regular-6e" x="298.699936"/>
     </g>
    </g>
    <g id="patch_46">
     <path d="M 67.896875 169.238125 
L 91.896875 169.238125 
L 91.896875 160.838125 
L 67.896875 160.838125 
z
" style="fill: #ebbd81; stroke: #ffffff; stroke-linejoin: miter"/>
    </g>
    <g id="text_20">
     <!-- Italian -->
     <g style="fill: #262626" transform="translate(101.496875 169.238125) scale(0.12 -0.12)">
      <use xlink:href="#Satoshi-Regular-49"/>
      <use xlink:href="#Satoshi-Regular-74" x="24.599991"/>
      <use xlink:href="#Satoshi-Regular-61" x="54.399979"/>
      <use xlink:href="#Satoshi-Regular-6c" x="106.599976"/>
      <use xlink:href="#Satoshi-Regular-69" x="128.499969"/>
      <use xlink:href="#Satoshi-Regular-61" x="149.799957"/>
      <use xlink:href="#Satoshi-Regular-6e" x="201.999954"/>
     </g>
    </g>
    <g id="patch_47">
     <path d="M 67.896875 186.518125 
L 91.896875 186.518125 
L 91.896875 178.118125 
L 67.896875 178.118125 
z
" style="fill: #df7f20; stroke: #ffffff; stroke-linejoin: miter"/>
    </g>
    <g id="text_21">
     <!-- Black -->
     <g style="fill: #262626" transform="translate(101.496875 186.518125) scale(0.12 -0.12)">
      <defs>
       <path id="Satoshi-Regular-42" d="M 557 0 
L 2330 0 
C 3200 0 3750 467 3750 1203 
C 3750 1766 3482 2138 2950 2310 
C 3424 2496 3661 2861 3661 3398 
C 3661 4134 3117 4582 2234 4582 
L 557 4582 
L 557 0 
z
M 2227 4173 
C 2842 4173 3187 3872 3187 3360 
C 3187 2816 2861 2496 2285 2496 
L 1018 2496 
L 1018 4173 
L 2227 4173 
z
M 2330 2093 
C 2925 2093 3283 1779 3283 1261 
C 3283 730 2931 416 2330 416 
L 1018 416 
L 1018 2093 
L 2330 2093 
z
" transform="scale(0.015625)"/>
       <path id="Satoshi-Regular-6b" d="M 922 0 
L 922 928 
L 1523 1549 
L 2509 0 
L 3021 0 
L 1824 1862 
L 3014 3098 
L 2458 3098 
L 922 1498 
L 922 4666 
L 480 4666 
L 480 0 
L 922 0 
z
" transform="scale(0.015625)"/>
      </defs>
      <use xlink:href="#Satoshi-Regular-42"/>
      <use xlink:href="#Satoshi-Regular-6c" x="62.899994"/>
      <use xlink:href="#Satoshi-Regular-61" x="84.799988"/>
      <use xlink:href="#Satoshi-Regular-63" x="136.999985"/>
      <use xlink:href="#Satoshi-Regular-6b" x="188.999969"/>
     </g>
    </g>
   </g>
  </g>
 </g>
 <defs>
  <clipPath id="pc56e6e1dca">
   <rect x="57.096875" y="28.28125" width="669.6" height="332.64"/>
  </clipPath>
 </defs>
</svg>
