<?xml version="1.0" encoding="utf-8" standalone="no"?>
<!DOCTYPE svg PUBLIC "-//W3C//DTD SVG 1.1//EN"
  "http://www.w3.org/Graphics/SVG/1.1/DTD/svg11.dtd">
<svg xmlns:xlink="http://www.w3.org/1999/xlink" width="843.50875pt" height="401.621719pt" viewBox="0 0 843.50875 401.621719" xmlns="http://www.w3.org/2000/svg" version="1.1">
 <metadata>
  <rdf:RDF xmlns:dc="http://purl.org/dc/elements/1.1/" xmlns:cc="http://creativecommons.org/ns#" xmlns:rdf="http://www.w3.org/1999/02/22-rdf-syntax-ns#">
   <cc:Work>
    <dc:type rdf:resource="http://purl.org/dc/dcmitype/StillImage"/>
    <dc:date>2025-03-30T14:17:58.283823</dc:date>
    <dc:format>image/svg+xml</dc:format>
    <dc:creator>
     <cc:Agent>
      <dc:title>Matplotlib v3.9.2, https://matplotlib.org/</dc:title>
     </cc:Agent>
    </dc:creator>
   </cc:Work>
  </rdf:RDF>
 </metadata>
 <defs>
  <style type="text/css">*{stroke-linejoin: round; stroke-linecap: butt}</style>
 </defs>
 <g id="figure_1">
  <g id="patch_1">
   <path d="M 0 401.621719 
L 843.50875 401.621719 
L 843.50875 0 
L 0 0 
z
" style="fill: #ffffff"/>
  </g>
  <g id="axes_1">
   <g id="patch_2">
    <path d="M 55.10875 360.92125 
L 836.30875 360.92125 
L 836.30875 28.28125 
L 55.10875 28.28125 
z
" style="fill: #ffffff"/>
   </g>
   <g id="matplotlib.axis_1">
    <g id="xtick_1">
     <g id="text_1">
      <!-- 1900 -->
      <g style="fill: #262626" transform="translate(120.994687 378.294844) scale(0.11 -0.11)">
       <defs>
        <path id="ArialMT-31" d="M 2384 0 
L 1822 0 
L 1822 3584 
Q 1619 3391 1289 3197 
Q 959 3003 697 2906 
L 697 3450 
Q 1169 3672 1522 3987 
Q 1875 4303 2022 4600 
L 2384 4600 
L 2384 0 
z
" transform="scale(0.015625)"/>
        <path id="ArialMT-39" d="M 350 1059 
L 891 1109 
Q 959 728 1153 556 
Q 1347 384 1650 384 
Q 1909 384 2104 503 
Q 2300 622 2425 820 
Q 2550 1019 2634 1356 
Q 2719 1694 2719 2044 
Q 2719 2081 2716 2156 
Q 2547 1888 2255 1720 
Q 1963 1553 1622 1553 
Q 1053 1553 659 1965 
Q 266 2378 266 3053 
Q 266 3750 677 4175 
Q 1088 4600 1706 4600 
Q 2153 4600 2523 4359 
Q 2894 4119 3086 3673 
Q 3278 3228 3278 2384 
Q 3278 1506 3087 986 
Q 2897 466 2520 194 
Q 2144 -78 1638 -78 
Q 1100 -78 759 220 
Q 419 519 350 1059 
z
M 2653 3081 
Q 2653 3566 2395 3850 
Q 2138 4134 1775 4134 
Q 1400 4134 1122 3828 
Q 844 3522 844 3034 
Q 844 2597 1108 2323 
Q 1372 2050 1759 2050 
Q 2150 2050 2401 2323 
Q 2653 2597 2653 3081 
z
" transform="scale(0.015625)"/>
        <path id="ArialMT-30" d="M 266 2259 
Q 266 3072 433 3567 
Q 600 4063 929 4331 
Q 1259 4600 1759 4600 
Q 2128 4600 2406 4451 
Q 2684 4303 2865 4023 
Q 3047 3744 3150 3342 
Q 3253 2941 3253 2259 
Q 3253 1453 3087 958 
Q 2922 463 2592 192 
Q 2263 -78 1759 -78 
Q 1097 -78 719 397 
Q 266 969 266 2259 
z
M 844 2259 
Q 844 1131 1108 757 
Q 1372 384 1759 384 
Q 2147 384 2411 759 
Q 2675 1134 2675 2259 
Q 2675 3391 2411 3762 
Q 2147 4134 1753 4134 
Q 1366 4134 1134 3806 
Q 844 3388 844 2259 
z
" transform="scale(0.015625)"/>
       </defs>
       <use xlink:href="#ArialMT-31"/>
       <use xlink:href="#ArialMT-39" x="55.615234"/>
       <use xlink:href="#ArialMT-30" x="111.230469"/>
       <use xlink:href="#ArialMT-30" x="166.845703"/>
      </g>
     </g>
    </g>
    <g id="xtick_2">
     <g id="text_2">
      <!-- 1910 -->
      <g style="fill: #262626" transform="translate(277.234688 378.294844) scale(0.11 -0.11)">
       <use xlink:href="#ArialMT-31"/>
       <use xlink:href="#ArialMT-39" x="55.615234"/>
       <use xlink:href="#ArialMT-31" x="111.230469"/>
       <use xlink:href="#ArialMT-30" x="166.845703"/>
      </g>
     </g>
    </g>
    <g id="xtick_3">
     <g id="text_3">
      <!-- 1920 -->
      <g style="fill: #262626" transform="translate(433.474688 378.294844) scale(0.11 -0.11)">
       <defs>
        <path id="ArialMT-32" d="M 3222 541 
L 3222 0 
L 194 0 
Q 188 203 259 391 
Q 375 700 629 1000 
Q 884 1300 1366 1694 
Q 2113 2306 2375 2664 
Q 2638 3022 2638 3341 
Q 2638 3675 2398 3904 
Q 2159 4134 1775 4134 
Q 1369 4134 1125 3890 
Q 881 3647 878 3216 
L 300 3275 
Q 359 3922 746 4261 
Q 1134 4600 1788 4600 
Q 2447 4600 2831 4234 
Q 3216 3869 3216 3328 
Q 3216 3053 3103 2787 
Q 2991 2522 2730 2228 
Q 2469 1934 1863 1422 
Q 1356 997 1212 845 
Q 1069 694 975 541 
L 3222 541 
z
" transform="scale(0.015625)"/>
       </defs>
       <use xlink:href="#ArialMT-31"/>
       <use xlink:href="#ArialMT-39" x="55.615234"/>
       <use xlink:href="#ArialMT-32" x="111.230469"/>
       <use xlink:href="#ArialMT-30" x="166.845703"/>
      </g>
     </g>
    </g>
    <g id="xtick_4">
     <g id="text_4">
      <!-- 1930 -->
      <g style="fill: #262626" transform="translate(589.714687 378.294844) scale(0.11 -0.11)">
       <defs>
        <path id="ArialMT-33" d="M 269 1209 
L 831 1284 
Q 928 806 1161 595 
Q 1394 384 1728 384 
Q 2125 384 2398 659 
Q 2672 934 2672 1341 
Q 2672 1728 2419 1979 
Q 2166 2231 1775 2231 
Q 1616 2231 1378 2169 
L 1441 2663 
Q 1497 2656 1531 2656 
Q 1891 2656 2178 2843 
Q 2466 3031 2466 3422 
Q 2466 3731 2256 3934 
Q 2047 4138 1716 4138 
Q 1388 4138 1169 3931 
Q 950 3725 888 3313 
L 325 3413 
Q 428 3978 793 4289 
Q 1159 4600 1703 4600 
Q 2078 4600 2393 4439 
Q 2709 4278 2876 4000 
Q 3044 3722 3044 3409 
Q 3044 3113 2884 2869 
Q 2725 2625 2413 2481 
Q 2819 2388 3044 2092 
Q 3269 1797 3269 1353 
Q 3269 753 2831 336 
Q 2394 -81 1725 -81 
Q 1122 -81 723 278 
Q 325 638 269 1209 
z
" transform="scale(0.015625)"/>
       </defs>
       <use xlink:href="#ArialMT-31"/>
       <use xlink:href="#ArialMT-39" x="55.615234"/>
       <use xlink:href="#ArialMT-33" x="111.230469"/>
       <use xlink:href="#ArialMT-30" x="166.845703"/>
      </g>
     </g>
    </g>
    <g id="xtick_5">
     <g id="text_5">
      <!-- 1940 -->
      <g style="fill: #262626" transform="translate(745.954687 378.294844) scale(0.11 -0.11)">
       <defs>
        <path id="ArialMT-34" d="M 2069 0 
L 2069 1097 
L 81 1097 
L 81 1613 
L 2172 4581 
L 2631 4581 
L 2631 1613 
L 3250 1613 
L 3250 1097 
L 2631 1097 
L 2631 0 
L 2069 0 
z
M 2069 1613 
L 2069 3678 
L 634 1613 
L 2069 1613 
z
" transform="scale(0.015625)"/>
       </defs>
       <use xlink:href="#ArialMT-31"/>
       <use xlink:href="#ArialMT-39" x="55.615234"/>
       <use xlink:href="#ArialMT-34" x="111.230469"/>
       <use xlink:href="#ArialMT-30" x="166.845703"/>
      </g>
     </g>
    </g>
    <g id="text_6">
     <!-- Year -->
     <g style="fill: #262626" transform="translate(434.493125 392.021719) scale(0.1 -0.1)">
      <defs>
       <path id="Satoshi-Black-59" d="M 1664 1798 
L 1664 0 
L 2701 0 
L 2701 1798 
L 4301 4736 
L 3174 4736 
L 2381 3206 
C 2304 3053 2253 2931 2195 2816 
C 2144 2938 2093 3053 2016 3200 
L 1222 4736 
L 64 4736 
L 1664 1798 
z
" transform="scale(0.015625)"/>
       <path id="Satoshi-Black-65" d="M 1856 -83 
C 2733 -83 3366 371 3482 1082 
L 2579 1082 
C 2509 851 2246 717 1875 717 
C 1440 717 1203 915 1146 1338 
L 3469 1350 
L 3469 1600 
C 3469 2643 2842 3302 1837 3302 
C 870 3302 198 2605 198 1606 
C 198 621 890 -83 1856 -83 
z
M 1843 2502 
C 2240 2502 2490 2285 2490 1946 
L 1158 1946 
C 1235 2330 1453 2502 1843 2502 
z
" transform="scale(0.015625)"/>
       <path id="Satoshi-Black-61" d="M 1338 -83 
C 1818 -83 2240 128 2342 422 
L 2406 0 
L 3277 0 
L 3277 1869 
C 3277 2784 2752 3302 1824 3302 
C 909 3302 314 2829 314 2106 
L 1133 2106 
C 1133 2394 1357 2554 1773 2554 
C 2125 2554 2317 2387 2317 2074 
L 2317 2022 
L 1421 1952 
C 653 1894 237 1530 237 941 
C 237 314 659 -83 1338 -83 
z
M 1683 646 
C 1382 646 1242 755 1242 986 
C 1242 1190 1395 1286 1824 1325 
L 2323 1370 
L 2323 1197 
C 2323 832 2061 646 1683 646 
z
" transform="scale(0.015625)"/>
       <path id="Satoshi-Black-72" d="M 2573 3200 
C 2438 3232 2310 3245 2195 3245 
C 1766 3245 1485 3034 1350 2720 
L 1299 3194 
L 371 3194 
L 371 0 
L 1357 0 
L 1357 1389 
C 1357 2022 1696 2272 2259 2272 
L 2573 2272 
L 2573 3200 
z
" transform="scale(0.015625)"/>
      </defs>
      <use xlink:href="#Satoshi-Black-59"/>
      <use xlink:href="#Satoshi-Black-65" x="68.199982"/>
      <use xlink:href="#Satoshi-Black-61" x="125.699966"/>
      <use xlink:href="#Satoshi-Black-72" x="182.09996"/>
     </g>
    </g>
   </g>
   <g id="matplotlib.axis_2">
    <g id="ytick_1">
     <g id="line2d_1">
      <path d="M 55.10875 360.92125 
L 836.30875 360.92125 
" clip-path="url(#pa7ce3cd3fe)" style="fill: none; stroke: #cccccc; stroke-opacity: 0.5; stroke-linecap: round"/>
     </g>
     <g id="text_7">
      <!-- 0 -->
      <g style="fill: #262626" transform="translate(39.491719 364.858047) scale(0.11 -0.11)">
       <use xlink:href="#ArialMT-30"/>
      </g>
     </g>
    </g>
    <g id="ytick_2">
     <g id="line2d_2">
      <path d="M 55.10875 323.323339 
L 836.30875 323.323339 
" clip-path="url(#pa7ce3cd3fe)" style="fill: none; stroke: #cccccc; stroke-opacity: 0.5; stroke-linecap: round"/>
     </g>
     <g id="text_8">
      <!-- 500 -->
      <g style="fill: #262626" transform="translate(27.257656 327.260136) scale(0.11 -0.11)">
       <defs>
        <path id="ArialMT-35" d="M 266 1200 
L 856 1250 
Q 922 819 1161 601 
Q 1400 384 1738 384 
Q 2144 384 2425 690 
Q 2706 997 2706 1503 
Q 2706 1984 2436 2262 
Q 2166 2541 1728 2541 
Q 1456 2541 1237 2417 
Q 1019 2294 894 2097 
L 366 2166 
L 809 4519 
L 3088 4519 
L 3088 3981 
L 1259 3981 
L 1013 2750 
Q 1425 3038 1878 3038 
Q 2478 3038 2890 2622 
Q 3303 2206 3303 1553 
Q 3303 931 2941 478 
Q 2500 -78 1738 -78 
Q 1113 -78 717 272 
Q 322 622 266 1200 
z
" transform="scale(0.015625)"/>
       </defs>
       <use xlink:href="#ArialMT-35"/>
       <use xlink:href="#ArialMT-30" x="55.615234"/>
       <use xlink:href="#ArialMT-30" x="111.230469"/>
      </g>
     </g>
    </g>
    <g id="ytick_3">
     <g id="line2d_3">
      <path d="M 55.10875 285.725428 
L 836.30875 285.725428 
" clip-path="url(#pa7ce3cd3fe)" style="fill: none; stroke: #cccccc; stroke-opacity: 0.5; stroke-linecap: round"/>
     </g>
     <g id="text_9">
      <!-- 1000 -->
      <g style="fill: #262626" transform="translate(21.140625 289.662224) scale(0.11 -0.11)">
       <use xlink:href="#ArialMT-31"/>
       <use xlink:href="#ArialMT-30" x="55.615234"/>
       <use xlink:href="#ArialMT-30" x="111.230469"/>
       <use xlink:href="#ArialMT-30" x="166.845703"/>
      </g>
     </g>
    </g>
    <g id="ytick_4">
     <g id="line2d_4">
      <path d="M 55.10875 248.127516 
L 836.30875 248.127516 
" clip-path="url(#pa7ce3cd3fe)" style="fill: none; stroke: #cccccc; stroke-opacity: 0.5; stroke-linecap: round"/>
     </g>
     <g id="text_10">
      <!-- 1500 -->
      <g style="fill: #262626" transform="translate(21.140625 252.064313) scale(0.11 -0.11)">
       <use xlink:href="#ArialMT-31"/>
       <use xlink:href="#ArialMT-35" x="55.615234"/>
       <use xlink:href="#ArialMT-30" x="111.230469"/>
       <use xlink:href="#ArialMT-30" x="166.845703"/>
      </g>
     </g>
    </g>
    <g id="ytick_5">
     <g id="line2d_5">
      <path d="M 55.10875 210.529605 
L 836.30875 210.529605 
" clip-path="url(#pa7ce3cd3fe)" style="fill: none; stroke: #cccccc; stroke-opacity: 0.5; stroke-linecap: round"/>
     </g>
     <g id="text_11">
      <!-- 2000 -->
      <g style="fill: #262626" transform="translate(21.140625 214.466402) scale(0.11 -0.11)">
       <use xlink:href="#ArialMT-32"/>
       <use xlink:href="#ArialMT-30" x="55.615234"/>
       <use xlink:href="#ArialMT-30" x="111.230469"/>
       <use xlink:href="#ArialMT-30" x="166.845703"/>
      </g>
     </g>
    </g>
    <g id="ytick_6">
     <g id="line2d_6">
      <path d="M 55.10875 172.931694 
L 836.30875 172.931694 
" clip-path="url(#pa7ce3cd3fe)" style="fill: none; stroke: #cccccc; stroke-opacity: 0.5; stroke-linecap: round"/>
     </g>
     <g id="text_12">
      <!-- 2500 -->
      <g style="fill: #262626" transform="translate(21.140625 176.868491) scale(0.11 -0.11)">
       <use xlink:href="#ArialMT-32"/>
       <use xlink:href="#ArialMT-35" x="55.615234"/>
       <use xlink:href="#ArialMT-30" x="111.230469"/>
       <use xlink:href="#ArialMT-30" x="166.845703"/>
      </g>
     </g>
    </g>
    <g id="ytick_7">
     <g id="line2d_7">
      <path d="M 55.10875 135.333783 
L 836.30875 135.333783 
" clip-path="url(#pa7ce3cd3fe)" style="fill: none; stroke: #cccccc; stroke-opacity: 0.5; stroke-linecap: round"/>
     </g>
     <g id="text_13">
      <!-- 3000 -->
      <g style="fill: #262626" transform="translate(21.140625 139.27058) scale(0.11 -0.11)">
       <use xlink:href="#ArialMT-33"/>
       <use xlink:href="#ArialMT-30" x="55.615234"/>
       <use xlink:href="#ArialMT-30" x="111.230469"/>
       <use xlink:href="#ArialMT-30" x="166.845703"/>
      </g>
     </g>
    </g>
    <g id="ytick_8">
     <g id="line2d_8">
      <path d="M 55.10875 97.735871 
L 836.30875 97.735871 
" clip-path="url(#pa7ce3cd3fe)" style="fill: none; stroke: #cccccc; stroke-opacity: 0.5; stroke-linecap: round"/>
     </g>
     <g id="text_14">
      <!-- 3500 -->
      <g style="fill: #262626" transform="translate(21.140625 101.672668) scale(0.11 -0.11)">
       <use xlink:href="#ArialMT-33"/>
       <use xlink:href="#ArialMT-35" x="55.615234"/>
       <use xlink:href="#ArialMT-30" x="111.230469"/>
       <use xlink:href="#ArialMT-30" x="166.845703"/>
      </g>
     </g>
    </g>
    <g id="ytick_9">
     <g id="line2d_9">
      <path d="M 55.10875 60.13796 
L 836.30875 60.13796 
" clip-path="url(#pa7ce3cd3fe)" style="fill: none; stroke: #cccccc; stroke-opacity: 0.5; stroke-linecap: round"/>
     </g>
     <g id="text_15">
      <!-- 4000 -->
      <g style="fill: #262626" transform="translate(21.140625 64.074757) scale(0.11 -0.11)">
       <use xlink:href="#ArialMT-34"/>
       <use xlink:href="#ArialMT-30" x="55.615234"/>
       <use xlink:href="#ArialMT-30" x="111.230469"/>
       <use xlink:href="#ArialMT-30" x="166.845703"/>
      </g>
     </g>
    </g>
    <g id="text_16">
     <!-- Count -->
     <g style="fill: #262626" transform="translate(14.740625 209.420781) rotate(-90) scale(0.1 -0.1)">
      <defs>
       <path id="Satoshi-Black-43" d="M 2541 -77 
C 3725 -77 4608 621 4774 1677 
L 3699 1677 
C 3571 1210 3142 922 2560 922 
C 1798 922 1325 1478 1325 2368 
C 1325 3270 1792 3814 2560 3814 
C 3130 3814 3533 3546 3674 3072 
L 4768 3072 
C 4621 4134 3770 4813 2586 4813 
C 1171 4813 230 3840 230 2362 
C 230 864 1120 -77 2541 -77 
z
" transform="scale(0.015625)"/>
       <path id="Satoshi-Black-6f" d="M 198 1606 
C 198 595 941 -77 1965 -77 
C 2982 -77 3725 595 3725 1606 
C 3725 2618 2982 3296 1965 3296 
C 941 3296 198 2618 198 1606 
z
M 1190 1613 
C 1190 2093 1504 2413 1965 2413 
C 2419 2413 2733 2093 2733 1613 
C 2733 1126 2419 806 1965 806 
C 1504 806 1190 1126 1190 1613 
z
" transform="scale(0.015625)"/>
       <path id="Satoshi-Black-75" d="M 2496 3200 
L 2496 1536 
C 2496 1011 2323 794 1901 794 
C 1498 794 1318 1024 1318 1549 
L 1318 3200 
L 333 3200 
L 333 1190 
C 333 403 781 -83 1510 -83 
C 1894 -83 2291 96 2490 358 
L 2554 0 
L 3482 0 
L 3482 3200 
L 2496 3200 
z
" transform="scale(0.015625)"/>
       <path id="Satoshi-Black-6e" d="M 1357 0 
L 1357 1754 
C 1357 2150 1606 2406 1997 2406 
C 2336 2406 2560 2144 2560 1741 
L 2560 0 
L 3546 0 
L 3546 1978 
C 3546 2816 3104 3302 2342 3302 
C 1926 3302 1562 3142 1363 2867 
L 1299 3200 
L 371 3200 
L 371 0 
L 1357 0 
z
" transform="scale(0.015625)"/>
       <path id="Satoshi-Black-74" d="M 1664 0 
L 1664 2381 
L 2272 2381 
L 2272 3200 
L 1664 3200 
L 1664 4192 
L 678 4192 
L 678 3200 
L 70 3200 
L 70 2381 
L 678 2381 
L 678 0 
L 1664 0 
z
" transform="scale(0.015625)"/>
      </defs>
      <use xlink:href="#Satoshi-Black-43"/>
      <use xlink:href="#Satoshi-Black-6f" x="77.699982"/>
      <use xlink:href="#Satoshi-Black-75" x="138.999969"/>
      <use xlink:href="#Satoshi-Black-6e" x="199.199966"/>
      <use xlink:href="#Satoshi-Black-74" x="259.799957"/>
     </g>
    </g>
   </g>
   <g id="patch_3">
    <path d="M 70.73275 360.92125 
L 83.23195 360.92125 
L 83.23195 357.988613 
L 70.73275 357.988613 
z
" clip-path="url(#pa7ce3cd3fe)" style="fill: #aeccdb; stroke: #ffffff; stroke-linejoin: miter"/>
   </g>
   <g id="patch_4">
    <path d="M 226.97275 360.92125 
L 239.47195 360.92125 
L 239.47195 357.763025 
L 226.97275 357.763025 
z
" clip-path="url(#pa7ce3cd3fe)" style="fill: #aeccdb; stroke: #ffffff; stroke-linejoin: miter"/>
   </g>
   <g id="patch_5">
    <path d="M 383.21275 360.92125 
L 395.71195 360.92125 
L 395.71195 348.438743 
L 383.21275 348.438743 
z
" clip-path="url(#pa7ce3cd3fe)" style="fill: #aeccdb; stroke: #ffffff; stroke-linejoin: miter"/>
   </g>
   <g id="patch_6">
    <path d="M 539.45275 360.92125 
L 551.95195 360.92125 
L 551.95195 352.724905 
L 539.45275 352.724905 
z
" clip-path="url(#pa7ce3cd3fe)" style="fill: #aeccdb; stroke: #ffffff; stroke-linejoin: miter"/>
   </g>
   <g id="patch_7">
    <path d="M 695.69275 360.92125 
L 708.19195 360.92125 
L 708.19195 307.757804 
L 695.69275 307.757804 
z
" clip-path="url(#pa7ce3cd3fe)" style="fill: #aeccdb; stroke: #ffffff; stroke-linejoin: miter"/>
   </g>
   <g id="patch_8">
    <path d="M 83.23195 360.92125 
L 95.73115 360.92125 
L 95.73115 356.78548 
L 83.23195 356.78548 
z
" clip-path="url(#pa7ce3cd3fe)" style="fill: #3274a1; stroke: #ffffff; stroke-linejoin: miter"/>
   </g>
   <g id="patch_9">
    <path d="M 239.47195 360.92125 
L 251.97115 360.92125 
L 251.97115 358.364592 
L 239.47195 358.364592 
z
" clip-path="url(#pa7ce3cd3fe)" style="fill: #3274a1; stroke: #ffffff; stroke-linejoin: miter"/>
   </g>
   <g id="patch_10">
    <path d="M 395.71195 360.92125 
L 408.21115 360.92125 
L 408.21115 353.401668 
L 395.71195 353.401668 
z
" clip-path="url(#pa7ce3cd3fe)" style="fill: #3274a1; stroke: #ffffff; stroke-linejoin: miter"/>
   </g>
   <g id="patch_11">
    <path d="M 551.95195 360.92125 
L 564.45115 360.92125 
L 564.45115 349.416289 
L 551.95195 349.416289 
z
" clip-path="url(#pa7ce3cd3fe)" style="fill: #3274a1; stroke: #ffffff; stroke-linejoin: miter"/>
   </g>
   <g id="patch_12">
    <path d="M 708.19195 360.92125 
L 720.69115 360.92125 
L 720.69115 348.363548 
L 708.19195 348.363548 
z
" clip-path="url(#pa7ce3cd3fe)" style="fill: #3274a1; stroke: #ffffff; stroke-linejoin: miter"/>
   </g>
   <g id="patch_13">
    <path d="M 95.73115 360.92125 
L 108.23035 360.92125 
L 108.23035 360.695663 
L 95.73115 360.695663 
z
" clip-path="url(#pa7ce3cd3fe)" style="fill: #b3d495; stroke: #ffffff; stroke-linejoin: miter"/>
   </g>
   <g id="patch_14">
    <path d="M 251.97115 360.92125 
L 264.47035 360.92125 
L 264.47035 360.620467 
L 251.97115 360.620467 
z
" clip-path="url(#pa7ce3cd3fe)" style="fill: #b3d495; stroke: #ffffff; stroke-linejoin: miter"/>
   </g>
   <g id="patch_15">
    <path d="M 408.21115 360.92125 
L 420.71035 360.92125 
L 420.71035 359.417334 
L 408.21115 359.417334 
z
" clip-path="url(#pa7ce3cd3fe)" style="fill: #b3d495; stroke: #ffffff; stroke-linejoin: miter"/>
   </g>
   <g id="patch_16">
    <path d="M 564.45115 360.92125 
L 576.95035 360.92125 
L 576.95035 360.0189 
L 564.45115 360.0189 
z
" clip-path="url(#pa7ce3cd3fe)" style="fill: #b3d495; stroke: #ffffff; stroke-linejoin: miter"/>
   </g>
   <g id="patch_17">
    <path d="M 720.69115 360.92125 
L 733.19035 360.92125 
L 733.19035 360.394879 
L 720.69115 360.394879 
z
" clip-path="url(#pa7ce3cd3fe)" style="fill: #b3d495; stroke: #ffffff; stroke-linejoin: miter"/>
   </g>
   <g id="patch_18">
    <path d="M 108.23035 360.92125 
L 120.72955 360.92125 
L 120.72955 318.134827 
L 108.23035 318.134827 
z
" clip-path="url(#pa7ce3cd3fe)" style="fill: #40923a; stroke: #ffffff; stroke-linejoin: miter"/>
   </g>
   <g id="patch_19">
    <path d="M 264.47035 360.92125 
L 276.96955 360.92125 
L 276.96955 336.708195 
L 264.47035 336.708195 
z
" clip-path="url(#pa7ce3cd3fe)" style="fill: #40923a; stroke: #ffffff; stroke-linejoin: miter"/>
   </g>
   <g id="patch_20">
    <path d="M 420.71035 360.92125 
L 433.20955 360.92125 
L 433.20955 328.211067 
L 420.71035 328.211067 
z
" clip-path="url(#pa7ce3cd3fe)" style="fill: #40923a; stroke: #ffffff; stroke-linejoin: miter"/>
   </g>
   <g id="patch_21">
    <path d="M 576.95035 360.92125 
L 589.44955 360.92125 
L 589.44955 348.438743 
L 576.95035 348.438743 
z
" clip-path="url(#pa7ce3cd3fe)" style="fill: #40923a; stroke: #ffffff; stroke-linejoin: miter"/>
   </g>
   <g id="patch_22">
    <path d="M 733.19035 360.92125 
L 745.68955 360.92125 
L 745.68955 357.68783 
L 733.19035 357.68783 
z
" clip-path="url(#pa7ce3cd3fe)" style="fill: #40923a; stroke: #ffffff; stroke-linejoin: miter"/>
   </g>
   <g id="patch_23">
    <path d="M 120.72955 360.92125 
L 133.22875 360.92125 
L 133.22875 344.227777 
L 120.72955 344.227777 
z
" clip-path="url(#pa7ce3cd3fe)" style="fill: #efa6a5; stroke: #ffffff; stroke-linejoin: miter"/>
   </g>
   <g id="patch_24">
    <path d="M 276.96955 360.92125 
L 289.46875 360.92125 
L 289.46875 350.168247 
L 276.96955 350.168247 
z
" clip-path="url(#pa7ce3cd3fe)" style="fill: #efa6a5; stroke: #ffffff; stroke-linejoin: miter"/>
   </g>
   <g id="patch_25">
    <path d="M 433.20955 360.92125 
L 445.70875 360.92125 
L 445.70875 343.701407 
L 433.20955 343.701407 
z
" clip-path="url(#pa7ce3cd3fe)" style="fill: #efa6a5; stroke: #ffffff; stroke-linejoin: miter"/>
   </g>
   <g id="patch_26">
    <path d="M 589.44955 360.92125 
L 601.94875 360.92125 
L 601.94875 352.123339 
L 589.44955 352.123339 
z
" clip-path="url(#pa7ce3cd3fe)" style="fill: #efa6a5; stroke: #ffffff; stroke-linejoin: miter"/>
   </g>
   <g id="patch_27">
    <path d="M 745.68955 360.92125 
L 758.18875 360.92125 
L 758.18875 356.409501 
L 745.68955 356.409501 
z
" clip-path="url(#pa7ce3cd3fe)" style="fill: #efa6a5; stroke: #ffffff; stroke-linejoin: miter"/>
   </g>
   <g id="patch_28">
    <path d="M 133.22875 360.92125 
L 145.72795 360.92125 
L 145.72795 356.635088 
L 133.22875 356.635088 
z
" clip-path="url(#pa7ce3cd3fe)" style="fill: #ca3335; stroke: #ffffff; stroke-linejoin: miter"/>
   </g>
   <g id="patch_29">
    <path d="M 289.46875 360.92125 
L 301.96795 360.92125 
L 301.96795 357.913417 
L 289.46875 357.913417 
z
" clip-path="url(#pa7ce3cd3fe)" style="fill: #ca3335; stroke: #ffffff; stroke-linejoin: miter"/>
   </g>
   <g id="patch_30">
    <path d="M 445.70875 360.92125 
L 458.20795 360.92125 
L 458.20795 357.462242 
L 445.70875 357.462242 
z
" clip-path="url(#pa7ce3cd3fe)" style="fill: #ca3335; stroke: #ffffff; stroke-linejoin: miter"/>
   </g>
   <g id="patch_31">
    <path d="M 601.94875 360.92125 
L 614.44795 360.92125 
L 614.44795 359.567725 
L 601.94875 359.567725 
z
" clip-path="url(#pa7ce3cd3fe)" style="fill: #ca3335; stroke: #ffffff; stroke-linejoin: miter"/>
   </g>
   <g id="patch_32">
    <path d="M 758.18875 360.92125 
L 770.68795 360.92125 
L 770.68795 360.470075 
L 758.18875 360.470075 
z
" clip-path="url(#pa7ce3cd3fe)" style="fill: #ca3335; stroke: #ffffff; stroke-linejoin: miter"/>
   </g>
   <g id="patch_33">
    <path d="M 145.72795 360.92125 
L 158.22715 360.92125 
L 158.22715 279.860153 
L 145.72795 279.860153 
z
" clip-path="url(#pa7ce3cd3fe)" style="fill: #ebbd81; stroke: #ffffff; stroke-linejoin: miter"/>
   </g>
   <g id="patch_34">
    <path d="M 301.96795 360.92125 
L 314.46715 360.92125 
L 314.46715 186.993313 
L 301.96795 186.993313 
z
" clip-path="url(#pa7ce3cd3fe)" style="fill: #ebbd81; stroke: #ffffff; stroke-linejoin: miter"/>
   </g>
   <g id="patch_35">
    <path d="M 458.20795 360.92125 
L 470.70715 360.92125 
L 470.70715 85.102973 
L 458.20795 85.102973 
z
" clip-path="url(#pa7ce3cd3fe)" style="fill: #ebbd81; stroke: #ffffff; stroke-linejoin: miter"/>
   </g>
   <g id="patch_36">
    <path d="M 614.44795 360.92125 
L 626.94715 360.92125 
L 626.94715 44.12125 
L 614.44795 44.12125 
z
" clip-path="url(#pa7ce3cd3fe)" style="fill: #ebbd81; stroke: #ffffff; stroke-linejoin: miter"/>
   </g>
   <g id="patch_37">
    <path d="M 770.68795 360.92125 
L 783.18715 360.92125 
L 783.18715 132.777125 
L 770.68795 132.777125 
z
" clip-path="url(#pa7ce3cd3fe)" style="fill: #ebbd81; stroke: #ffffff; stroke-linejoin: miter"/>
   </g>
   <g id="patch_38">
    <path d="M 158.22715 360.92125 
L 170.72635 360.92125 
L 170.72635 360.470075 
L 158.22715 360.470075 
z
" clip-path="url(#pa7ce3cd3fe)" style="fill: #df7f20; stroke: #ffffff; stroke-linejoin: miter"/>
   </g>
   <g id="patch_39">
    <path d="M 314.46715 360.92125 
L 326.96635 360.92125 
L 326.96635 360.695663 
L 314.46715 360.695663 
z
" clip-path="url(#pa7ce3cd3fe)" style="fill: #df7f20; stroke: #ffffff; stroke-linejoin: miter"/>
   </g>
   <g id="patch_40">
    <path d="M 470.70715 360.92125 
L 483.20635 360.92125 
L 483.20635 359.191746 
L 470.70715 359.191746 
z
" clip-path="url(#pa7ce3cd3fe)" style="fill: #df7f20; stroke: #ffffff; stroke-linejoin: miter"/>
   </g>
   <g id="patch_41">
    <path d="M 626.94715 360.92125 
L 639.44635 360.92125 
L 639.44635 360.319683 
L 626.94715 360.319683 
z
" clip-path="url(#pa7ce3cd3fe)" style="fill: #df7f20; stroke: #ffffff; stroke-linejoin: miter"/>
   </g>
   <g id="patch_42">
    <path d="M 783.18715 360.92125 
L 795.68635 360.92125 
L 795.68635 360.545271 
L 783.18715 360.545271 
z
" clip-path="url(#pa7ce3cd3fe)" style="fill: #df7f20; stroke: #ffffff; stroke-linejoin: miter"/>
   </g>
   <g id="patch_43">
    <path d="M 483.20635 360.92125 
L 495.70555 360.92125 
L 495.70555 359.718117 
L 483.20635 359.718117 
z
" clip-path="url(#pa7ce3cd3fe)" style="fill: #c8b6d2; stroke: #ffffff; stroke-linejoin: miter"/>
   </g>
   <g id="patch_44">
    <path d="M 639.44635 360.92125 
L 651.94555 360.92125 
L 651.94555 352.424122 
L 639.44635 352.424122 
z
" clip-path="url(#pa7ce3cd3fe)" style="fill: #c8b6d2; stroke: #ffffff; stroke-linejoin: miter"/>
   </g>
   <g id="patch_45">
    <path d="M 795.68635 360.92125 
L 808.18555 360.92125 
L 808.18555 356.935871 
L 795.68635 356.935871 
z
" clip-path="url(#pa7ce3cd3fe)" style="fill: #c8b6d2; stroke: #ffffff; stroke-linejoin: miter"/>
   </g>
   <g id="patch_46">
    <path d="M 495.70555 360.92125 
L 508.20475 360.92125 
L 508.20475 360.846054 
L 495.70555 360.846054 
z
" clip-path="url(#pa7ce3cd3fe)" style="fill: #6a498e; stroke: #ffffff; stroke-linejoin: miter"/>
   </g>
   <g id="patch_47">
    <path d="M 651.94555 360.92125 
L 664.44475 360.92125 
L 664.44475 360.846054 
L 651.94555 360.846054 
z
" clip-path="url(#pa7ce3cd3fe)" style="fill: #6a498e; stroke: #ffffff; stroke-linejoin: miter"/>
   </g>
   <g id="patch_48">
    <path d="M 808.18555 360.92125 
L 820.68475 360.92125 
L 820.68475 360.620467 
L 808.18555 360.620467 
z
" clip-path="url(#pa7ce3cd3fe)" style="fill: #6a498e; stroke: #ffffff; stroke-linejoin: miter"/>
   </g>
   <g id="patch_49">
    <path d="M 133.22875 360.92125 
L 133.22875 360.92125 
L 133.22875 360.92125 
L 133.22875 360.92125 
z
" clip-path="url(#pa7ce3cd3fe)" style="fill: #aeccdb; stroke: #ffffff; stroke-linejoin: miter"/>
   </g>
   <g id="patch_50">
    <path d="M 133.22875 360.92125 
L 133.22875 360.92125 
L 133.22875 360.92125 
L 133.22875 360.92125 
z
" clip-path="url(#pa7ce3cd3fe)" style="fill: #3274a1; stroke: #ffffff; stroke-linejoin: miter"/>
   </g>
   <g id="patch_51">
    <path d="M 133.22875 360.92125 
L 133.22875 360.92125 
L 133.22875 360.92125 
L 133.22875 360.92125 
z
" clip-path="url(#pa7ce3cd3fe)" style="fill: #b3d495; stroke: #ffffff; stroke-linejoin: miter"/>
   </g>
   <g id="patch_52">
    <path d="M 133.22875 360.92125 
L 133.22875 360.92125 
L 133.22875 360.92125 
L 133.22875 360.92125 
z
" clip-path="url(#pa7ce3cd3fe)" style="fill: #40923a; stroke: #ffffff; stroke-linejoin: miter"/>
   </g>
   <g id="patch_53">
    <path d="M 133.22875 360.92125 
L 133.22875 360.92125 
L 133.22875 360.92125 
L 133.22875 360.92125 
z
" clip-path="url(#pa7ce3cd3fe)" style="fill: #efa6a5; stroke: #ffffff; stroke-linejoin: miter"/>
   </g>
   <g id="patch_54">
    <path d="M 133.22875 360.92125 
L 133.22875 360.92125 
L 133.22875 360.92125 
L 133.22875 360.92125 
z
" clip-path="url(#pa7ce3cd3fe)" style="fill: #ca3335; stroke: #ffffff; stroke-linejoin: miter"/>
   </g>
   <g id="patch_55">
    <path d="M 133.22875 360.92125 
L 133.22875 360.92125 
L 133.22875 360.92125 
L 133.22875 360.92125 
z
" clip-path="url(#pa7ce3cd3fe)" style="fill: #ebbd81; stroke: #ffffff; stroke-linejoin: miter"/>
   </g>
   <g id="patch_56">
    <path d="M 133.22875 360.92125 
L 133.22875 360.92125 
L 133.22875 360.92125 
L 133.22875 360.92125 
z
" clip-path="url(#pa7ce3cd3fe)" style="fill: #df7f20; stroke: #ffffff; stroke-linejoin: miter"/>
   </g>
   <g id="patch_57">
    <path d="M 133.22875 360.92125 
L 133.22875 360.92125 
L 133.22875 360.92125 
L 133.22875 360.92125 
z
" clip-path="url(#pa7ce3cd3fe)" style="fill: #c8b6d2; stroke: #ffffff; stroke-linejoin: miter"/>
   </g>
   <g id="patch_58">
    <path d="M 133.22875 360.92125 
L 133.22875 360.92125 
L 133.22875 360.92125 
L 133.22875 360.92125 
z
" clip-path="url(#pa7ce3cd3fe)" style="fill: #6a498e; stroke: #ffffff; stroke-linejoin: miter"/>
   </g>
   <g id="patch_59">
    <path d="M 55.10875 360.92125 
L 55.10875 28.28125 
" style="fill: none; stroke: #cccccc; stroke-width: 1.25; stroke-linejoin: miter; stroke-linecap: square"/>
   </g>
   <g id="patch_60">
    <path d="M 836.30875 360.92125 
L 836.30875 28.28125 
" style="fill: none; stroke: #cccccc; stroke-width: 1.25; stroke-linejoin: miter; stroke-linecap: square"/>
   </g>
   <g id="patch_61">
    <path d="M 55.10875 360.92125 
L 836.30875 360.92125 
" style="fill: none; stroke: #cccccc; stroke-width: 1.25; stroke-linejoin: miter; stroke-linecap: square"/>
   </g>
   <g id="patch_62">
    <path d="M 55.10875 28.28125 
L 836.30875 28.28125 
" style="fill: none; stroke: #cccccc; stroke-width: 1.25; stroke-linejoin: miter; stroke-linecap: square"/>
   </g>
   <g id="text_17">
    <!-- South Brooklyn Longshoremen by Race/Ethnicity -->
    <g style="fill: #262626" transform="translate(209.28375 22.28125) scale(0.2 -0.2)">
     <defs>
      <path id="Satoshi-Black-53" d="M 230 3360 
C 230 2586 666 2106 1510 1933 
L 2234 1786 
C 2547 1722 2669 1587 2669 1325 
C 2669 1024 2374 838 1907 838 
C 1446 838 1190 1030 1190 1376 
L 160 1376 
C 160 486 845 -83 1901 -83 
C 2989 -83 3706 512 3706 1427 
C 3706 2176 3302 2579 2458 2752 
L 1747 2899 
C 1414 2970 1267 3110 1267 3398 
C 1267 3712 1536 3904 1958 3904 
C 2349 3904 2598 3699 2598 3366 
L 3629 3366 
C 3629 4262 2989 4826 1971 4826 
C 954 4826 230 4218 230 3360 
z
" transform="scale(0.015625)"/>
      <path id="Satoshi-Black-68" d="M 1357 0 
L 1357 1754 
C 1357 2150 1606 2406 1997 2406 
C 2336 2406 2560 2144 2560 1741 
L 2560 0 
L 3546 0 
L 3546 1978 
C 3546 2816 3104 3302 2342 3302 
C 1926 3302 1562 3142 1363 2867 
L 1363 4826 
L 371 4826 
L 371 0 
L 1357 0 
z
" transform="scale(0.015625)"/>
      <path id="Satoshi-Black-20" transform="scale(0.015625)"/>
      <path id="Satoshi-Black-42" d="M 493 0 
L 2464 0 
C 3488 0 4051 467 4051 1306 
C 4051 1843 3802 2208 3334 2362 
C 3763 2547 3994 2918 3994 3424 
C 3994 4237 3418 4736 2464 4736 
L 493 4736 
L 493 0 
z
M 2355 3827 
C 2733 3827 2931 3654 2931 3322 
C 2931 2982 2726 2797 2355 2797 
L 1530 2797 
L 1530 3827 
L 2355 3827 
z
M 2406 1926 
C 2784 1926 2989 1754 2989 1434 
C 2989 1082 2790 909 2406 909 
L 1530 909 
L 1530 1926 
L 2406 1926 
z
" transform="scale(0.015625)"/>
      <path id="Satoshi-Black-6b" d="M 1357 0 
L 1357 800 
L 1734 1197 
L 2451 0 
L 3590 0 
L 2426 1933 
L 3629 3200 
L 2394 3200 
L 1357 2048 
L 1357 4826 
L 371 4826 
L 371 0 
L 1357 0 
z
" transform="scale(0.015625)"/>
      <path id="Satoshi-Black-6c" d="M 1357 0 
L 1357 4826 
L 371 4826 
L 371 0 
L 1357 0 
z
" transform="scale(0.015625)"/>
      <path id="Satoshi-Black-79" d="M 115 -1536 
C 307 -1594 531 -1626 768 -1626 
C 1331 -1626 1690 -1350 1958 -698 
L 3584 3200 
L 2560 3200 
L 1786 1146 
L 1088 3200 
L 32 3200 
L 1318 -109 
L 1261 -262 
C 1133 -608 992 -710 659 -710 
L 115 -710 
L 115 -1536 
z
" transform="scale(0.015625)"/>
      <path id="Satoshi-Black-4c" d="M 1530 4736 
L 493 4736 
L 493 0 
L 3398 0 
L 3398 960 
L 1530 960 
L 1530 4736 
z
" transform="scale(0.015625)"/>
      <path id="Satoshi-Black-67" d="M 211 1658 
C 211 698 832 38 1728 38 
C 2144 38 2502 186 2694 416 
L 2694 0 
C 2694 -454 2394 -736 1920 -736 
C 1485 -736 1216 -525 1197 -166 
L 198 -166 
C 288 -1075 947 -1632 1926 -1632 
C 3021 -1632 3680 -941 3680 205 
L 3680 3200 
L 2752 3200 
L 2701 2880 
C 2528 3142 2182 3309 1747 3309 
C 845 3309 211 2630 211 1658 
z
M 1203 1683 
C 1203 2138 1504 2451 1939 2451 
C 2394 2451 2694 2150 2694 1683 
C 2694 1210 2394 896 1946 896 
C 1510 896 1203 1222 1203 1683 
z
" transform="scale(0.015625)"/>
      <path id="Satoshi-Black-73" d="M 141 1011 
C 141 365 672 -83 1517 -83 
C 2349 -83 2931 333 2931 1018 
C 2931 1530 2643 1773 2118 1888 
L 1523 2016 
C 1299 2067 1178 2150 1178 2298 
C 1178 2470 1318 2586 1542 2586 
C 1779 2586 1914 2438 1914 2221 
L 2848 2221 
C 2848 2867 2330 3302 1587 3302 
C 819 3302 250 2918 250 2253 
C 250 1690 538 1434 1126 1306 
L 1715 1178 
C 1952 1126 2003 1024 2003 928 
C 2003 762 1862 653 1555 653 
C 1254 653 1088 787 1075 1011 
L 141 1011 
z
" transform="scale(0.015625)"/>
      <path id="Satoshi-Black-6d" d="M 1357 0 
L 1357 1715 
C 1357 2253 1645 2406 1926 2406 
C 2240 2406 2445 2214 2445 1818 
L 2445 0 
L 3430 0 
L 3430 1715 
C 3430 2259 3712 2413 3994 2413 
C 4307 2413 4518 2221 4518 1818 
L 4518 0 
L 5504 0 
L 5504 2093 
C 5504 2822 5094 3302 4269 3302 
C 3808 3302 3430 3078 3264 2739 
C 3078 3078 2771 3302 2291 3302 
C 1830 3302 1517 3091 1357 2867 
L 1293 3200 
L 371 3200 
L 371 0 
L 1357 0 
z
" transform="scale(0.015625)"/>
      <path id="Satoshi-Black-62" d="M 1299 0 
L 1350 410 
C 1523 115 1907 -83 2355 -83 
C 3264 -83 3898 576 3898 1568 
C 3898 2611 3328 3309 2432 3309 
C 1971 3309 1549 3117 1357 2829 
L 1357 4826 
L 371 4826 
L 371 0 
L 1299 0 
z
M 1363 1619 
C 1363 2099 1683 2419 2144 2419 
C 2611 2419 2906 2093 2906 1619 
C 2906 1146 2611 819 2144 819 
C 1683 819 1363 1139 1363 1619 
z
" transform="scale(0.015625)"/>
      <path id="Satoshi-Black-52" d="M 1530 0 
L 1530 1658 
L 2330 1658 
L 3040 0 
L 4173 0 
L 3341 1882 
C 3866 2150 4128 2586 4128 3200 
C 4128 4179 3475 4736 2323 4736 
L 493 4736 
L 493 0 
L 1530 0 
z
M 1530 3814 
L 2323 3814 
C 2784 3814 3034 3597 3034 3200 
C 3034 2797 2771 2566 2317 2566 
L 1530 2566 
L 1530 3814 
z
" transform="scale(0.015625)"/>
      <path id="Satoshi-Black-63" d="M 198 1613 
C 198 589 851 -83 1862 -83 
C 2758 -83 3411 467 3475 1274 
L 2483 1274 
C 2419 960 2208 800 1862 800 
C 1440 800 1190 1101 1190 1613 
C 1190 2106 1459 2419 1875 2419 
C 2214 2419 2413 2266 2483 1946 
L 3475 1946 
C 3411 2784 2784 3302 1837 3302 
C 877 3302 198 2598 198 1613 
z
" transform="scale(0.015625)"/>
      <path id="Satoshi-Black-2f" d="M 979 0 
L 2829 4723 
L 1843 4723 
L 0 0 
L 979 0 
z
" transform="scale(0.015625)"/>
      <path id="Satoshi-Black-45" d="M 3501 0 
L 3501 960 
L 1530 960 
L 1530 1939 
L 3277 1939 
L 3277 2848 
L 1530 2848 
L 1530 3776 
L 3501 3776 
L 3501 4736 
L 493 4736 
L 493 0 
L 3501 0 
z
" transform="scale(0.015625)"/>
      <path id="Satoshi-Black-69" d="M 858 3699 
C 1165 3699 1414 3949 1414 4262 
C 1414 4576 1165 4819 858 4819 
C 544 4819 294 4576 294 4262 
C 294 3949 544 3699 858 3699 
z
M 371 0 
L 1357 0 
L 1357 3200 
L 371 3200 
L 371 0 
z
" transform="scale(0.015625)"/>
     </defs>
     <use xlink:href="#Satoshi-Black-53"/>
     <use xlink:href="#Satoshi-Black-6f" x="60.899994"/>
     <use xlink:href="#Satoshi-Black-75" x="122.199982"/>
     <use xlink:href="#Satoshi-Black-74" x="182.399979"/>
     <use xlink:href="#Satoshi-Black-68" x="218.999969"/>
     <use xlink:href="#Satoshi-Black-20" x="279.59996"/>
     <use xlink:href="#Satoshi-Black-42" x="306.099945"/>
     <use xlink:href="#Satoshi-Black-72" x="372.59993"/>
     <use xlink:href="#Satoshi-Black-6f" x="414.799927"/>
     <use xlink:href="#Satoshi-Black-6f" x="476.099915"/>
     <use xlink:href="#Satoshi-Black-6b" x="537.399902"/>
     <use xlink:href="#Satoshi-Black-6c" x="594.599899"/>
     <use xlink:href="#Satoshi-Black-79" x="621.599884"/>
     <use xlink:href="#Satoshi-Black-6e" x="678.099869"/>
     <use xlink:href="#Satoshi-Black-20" x="738.69986"/>
     <use xlink:href="#Satoshi-Black-4c" x="765.199844"/>
     <use xlink:href="#Satoshi-Black-6f" x="820.799835"/>
     <use xlink:href="#Satoshi-Black-6e" x="882.099823"/>
     <use xlink:href="#Satoshi-Black-67" x="942.699814"/>
     <use xlink:href="#Satoshi-Black-73" x="1005.999802"/>
     <use xlink:href="#Satoshi-Black-68" x="1053.999786"/>
     <use xlink:href="#Satoshi-Black-6f" x="1114.599777"/>
     <use xlink:href="#Satoshi-Black-72" x="1175.899765"/>
     <use xlink:href="#Satoshi-Black-65" x="1218.099762"/>
     <use xlink:href="#Satoshi-Black-6d" x="1275.599747"/>
     <use xlink:href="#Satoshi-Black-65" x="1366.799728"/>
     <use xlink:href="#Satoshi-Black-6e" x="1424.299713"/>
     <use xlink:href="#Satoshi-Black-20" x="1484.899704"/>
     <use xlink:href="#Satoshi-Black-62" x="1511.399689"/>
     <use xlink:href="#Satoshi-Black-79" x="1575.399673"/>
     <use xlink:href="#Satoshi-Black-20" x="1631.899658"/>
     <use xlink:href="#Satoshi-Black-52" x="1658.399643"/>
     <use xlink:href="#Satoshi-Black-61" x="1727.199631"/>
     <use xlink:href="#Satoshi-Black-63" x="1783.599625"/>
     <use xlink:href="#Satoshi-Black-65" x="1840.499619"/>
     <use xlink:href="#Satoshi-Black-2f" x="1897.999603"/>
     <use xlink:href="#Satoshi-Black-45" x="1942.1996"/>
     <use xlink:href="#Satoshi-Black-74" x="2002.499588"/>
     <use xlink:href="#Satoshi-Black-68" x="2039.099579"/>
     <use xlink:href="#Satoshi-Black-6e" x="2099.69957"/>
     <use xlink:href="#Satoshi-Black-69" x="2160.299561"/>
     <use xlink:href="#Satoshi-Black-63" x="2187.299545"/>
     <use xlink:href="#Satoshi-Black-69" x="2244.199539"/>
     <use xlink:href="#Satoshi-Black-74" x="2271.199524"/>
     <use xlink:href="#Satoshi-Black-79" x="2307.799515"/>
    </g>
   </g>
   <g id="legend_1">
    <g id="patch_63">
     <path d="M 62.10875 197.001875 
L 171.52125 197.001875 
Q 173.52125 197.001875 173.52125 195.001875 
L 173.52125 35.28125 
Q 173.52125 33.28125 171.52125 33.28125 
L 62.10875 33.28125 
Q 60.10875 33.28125 60.10875 35.28125 
L 60.10875 195.001875 
Q 60.10875 197.001875 62.10875 197.001875 
z
" style="fill: #ffffff; opacity: 0.8; stroke: #cccccc; stroke-linejoin: miter"/>
    </g>
    <g id="text_18">
     <!-- Race/Ethnicity -->
     <g style="fill: #262626" transform="translate(78.466563 46.016875) scale(0.12 -0.12)">
      <defs>
       <path id="ArialMT-52" d="M 503 0 
L 503 4581 
L 2534 4581 
Q 3147 4581 3465 4457 
Q 3784 4334 3975 4021 
Q 4166 3709 4166 3331 
Q 4166 2844 3850 2509 
Q 3534 2175 2875 2084 
Q 3116 1969 3241 1856 
Q 3506 1613 3744 1247 
L 4541 0 
L 3778 0 
L 3172 953 
Q 2906 1366 2734 1584 
Q 2563 1803 2427 1890 
Q 2291 1978 2150 2013 
Q 2047 2034 1813 2034 
L 1109 2034 
L 1109 0 
L 503 0 
z
M 1109 2559 
L 2413 2559 
Q 2828 2559 3062 2645 
Q 3297 2731 3419 2920 
Q 3541 3109 3541 3331 
Q 3541 3656 3305 3865 
Q 3069 4075 2559 4075 
L 1109 4075 
L 1109 2559 
z
" transform="scale(0.015625)"/>
       <path id="ArialMT-61" d="M 2588 409 
Q 2275 144 1986 34 
Q 1697 -75 1366 -75 
Q 819 -75 525 192 
Q 231 459 231 875 
Q 231 1119 342 1320 
Q 453 1522 633 1644 
Q 813 1766 1038 1828 
Q 1203 1872 1538 1913 
Q 2219 1994 2541 2106 
Q 2544 2222 2544 2253 
Q 2544 2597 2384 2738 
Q 2169 2928 1744 2928 
Q 1347 2928 1158 2789 
Q 969 2650 878 2297 
L 328 2372 
Q 403 2725 575 2942 
Q 747 3159 1072 3276 
Q 1397 3394 1825 3394 
Q 2250 3394 2515 3294 
Q 2781 3194 2906 3042 
Q 3031 2891 3081 2659 
Q 3109 2516 3109 2141 
L 3109 1391 
Q 3109 606 3145 398 
Q 3181 191 3288 0 
L 2700 0 
Q 2613 175 2588 409 
z
M 2541 1666 
Q 2234 1541 1622 1453 
Q 1275 1403 1131 1340 
Q 988 1278 909 1158 
Q 831 1038 831 891 
Q 831 666 1001 516 
Q 1172 366 1500 366 
Q 1825 366 2078 508 
Q 2331 650 2450 897 
Q 2541 1088 2541 1459 
L 2541 1666 
z
" transform="scale(0.015625)"/>
       <path id="ArialMT-63" d="M 2588 1216 
L 3141 1144 
Q 3050 572 2676 248 
Q 2303 -75 1759 -75 
Q 1078 -75 664 370 
Q 250 816 250 1647 
Q 250 2184 428 2587 
Q 606 2991 970 3192 
Q 1334 3394 1763 3394 
Q 2303 3394 2647 3120 
Q 2991 2847 3088 2344 
L 2541 2259 
Q 2463 2594 2264 2762 
Q 2066 2931 1784 2931 
Q 1359 2931 1093 2626 
Q 828 2322 828 1663 
Q 828 994 1084 691 
Q 1341 388 1753 388 
Q 2084 388 2306 591 
Q 2528 794 2588 1216 
z
" transform="scale(0.015625)"/>
       <path id="ArialMT-65" d="M 2694 1069 
L 3275 997 
Q 3138 488 2766 206 
Q 2394 -75 1816 -75 
Q 1088 -75 661 373 
Q 234 822 234 1631 
Q 234 2469 665 2931 
Q 1097 3394 1784 3394 
Q 2450 3394 2872 2941 
Q 3294 2488 3294 1666 
Q 3294 1616 3291 1516 
L 816 1516 
Q 847 969 1125 678 
Q 1403 388 1819 388 
Q 2128 388 2347 550 
Q 2566 713 2694 1069 
z
M 847 1978 
L 2700 1978 
Q 2663 2397 2488 2606 
Q 2219 2931 1791 2931 
Q 1403 2931 1139 2672 
Q 875 2413 847 1978 
z
" transform="scale(0.015625)"/>
       <path id="ArialMT-2f" d="M 0 -78 
L 1328 4659 
L 1778 4659 
L 453 -78 
L 0 -78 
z
" transform="scale(0.015625)"/>
       <path id="ArialMT-45" d="M 506 0 
L 506 4581 
L 3819 4581 
L 3819 4041 
L 1113 4041 
L 1113 2638 
L 3647 2638 
L 3647 2100 
L 1113 2100 
L 1113 541 
L 3925 541 
L 3925 0 
L 506 0 
z
" transform="scale(0.015625)"/>
       <path id="ArialMT-74" d="M 1650 503 
L 1731 6 
Q 1494 -44 1306 -44 
Q 1000 -44 831 53 
Q 663 150 594 308 
Q 525 466 525 972 
L 525 2881 
L 113 2881 
L 113 3319 
L 525 3319 
L 525 4141 
L 1084 4478 
L 1084 3319 
L 1650 3319 
L 1650 2881 
L 1084 2881 
L 1084 941 
Q 1084 700 1114 631 
Q 1144 563 1211 522 
Q 1278 481 1403 481 
Q 1497 481 1650 503 
z
" transform="scale(0.015625)"/>
       <path id="ArialMT-68" d="M 422 0 
L 422 4581 
L 984 4581 
L 984 2938 
Q 1378 3394 1978 3394 
Q 2347 3394 2619 3248 
Q 2891 3103 3008 2847 
Q 3125 2591 3125 2103 
L 3125 0 
L 2563 0 
L 2563 2103 
Q 2563 2525 2380 2717 
Q 2197 2909 1863 2909 
Q 1613 2909 1392 2779 
Q 1172 2650 1078 2428 
Q 984 2206 984 1816 
L 984 0 
L 422 0 
z
" transform="scale(0.015625)"/>
       <path id="ArialMT-6e" d="M 422 0 
L 422 3319 
L 928 3319 
L 928 2847 
Q 1294 3394 1984 3394 
Q 2284 3394 2536 3286 
Q 2788 3178 2913 3003 
Q 3038 2828 3088 2588 
Q 3119 2431 3119 2041 
L 3119 0 
L 2556 0 
L 2556 2019 
Q 2556 2363 2490 2533 
Q 2425 2703 2258 2804 
Q 2091 2906 1866 2906 
Q 1506 2906 1245 2678 
Q 984 2450 984 1813 
L 984 0 
L 422 0 
z
" transform="scale(0.015625)"/>
       <path id="ArialMT-69" d="M 425 3934 
L 425 4581 
L 988 4581 
L 988 3934 
L 425 3934 
z
M 425 0 
L 425 3319 
L 988 3319 
L 988 0 
L 425 0 
z
" transform="scale(0.015625)"/>
       <path id="ArialMT-79" d="M 397 -1278 
L 334 -750 
Q 519 -800 656 -800 
Q 844 -800 956 -737 
Q 1069 -675 1141 -563 
Q 1194 -478 1313 -144 
Q 1328 -97 1363 -6 
L 103 3319 
L 709 3319 
L 1400 1397 
Q 1534 1031 1641 628 
Q 1738 1016 1872 1384 
L 2581 3319 
L 3144 3319 
L 1881 -56 
Q 1678 -603 1566 -809 
Q 1416 -1088 1222 -1217 
Q 1028 -1347 759 -1347 
Q 597 -1347 397 -1278 
z
" transform="scale(0.015625)"/>
      </defs>
      <use xlink:href="#ArialMT-52"/>
      <use xlink:href="#ArialMT-61" x="72.216797"/>
      <use xlink:href="#ArialMT-63" x="127.832031"/>
      <use xlink:href="#ArialMT-65" x="177.832031"/>
      <use xlink:href="#ArialMT-2f" x="233.447266"/>
      <use xlink:href="#ArialMT-45" x="261.230469"/>
      <use xlink:href="#ArialMT-74" x="327.929688"/>
      <use xlink:href="#ArialMT-68" x="355.712891"/>
      <use xlink:href="#ArialMT-6e" x="411.328125"/>
      <use xlink:href="#ArialMT-69" x="466.943359"/>
      <use xlink:href="#ArialMT-63" x="489.160156"/>
      <use xlink:href="#ArialMT-69" x="539.160156"/>
      <use xlink:href="#ArialMT-74" x="561.376953"/>
      <use xlink:href="#ArialMT-79" x="589.160156"/>
     </g>
    </g>
    <g id="patch_64">
     <path d="M 64.10875 60.833125 
L 84.10875 60.833125 
L 84.10875 53.833125 
L 64.10875 53.833125 
z
" style="fill: #aeccdb; stroke: #ffffff; stroke-linejoin: miter"/>
    </g>
    <g id="text_19">
     <!-- Other (Native) -->
     <g style="fill: #262626" transform="translate(92.10875 60.833125) scale(0.1 -0.1)">
      <defs>
       <path id="Satoshi-Regular-4f" d="M 4640 2291 
C 4640 3686 3744 4666 2458 4666 
C 1178 4666 275 3680 275 2291 
C 275 902 1171 -77 2458 -77 
C 3738 -77 4640 902 4640 2291 
z
M 4166 2291 
C 4166 1152 3469 365 2458 365 
C 1446 365 755 1146 755 2291 
C 755 3437 1446 4218 2458 4218 
C 3469 4218 4166 3437 4166 2291 
z
" transform="scale(0.015625)"/>
       <path id="Satoshi-Regular-74" d="M 1171 0 
L 1171 2726 
L 1792 2726 
L 1792 3098 
L 1171 3098 
L 1171 4077 
L 736 4077 
L 736 3098 
L 115 3098 
L 115 2726 
L 736 2726 
L 736 0 
L 1171 0 
z
" transform="scale(0.015625)"/>
       <path id="Satoshi-Regular-68" d="M 902 6 
L 902 1690 
C 902 2285 1248 2778 1914 2778 
C 2394 2778 2733 2522 2733 1798 
L 2733 0 
L 3174 0 
L 3174 1894 
C 3174 2675 2810 3181 1997 3181 
C 1478 3181 1101 2931 902 2560 
L 902 4666 
L 461 4666 
L 461 6 
L 902 6 
z
" transform="scale(0.015625)"/>
       <path id="Satoshi-Regular-65" d="M 1760 -77 
C 2490 -77 2970 275 3136 928 
L 2714 928 
C 2598 518 2272 301 1766 301 
C 1101 301 704 736 672 1491 
L 3136 1491 
L 3136 1709 
C 3136 2586 2566 3181 1728 3181 
C 845 3181 243 2515 243 1549 
C 243 576 851 -77 1760 -77 
z
M 1728 2803 
C 2310 2803 2694 2406 2694 1811 
L 685 1811 
C 762 2419 1146 2803 1728 2803 
z
" transform="scale(0.015625)"/>
       <path id="Satoshi-Regular-72" d="M 2080 3136 
C 1971 3162 1888 3168 1792 3168 
C 1357 3168 1030 2950 909 2618 
L 877 3098 
L 461 3098 
L 461 0 
L 902 0 
L 902 1766 
C 902 2355 1267 2739 1837 2739 
L 2080 2739 
L 2080 3136 
z
" transform="scale(0.015625)"/>
       <path id="Satoshi-Regular-20" transform="scale(0.015625)"/>
       <path id="Satoshi-Regular-28" d="M 1626 -1005 
C 1120 -301 787 794 787 1920 
C 787 3072 1133 4147 1626 4838 
L 1222 4838 
C 672 4077 333 2976 333 1920 
C 333 819 685 -269 1222 -1005 
L 1626 -1005 
z
" transform="scale(0.015625)"/>
       <path id="Satoshi-Regular-4e" d="M 1018 0 
L 1018 3814 
L 3546 0 
L 4000 0 
L 4000 4582 
L 3546 4582 
L 3546 768 
L 1024 4582 
L 557 4582 
L 557 0 
L 1018 0 
z
" transform="scale(0.015625)"/>
       <path id="Satoshi-Regular-61" d="M 1350 -77 
C 1875 -77 2298 154 2490 544 
L 2547 0 
L 2918 0 
L 2918 2003 
C 2918 2822 2394 3181 1677 3181 
C 915 3181 403 2778 403 2150 
L 806 2150 
C 806 2566 1126 2810 1664 2810 
C 2118 2810 2483 2618 2483 2010 
L 2483 1907 
L 1459 1824 
C 736 1766 301 1408 301 838 
C 301 294 691 -77 1350 -77 
z
M 1453 282 
C 1030 282 749 474 749 851 
C 749 1197 986 1453 1568 1504 
L 2483 1574 
L 2483 1408 
C 2483 736 2106 282 1453 282 
z
" transform="scale(0.015625)"/>
       <path id="Satoshi-Regular-69" d="M 678 3949 
C 858 3949 1011 4096 1011 4275 
C 1011 4454 858 4608 678 4608 
C 499 4608 352 4454 352 4275 
C 352 4096 499 3949 678 3949 
z
M 461 0 
L 902 0 
L 902 3098 
L 461 3098 
L 461 0 
z
" transform="scale(0.015625)"/>
       <path id="Satoshi-Regular-76" d="M 1325 0 
L 1766 0 
L 3053 3098 
L 2598 3098 
L 1786 1101 
C 1696 877 1613 672 1555 461 
C 1498 666 1414 877 1331 1101 
L 531 3098 
L 58 3098 
L 1325 0 
z
" transform="scale(0.015625)"/>
       <path id="Satoshi-Regular-29" d="M 403 -1005 
C 941 -269 1293 819 1293 1920 
C 1293 2976 960 4077 403 4838 
L 0 4838 
C 493 4147 845 3072 845 1920 
C 845 794 506 -301 0 -1005 
L 403 -1005 
z
" transform="scale(0.015625)"/>
      </defs>
      <use xlink:href="#Satoshi-Regular-4f"/>
      <use xlink:href="#Satoshi-Regular-74" x="76.899994"/>
      <use xlink:href="#Satoshi-Regular-68" x="106.699982"/>
      <use xlink:href="#Satoshi-Regular-65" x="162.899979"/>
      <use xlink:href="#Satoshi-Regular-72" x="215.699966"/>
      <use xlink:href="#Satoshi-Regular-20" x="250.199951"/>
      <use xlink:href="#Satoshi-Regular-28" x="277.899948"/>
      <use xlink:href="#Satoshi-Regular-4e" x="303.299942"/>
      <use xlink:href="#Satoshi-Regular-61" x="374.59993"/>
      <use xlink:href="#Satoshi-Regular-74" x="426.799927"/>
      <use xlink:href="#Satoshi-Regular-69" x="456.599915"/>
      <use xlink:href="#Satoshi-Regular-76" x="477.899902"/>
      <use xlink:href="#Satoshi-Regular-65" x="526.499893"/>
      <use xlink:href="#Satoshi-Regular-29" x="579.299881"/>
     </g>
    </g>
    <g id="patch_65">
     <path d="M 64.10875 75.501875 
L 84.10875 75.501875 
L 84.10875 68.501875 
L 64.10875 68.501875 
z
" style="fill: #3274a1; stroke: #ffffff; stroke-linejoin: miter"/>
    </g>
    <g id="text_20">
     <!-- Other (Immigrant) -->
     <g style="fill: #262626" transform="translate(92.10875 75.501875) scale(0.1 -0.1)">
      <defs>
       <path id="Satoshi-Regular-49" d="M 1018 4582 
L 557 4582 
L 557 0 
L 1018 0 
L 1018 4582 
z
" transform="scale(0.015625)"/>
       <path id="Satoshi-Regular-6d" d="M 902 0 
L 902 1920 
C 902 2394 1216 2778 1734 2778 
C 2202 2778 2502 2470 2502 1946 
L 2502 0 
L 2938 0 
L 2938 1914 
C 2938 2394 3245 2784 3763 2784 
C 4237 2784 4531 2470 4531 1939 
L 4531 0 
L 4960 0 
L 4960 2029 
C 4960 2746 4518 3181 3846 3181 
C 3347 3181 2970 2925 2829 2522 
C 2682 2925 2317 3181 1830 3181 
C 1395 3181 1050 2982 896 2656 
L 845 3098 
L 461 3098 
L 461 0 
L 902 0 
z
" transform="scale(0.015625)"/>
       <path id="Satoshi-Regular-67" d="M 250 1638 
C 250 794 787 96 1670 96 
C 2202 96 2630 352 2842 787 
L 2842 51 
C 2842 -595 2419 -1024 1786 -1024 
C 1229 -1024 845 -730 749 -230 
L 307 -230 
C 429 -979 986 -1427 1779 -1427 
C 2688 -1427 3277 -826 3277 96 
L 3277 3098 
L 2893 3098 
L 2848 2477 
C 2650 2931 2240 3181 1702 3181 
C 794 3181 250 2483 250 1638 
z
M 691 1645 
C 691 2272 1075 2790 1741 2790 
C 2419 2790 2803 2304 2803 1645 
C 2803 979 2406 493 1734 493 
C 1082 493 691 1011 691 1645 
z
" transform="scale(0.015625)"/>
       <path id="Satoshi-Regular-6e" d="M 902 0 
L 902 1619 
C 902 2317 1261 2778 1894 2778 
C 2406 2778 2733 2522 2733 1798 
L 2733 0 
L 3174 0 
L 3174 1894 
C 3174 2675 2822 3181 1971 3181 
C 1523 3181 1114 2957 909 2560 
L 845 3098 
L 461 3098 
L 461 0 
L 902 0 
z
" transform="scale(0.015625)"/>
      </defs>
      <use xlink:href="#Satoshi-Regular-4f"/>
      <use xlink:href="#Satoshi-Regular-74" x="76.899994"/>
      <use xlink:href="#Satoshi-Regular-68" x="106.699982"/>
      <use xlink:href="#Satoshi-Regular-65" x="162.899979"/>
      <use xlink:href="#Satoshi-Regular-72" x="215.699966"/>
      <use xlink:href="#Satoshi-Regular-20" x="250.199951"/>
      <use xlink:href="#Satoshi-Regular-28" x="277.899948"/>
      <use xlink:href="#Satoshi-Regular-49" x="303.299942"/>
      <use xlink:href="#Satoshi-Regular-6d" x="327.899933"/>
      <use xlink:href="#Satoshi-Regular-6d" x="412.099915"/>
      <use xlink:href="#Satoshi-Regular-69" x="496.299896"/>
      <use xlink:href="#Satoshi-Regular-67" x="517.599884"/>
      <use xlink:href="#Satoshi-Regular-72" x="575.999878"/>
      <use xlink:href="#Satoshi-Regular-61" x="610.499863"/>
      <use xlink:href="#Satoshi-Regular-6e" x="662.69986"/>
      <use xlink:href="#Satoshi-Regular-74" x="718.899857"/>
      <use xlink:href="#Satoshi-Regular-29" x="748.699844"/>
     </g>
    </g>
    <g id="patch_66">
     <path d="M 64.10875 90.022187 
L 84.10875 90.022187 
L 84.10875 83.022187 
L 64.10875 83.022187 
z
" style="fill: #b3d495; stroke: #ffffff; stroke-linejoin: miter"/>
    </g>
    <g id="text_21">
     <!-- Slavic -->
     <g style="fill: #262626" transform="translate(92.10875 90.022187) scale(0.1 -0.1)">
      <defs>
       <path id="Satoshi-Regular-53" d="M 282 3392 
C 282 2765 659 2355 1376 2182 
L 2150 1990 
C 2643 1875 2874 1606 2874 1197 
C 2874 672 2445 346 1773 346 
C 1146 346 723 659 698 1139 
L 224 1139 
C 282 390 883 -77 1773 -77 
C 2720 -77 3334 429 3334 1222 
C 3334 1843 2963 2253 2246 2426 
L 1459 2618 
C 979 2739 742 2995 742 3398 
C 742 3917 1165 4250 1811 4250 
C 2387 4250 2739 3955 2790 3437 
L 3258 3437 
C 3187 4205 2643 4666 1818 4666 
C 896 4666 282 4160 282 3392 
z
" transform="scale(0.015625)"/>
       <path id="Satoshi-Regular-6c" d="M 922 0 
L 922 4666 
L 480 4666 
L 480 0 
L 922 0 
z
" transform="scale(0.015625)"/>
       <path id="Satoshi-Regular-63" d="M 243 1542 
C 243 570 838 -77 1715 -77 
C 2419 -77 2970 339 3117 973 
L 2669 973 
C 2547 576 2176 320 1715 320 
C 1088 320 678 813 678 1549 
C 678 2310 1120 2790 1747 2790 
C 2176 2790 2547 2554 2662 2125 
L 3104 2125 
C 2982 2765 2458 3181 1741 3181 
C 838 3181 243 2515 243 1542 
z
" transform="scale(0.015625)"/>
      </defs>
      <use xlink:href="#Satoshi-Regular-53"/>
      <use xlink:href="#Satoshi-Regular-6c" x="56.299988"/>
      <use xlink:href="#Satoshi-Regular-61" x="78.199982"/>
      <use xlink:href="#Satoshi-Regular-76" x="130.399979"/>
      <use xlink:href="#Satoshi-Regular-69" x="178.999969"/>
      <use xlink:href="#Satoshi-Regular-63" x="200.299957"/>
     </g>
    </g>
    <g id="patch_67">
     <path d="M 64.10875 104.422187 
L 84.10875 104.422187 
L 84.10875 97.422187 
L 64.10875 97.422187 
z
" style="fill: #40923a; stroke: #ffffff; stroke-linejoin: miter"/>
    </g>
    <g id="text_22">
     <!-- Irish -->
     <g style="fill: #262626" transform="translate(92.10875 104.422187) scale(0.1 -0.1)">
      <defs>
       <path id="Satoshi-Regular-73" d="M 198 870 
C 198 294 634 -77 1331 -77 
C 2035 -77 2509 288 2509 845 
C 2509 1293 2266 1542 1728 1677 
L 1197 1811 
C 858 1894 691 2061 691 2298 
C 691 2630 934 2816 1370 2816 
C 1786 2816 2035 2605 2048 2246 
L 2477 2246 
C 2458 2822 2035 3181 1382 3181 
C 717 3181 262 2835 262 2291 
C 262 1869 525 1587 1062 1453 
L 1594 1318 
C 1958 1229 2086 1082 2086 826 
C 2086 493 1805 288 1325 288 
C 890 288 621 512 621 870 
L 198 870 
z
" transform="scale(0.015625)"/>
      </defs>
      <use xlink:href="#Satoshi-Regular-49"/>
      <use xlink:href="#Satoshi-Regular-72" x="24.599991"/>
      <use xlink:href="#Satoshi-Regular-69" x="59.099976"/>
      <use xlink:href="#Satoshi-Regular-73" x="80.399963"/>
      <use xlink:href="#Satoshi-Regular-68" x="123.799957"/>
     </g>
    </g>
    <g id="patch_68">
     <path d="M 64.10875 118.822187 
L 84.10875 118.822187 
L 84.10875 111.822187 
L 64.10875 111.822187 
z
" style="fill: #efa6a5; stroke: #ffffff; stroke-linejoin: miter"/>
    </g>
    <g id="text_23">
     <!-- Scandinavian -->
     <g style="fill: #262626" transform="translate(92.10875 118.822187) scale(0.1 -0.1)">
      <defs>
       <path id="Satoshi-Regular-64" d="M 1677 -77 
C 2195 -77 2630 154 2848 634 
L 2893 0 
L 3277 0 
L 3277 4666 
L 2835 4666 
L 2835 2509 
C 2618 2957 2208 3181 1696 3181 
C 774 3181 243 2477 243 1542 
C 243 614 774 -77 1677 -77 
z
M 1754 326 
C 1082 326 691 838 691 1555 
C 691 2266 1082 2784 1754 2784 
C 2432 2784 2829 2266 2829 1555 
C 2829 838 2432 326 1754 326 
z
" transform="scale(0.015625)"/>
      </defs>
      <use xlink:href="#Satoshi-Regular-53"/>
      <use xlink:href="#Satoshi-Regular-63" x="56.299988"/>
      <use xlink:href="#Satoshi-Regular-61" x="108.299973"/>
      <use xlink:href="#Satoshi-Regular-6e" x="160.499969"/>
      <use xlink:href="#Satoshi-Regular-64" x="216.699966"/>
      <use xlink:href="#Satoshi-Regular-69" x="275.09996"/>
      <use xlink:href="#Satoshi-Regular-6e" x="296.399948"/>
      <use xlink:href="#Satoshi-Regular-61" x="352.599945"/>
      <use xlink:href="#Satoshi-Regular-76" x="404.799942"/>
      <use xlink:href="#Satoshi-Regular-69" x="453.399933"/>
      <use xlink:href="#Satoshi-Regular-61" x="474.699921"/>
      <use xlink:href="#Satoshi-Regular-6e" x="526.899918"/>
     </g>
    </g>
    <g id="patch_69">
     <path d="M 64.10875 133.222187 
L 84.10875 133.222187 
L 84.10875 126.222187 
L 64.10875 126.222187 
z
" style="fill: #ca3335; stroke: #ffffff; stroke-linejoin: miter"/>
    </g>
    <g id="text_24">
     <!-- German -->
     <g style="fill: #262626" transform="translate(92.10875 133.222187) scale(0.1 -0.1)">
      <defs>
       <path id="Satoshi-Regular-47" d="M 2477 4224 
C 3149 4224 3686 3904 3878 3277 
L 4378 3277 
C 4198 4109 3450 4659 2483 4659 
C 1171 4659 275 3674 275 2272 
C 275 858 1171 -77 2470 -77 
C 3213 -77 3789 269 4032 723 
L 4077 -6 
L 4442 -6 
L 4442 2477 
L 2349 2477 
L 2349 2067 
L 4006 2067 
L 4006 1830 
C 4006 730 3258 358 2490 358 
C 1459 358 755 1082 755 2272 
C 755 3443 1421 4224 2477 4224 
z
" transform="scale(0.015625)"/>
      </defs>
      <use xlink:href="#Satoshi-Regular-47"/>
      <use xlink:href="#Satoshi-Regular-65" x="74.999985"/>
      <use xlink:href="#Satoshi-Regular-72" x="127.799973"/>
      <use xlink:href="#Satoshi-Regular-6d" x="162.299957"/>
      <use xlink:href="#Satoshi-Regular-61" x="246.499939"/>
      <use xlink:href="#Satoshi-Regular-6e" x="298.699936"/>
     </g>
    </g>
    <g id="patch_70">
     <path d="M 64.10875 147.622187 
L 84.10875 147.622187 
L 84.10875 140.622187 
L 64.10875 140.622187 
z
" style="fill: #ebbd81; stroke: #ffffff; stroke-linejoin: miter"/>
    </g>
    <g id="text_25">
     <!-- Italian -->
     <g style="fill: #262626" transform="translate(92.10875 147.622187) scale(0.1 -0.1)">
      <use xlink:href="#Satoshi-Regular-49"/>
      <use xlink:href="#Satoshi-Regular-74" x="24.599991"/>
      <use xlink:href="#Satoshi-Regular-61" x="54.399979"/>
      <use xlink:href="#Satoshi-Regular-6c" x="106.599976"/>
      <use xlink:href="#Satoshi-Regular-69" x="128.499969"/>
      <use xlink:href="#Satoshi-Regular-61" x="149.799957"/>
      <use xlink:href="#Satoshi-Regular-6e" x="201.999954"/>
     </g>
    </g>
    <g id="patch_71">
     <path d="M 64.10875 162.022187 
L 84.10875 162.022187 
L 84.10875 155.022187 
L 64.10875 155.022187 
z
" style="fill: #df7f20; stroke: #ffffff; stroke-linejoin: miter"/>
    </g>
    <g id="text_26">
     <!-- Black -->
     <g style="fill: #262626" transform="translate(92.10875 162.022187) scale(0.1 -0.1)">
      <defs>
       <path id="Satoshi-Regular-42" d="M 557 0 
L 2330 0 
C 3200 0 3750 467 3750 1203 
C 3750 1766 3482 2138 2950 2310 
C 3424 2496 3661 2861 3661 3398 
C 3661 4134 3117 4582 2234 4582 
L 557 4582 
L 557 0 
z
M 2227 4173 
C 2842 4173 3187 3872 3187 3360 
C 3187 2816 2861 2496 2285 2496 
L 1018 2496 
L 1018 4173 
L 2227 4173 
z
M 2330 2093 
C 2925 2093 3283 1779 3283 1261 
C 3283 730 2931 416 2330 416 
L 1018 416 
L 1018 2093 
L 2330 2093 
z
" transform="scale(0.015625)"/>
       <path id="Satoshi-Regular-6b" d="M 922 0 
L 922 928 
L 1523 1549 
L 2509 0 
L 3021 0 
L 1824 1862 
L 3014 3098 
L 2458 3098 
L 922 1498 
L 922 4666 
L 480 4666 
L 480 0 
L 922 0 
z
" transform="scale(0.015625)"/>
      </defs>
      <use xlink:href="#Satoshi-Regular-42"/>
      <use xlink:href="#Satoshi-Regular-6c" x="62.899994"/>
      <use xlink:href="#Satoshi-Regular-61" x="84.799988"/>
      <use xlink:href="#Satoshi-Regular-63" x="136.999985"/>
      <use xlink:href="#Satoshi-Regular-6b" x="188.999969"/>
     </g>
    </g>
    <g id="patch_72">
     <path d="M 64.10875 176.422187 
L 84.10875 176.422187 
L 84.10875 169.422187 
L 64.10875 169.422187 
z
" style="fill: #c8b6d2; stroke: #ffffff; stroke-linejoin: miter"/>
    </g>
    <g id="text_27">
     <!-- Puerto Rican -->
     <g style="fill: #262626" transform="translate(92.10875 176.422187) scale(0.1 -0.1)">
      <defs>
       <path id="Satoshi-Regular-50" d="M 2304 1683 
C 3181 1683 3744 2310 3744 3142 
C 3744 4006 3187 4582 2304 4582 
L 557 4582 
L 557 0 
L 1018 0 
L 1018 1683 
L 2304 1683 
z
M 2240 4166 
C 2874 4166 3264 3782 3264 3149 
C 3264 2522 2880 2099 2214 2099 
L 1018 2099 
L 1018 4166 
L 2240 4166 
z
" transform="scale(0.015625)"/>
       <path id="Satoshi-Regular-75" d="M 2637 3098 
L 2637 1453 
C 2637 717 2285 320 1690 320 
C 1197 320 870 582 870 1318 
L 870 3104 
L 422 3104 
L 422 1178 
C 422 422 819 -77 1549 -77 
C 2035 -77 2464 166 2637 525 
L 2694 0 
L 3078 0 
L 3078 3098 
L 2637 3098 
z
" transform="scale(0.015625)"/>
       <path id="Satoshi-Regular-6f" d="M 243 1549 
C 243 608 909 -77 1818 -77 
C 2726 -77 3392 608 3392 1549 
C 3392 2496 2726 3181 1818 3181 
C 909 3181 243 2496 243 1549 
z
M 691 1555 
C 691 2272 1152 2784 1818 2784 
C 2477 2784 2944 2272 2944 1555 
C 2944 826 2477 320 1818 320 
C 1152 320 691 826 691 1555 
z
" transform="scale(0.015625)"/>
       <path id="Satoshi-Regular-52" d="M 1018 0 
L 1018 1901 
L 2355 1901 
L 3290 0 
L 3802 0 
L 2822 1978 
C 3411 2138 3757 2598 3757 3258 
C 3757 4070 3194 4582 2266 4582 
L 557 4582 
L 557 0 
L 1018 0 
z
M 1018 4166 
L 2266 4166 
C 2893 4166 3283 3840 3283 3245 
C 3283 2662 2912 2317 2278 2317 
L 1018 2317 
L 1018 4166 
z
" transform="scale(0.015625)"/>
      </defs>
      <use xlink:href="#Satoshi-Regular-50"/>
      <use xlink:href="#Satoshi-Regular-75" x="61.399994"/>
      <use xlink:href="#Satoshi-Regular-65" x="116.699982"/>
      <use xlink:href="#Satoshi-Regular-72" x="169.499969"/>
      <use xlink:href="#Satoshi-Regular-74" x="203.999954"/>
      <use xlink:href="#Satoshi-Regular-6f" x="233.799942"/>
      <use xlink:href="#Satoshi-Regular-20" x="290.59993"/>
      <use xlink:href="#Satoshi-Regular-52" x="318.299927"/>
      <use xlink:href="#Satoshi-Regular-69" x="382.299911"/>
      <use xlink:href="#Satoshi-Regular-63" x="403.599899"/>
      <use xlink:href="#Satoshi-Regular-61" x="455.599884"/>
      <use xlink:href="#Satoshi-Regular-6e" x="507.799881"/>
     </g>
    </g>
    <g id="patch_73">
     <path d="M 64.10875 190.822187 
L 84.10875 190.822187 
L 84.10875 183.822187 
L 64.10875 183.822187 
z
" style="fill: #6a498e; stroke: #ffffff; stroke-linejoin: miter"/>
    </g>
    <g id="text_28">
     <!-- Syrian -->
     <g style="fill: #262626" transform="translate(92.10875 190.822187) scale(0.1 -0.1)">
      <defs>
       <path id="Satoshi-Regular-79" d="M 147 -1350 
C 288 -1382 429 -1395 614 -1395 
C 1056 -1395 1357 -1197 1536 -710 
L 2957 3098 
L 2502 3098 
L 1523 397 
L 525 3098 
L 58 3098 
L 1312 -186 
L 1178 -550 
C 1024 -966 755 -986 486 -986 
L 147 -986 
L 147 -1350 
z
" transform="scale(0.015625)"/>
      </defs>
      <use xlink:href="#Satoshi-Regular-53"/>
      <use xlink:href="#Satoshi-Regular-79" x="56.299988"/>
      <use xlink:href="#Satoshi-Regular-72" x="103.399979"/>
      <use xlink:href="#Satoshi-Regular-69" x="137.899963"/>
      <use xlink:href="#Satoshi-Regular-61" x="159.199951"/>
      <use xlink:href="#Satoshi-Regular-6e" x="211.399948"/>
     </g>
    </g>
   </g>
  </g>
 </g>
 <defs>
  <clipPath id="pa7ce3cd3fe">
   <rect x="55.10875" y="28.28125" width="781.2" height="332.64"/>
  </clipPath>
 </defs>
</svg>
