<?xml version="1.0" encoding="utf-8" standalone="no"?>
<!DOCTYPE svg PUBLIC "-//W3C//DTD SVG 1.1//EN"
  "http://www.w3.org/Graphics/SVG/1.1/DTD/svg11.dtd">
<svg xmlns:xlink="http://www.w3.org/1999/xlink" width="978.74875pt" height="676.288594pt" viewBox="0 0 978.74875 676.288594" xmlns="http://www.w3.org/2000/svg" version="1.1">
 <metadata>
  <rdf:RDF xmlns:dc="http://purl.org/dc/elements/1.1/" xmlns:cc="http://creativecommons.org/ns#" xmlns:rdf="http://www.w3.org/1999/02/22-rdf-syntax-ns#">
   <cc:Work>
    <dc:type rdf:resource="http://purl.org/dc/dcmitype/StillImage"/>
    <dc:date>2025-03-31T15:24:39.220785</dc:date>
    <dc:format>image/svg+xml</dc:format>
    <dc:creator>
     <cc:Agent>
      <dc:title>Matplotlib v3.9.2, https://matplotlib.org/</dc:title>
     </cc:Agent>
    </dc:creator>
   </cc:Work>
  </rdf:RDF>
 </metadata>
 <defs>
  <style type="text/css">*{stroke-linejoin: round; stroke-linecap: butt}</style>
 </defs>
 <g id="figure_1">
  <g id="patch_1">
   <path d="M 0 676.288594 
L 978.74875 676.288594 
L 978.74875 0 
L 0 0 
z
" style="fill: #ffffff"/>
  </g>
  <g id="axes_1">
   <g id="patch_2">
    <path d="M 56.448125 320.243478 
L 837.648125 320.243478 
L 837.648125 79.2 
L 56.448125 79.2 
z
" style="fill: #ffffff"/>
   </g>
   <g id="matplotlib.axis_1">
    <g id="xtick_1"/>
    <g id="xtick_2"/>
    <g id="xtick_3"/>
    <g id="xtick_4"/>
    <g id="xtick_5"/>
   </g>
   <g id="matplotlib.axis_2">
    <g id="ytick_1">
     <g id="line2d_1">
      <path d="M 56.448125 320.243478 
L 837.648125 320.243478 
" clip-path="url(#p8a58ca4136)" style="fill: none; stroke: #cccccc; stroke-opacity: 0.5; stroke-linecap: round"/>
     </g>
     <g id="text_1">
      <!-- 0 -->
      <g style="fill: #262626" transform="translate(40.831094 324.180275) scale(0.11 -0.11)">
       <defs>
        <path id="ArialMT-30" d="M 266 2259 
Q 266 3072 433 3567 
Q 600 4063 929 4331 
Q 1259 4600 1759 4600 
Q 2128 4600 2406 4451 
Q 2684 4303 2865 4023 
Q 3047 3744 3150 3342 
Q 3253 2941 3253 2259 
Q 3253 1453 3087 958 
Q 2922 463 2592 192 
Q 2263 -78 1759 -78 
Q 1097 -78 719 397 
Q 266 969 266 2259 
z
M 844 2259 
Q 844 1131 1108 757 
Q 1372 384 1759 384 
Q 2147 384 2411 759 
Q 2675 1134 2675 2259 
Q 2675 3391 2411 3762 
Q 2147 4134 1753 4134 
Q 1366 4134 1134 3806 
Q 844 3388 844 2259 
z
" transform="scale(0.015625)"/>
       </defs>
       <use xlink:href="#ArialMT-30"/>
      </g>
     </g>
    </g>
    <g id="ytick_2">
     <g id="line2d_2">
      <path d="M 56.448125 285.877428 
L 837.648125 285.877428 
" clip-path="url(#p8a58ca4136)" style="fill: none; stroke: #cccccc; stroke-opacity: 0.5; stroke-linecap: round"/>
     </g>
     <g id="text_2">
      <!-- 100 -->
      <g style="fill: #262626" transform="translate(28.597031 289.814225) scale(0.11 -0.11)">
       <defs>
        <path id="ArialMT-31" d="M 2384 0 
L 1822 0 
L 1822 3584 
Q 1619 3391 1289 3197 
Q 959 3003 697 2906 
L 697 3450 
Q 1169 3672 1522 3987 
Q 1875 4303 2022 4600 
L 2384 4600 
L 2384 0 
z
" transform="scale(0.015625)"/>
       </defs>
       <use xlink:href="#ArialMT-31"/>
       <use xlink:href="#ArialMT-30" x="55.615234"/>
       <use xlink:href="#ArialMT-30" x="111.230469"/>
      </g>
     </g>
    </g>
    <g id="ytick_3">
     <g id="line2d_3">
      <path d="M 56.448125 251.511377 
L 837.648125 251.511377 
" clip-path="url(#p8a58ca4136)" style="fill: none; stroke: #cccccc; stroke-opacity: 0.5; stroke-linecap: round"/>
     </g>
     <g id="text_3">
      <!-- 200 -->
      <g style="fill: #262626" transform="translate(28.597031 255.448174) scale(0.11 -0.11)">
       <defs>
        <path id="ArialMT-32" d="M 3222 541 
L 3222 0 
L 194 0 
Q 188 203 259 391 
Q 375 700 629 1000 
Q 884 1300 1366 1694 
Q 2113 2306 2375 2664 
Q 2638 3022 2638 3341 
Q 2638 3675 2398 3904 
Q 2159 4134 1775 4134 
Q 1369 4134 1125 3890 
Q 881 3647 878 3216 
L 300 3275 
Q 359 3922 746 4261 
Q 1134 4600 1788 4600 
Q 2447 4600 2831 4234 
Q 3216 3869 3216 3328 
Q 3216 3053 3103 2787 
Q 2991 2522 2730 2228 
Q 2469 1934 1863 1422 
Q 1356 997 1212 845 
Q 1069 694 975 541 
L 3222 541 
z
" transform="scale(0.015625)"/>
       </defs>
       <use xlink:href="#ArialMT-32"/>
       <use xlink:href="#ArialMT-30" x="55.615234"/>
       <use xlink:href="#ArialMT-30" x="111.230469"/>
      </g>
     </g>
    </g>
    <g id="ytick_4">
     <g id="line2d_4">
      <path d="M 56.448125 217.145327 
L 837.648125 217.145327 
" clip-path="url(#p8a58ca4136)" style="fill: none; stroke: #cccccc; stroke-opacity: 0.5; stroke-linecap: round"/>
     </g>
     <g id="text_4">
      <!-- 300 -->
      <g style="fill: #262626" transform="translate(28.597031 221.082124) scale(0.11 -0.11)">
       <defs>
        <path id="ArialMT-33" d="M 269 1209 
L 831 1284 
Q 928 806 1161 595 
Q 1394 384 1728 384 
Q 2125 384 2398 659 
Q 2672 934 2672 1341 
Q 2672 1728 2419 1979 
Q 2166 2231 1775 2231 
Q 1616 2231 1378 2169 
L 1441 2663 
Q 1497 2656 1531 2656 
Q 1891 2656 2178 2843 
Q 2466 3031 2466 3422 
Q 2466 3731 2256 3934 
Q 2047 4138 1716 4138 
Q 1388 4138 1169 3931 
Q 950 3725 888 3313 
L 325 3413 
Q 428 3978 793 4289 
Q 1159 4600 1703 4600 
Q 2078 4600 2393 4439 
Q 2709 4278 2876 4000 
Q 3044 3722 3044 3409 
Q 3044 3113 2884 2869 
Q 2725 2625 2413 2481 
Q 2819 2388 3044 2092 
Q 3269 1797 3269 1353 
Q 3269 753 2831 336 
Q 2394 -81 1725 -81 
Q 1122 -81 723 278 
Q 325 638 269 1209 
z
" transform="scale(0.015625)"/>
       </defs>
       <use xlink:href="#ArialMT-33"/>
       <use xlink:href="#ArialMT-30" x="55.615234"/>
       <use xlink:href="#ArialMT-30" x="111.230469"/>
      </g>
     </g>
    </g>
    <g id="ytick_5">
     <g id="line2d_5">
      <path d="M 56.448125 182.779276 
L 837.648125 182.779276 
" clip-path="url(#p8a58ca4136)" style="fill: none; stroke: #cccccc; stroke-opacity: 0.5; stroke-linecap: round"/>
     </g>
     <g id="text_5">
      <!-- 400 -->
      <g style="fill: #262626" transform="translate(28.597031 186.716073) scale(0.11 -0.11)">
       <defs>
        <path id="ArialMT-34" d="M 2069 0 
L 2069 1097 
L 81 1097 
L 81 1613 
L 2172 4581 
L 2631 4581 
L 2631 1613 
L 3250 1613 
L 3250 1097 
L 2631 1097 
L 2631 0 
L 2069 0 
z
M 2069 1613 
L 2069 3678 
L 634 1613 
L 2069 1613 
z
" transform="scale(0.015625)"/>
       </defs>
       <use xlink:href="#ArialMT-34"/>
       <use xlink:href="#ArialMT-30" x="55.615234"/>
       <use xlink:href="#ArialMT-30" x="111.230469"/>
      </g>
     </g>
    </g>
    <g id="ytick_6">
     <g id="line2d_6">
      <path d="M 56.448125 148.413226 
L 837.648125 148.413226 
" clip-path="url(#p8a58ca4136)" style="fill: none; stroke: #cccccc; stroke-opacity: 0.5; stroke-linecap: round"/>
     </g>
     <g id="text_6">
      <!-- 500 -->
      <g style="fill: #262626" transform="translate(28.597031 152.350023) scale(0.11 -0.11)">
       <defs>
        <path id="ArialMT-35" d="M 266 1200 
L 856 1250 
Q 922 819 1161 601 
Q 1400 384 1738 384 
Q 2144 384 2425 690 
Q 2706 997 2706 1503 
Q 2706 1984 2436 2262 
Q 2166 2541 1728 2541 
Q 1456 2541 1237 2417 
Q 1019 2294 894 2097 
L 366 2166 
L 809 4519 
L 3088 4519 
L 3088 3981 
L 1259 3981 
L 1013 2750 
Q 1425 3038 1878 3038 
Q 2478 3038 2890 2622 
Q 3303 2206 3303 1553 
Q 3303 931 2941 478 
Q 2500 -78 1738 -78 
Q 1113 -78 717 272 
Q 322 622 266 1200 
z
" transform="scale(0.015625)"/>
       </defs>
       <use xlink:href="#ArialMT-35"/>
       <use xlink:href="#ArialMT-30" x="55.615234"/>
       <use xlink:href="#ArialMT-30" x="111.230469"/>
      </g>
     </g>
    </g>
    <g id="ytick_7">
     <g id="line2d_7">
      <path d="M 56.448125 114.047175 
L 837.648125 114.047175 
" clip-path="url(#p8a58ca4136)" style="fill: none; stroke: #cccccc; stroke-opacity: 0.5; stroke-linecap: round"/>
     </g>
     <g id="text_7">
      <!-- 600 -->
      <g style="fill: #262626" transform="translate(28.597031 117.983972) scale(0.11 -0.11)">
       <defs>
        <path id="ArialMT-36" d="M 3184 3459 
L 2625 3416 
Q 2550 3747 2413 3897 
Q 2184 4138 1850 4138 
Q 1581 4138 1378 3988 
Q 1113 3794 959 3422 
Q 806 3050 800 2363 
Q 1003 2672 1297 2822 
Q 1591 2972 1913 2972 
Q 2475 2972 2870 2558 
Q 3266 2144 3266 1488 
Q 3266 1056 3080 686 
Q 2894 316 2569 119 
Q 2244 -78 1831 -78 
Q 1128 -78 684 439 
Q 241 956 241 2144 
Q 241 3472 731 4075 
Q 1159 4600 1884 4600 
Q 2425 4600 2770 4297 
Q 3116 3994 3184 3459 
z
M 888 1484 
Q 888 1194 1011 928 
Q 1134 663 1356 523 
Q 1578 384 1822 384 
Q 2178 384 2434 671 
Q 2691 959 2691 1453 
Q 2691 1928 2437 2201 
Q 2184 2475 1800 2475 
Q 1419 2475 1153 2201 
Q 888 1928 888 1484 
z
" transform="scale(0.015625)"/>
       </defs>
       <use xlink:href="#ArialMT-36"/>
       <use xlink:href="#ArialMT-30" x="55.615234"/>
       <use xlink:href="#ArialMT-30" x="111.230469"/>
      </g>
     </g>
    </g>
    <g id="ytick_8">
     <g id="line2d_8">
      <path d="M 56.448125 79.681125 
L 837.648125 79.681125 
" clip-path="url(#p8a58ca4136)" style="fill: none; stroke: #cccccc; stroke-opacity: 0.5; stroke-linecap: round"/>
     </g>
     <g id="text_8">
      <!-- 700 -->
      <g style="fill: #262626" transform="translate(28.597031 83.617922) scale(0.11 -0.11)">
       <defs>
        <path id="ArialMT-37" d="M 303 3981 
L 303 4522 
L 3269 4522 
L 3269 4084 
Q 2831 3619 2401 2847 
Q 1972 2075 1738 1259 
Q 1569 684 1522 0 
L 944 0 
Q 953 541 1156 1306 
Q 1359 2072 1739 2783 
Q 2119 3494 2547 3981 
L 303 3981 
z
" transform="scale(0.015625)"/>
       </defs>
       <use xlink:href="#ArialMT-37"/>
       <use xlink:href="#ArialMT-30" x="55.615234"/>
       <use xlink:href="#ArialMT-30" x="111.230469"/>
      </g>
     </g>
    </g>
    <g id="text_9">
     <!-- Count of Puerto Rican Workers -->
     <g style="fill: #262626" transform="translate(22.065781 282.084864) rotate(-90) scale(0.12 -0.12)">
      <defs>
       <path id="Satoshi-Regular-43" d="M 2426 -70 
C 3411 -70 4211 512 4422 1376 
L 3930 1376 
C 3731 762 3155 371 2432 371 
C 1427 371 755 1139 755 2291 
C 755 3450 1427 4218 2432 4218 
C 3149 4218 3712 3814 3904 3155 
L 4397 3155 
C 4211 4064 3437 4659 2451 4659 
C 1158 4659 275 3699 275 2291 
C 275 883 1146 -70 2426 -70 
z
" transform="scale(0.015625)"/>
       <path id="Satoshi-Regular-6f" d="M 243 1549 
C 243 608 909 -77 1818 -77 
C 2726 -77 3392 608 3392 1549 
C 3392 2496 2726 3181 1818 3181 
C 909 3181 243 2496 243 1549 
z
M 691 1555 
C 691 2272 1152 2784 1818 2784 
C 2477 2784 2944 2272 2944 1555 
C 2944 826 2477 320 1818 320 
C 1152 320 691 826 691 1555 
z
" transform="scale(0.015625)"/>
       <path id="Satoshi-Regular-75" d="M 2637 3098 
L 2637 1453 
C 2637 717 2285 320 1690 320 
C 1197 320 870 582 870 1318 
L 870 3104 
L 422 3104 
L 422 1178 
C 422 422 819 -77 1549 -77 
C 2035 -77 2464 166 2637 525 
L 2694 0 
L 3078 0 
L 3078 3098 
L 2637 3098 
z
" transform="scale(0.015625)"/>
       <path id="Satoshi-Regular-6e" d="M 902 0 
L 902 1619 
C 902 2317 1261 2778 1894 2778 
C 2406 2778 2733 2522 2733 1798 
L 2733 0 
L 3174 0 
L 3174 1894 
C 3174 2675 2822 3181 1971 3181 
C 1523 3181 1114 2957 909 2560 
L 845 3098 
L 461 3098 
L 461 0 
L 902 0 
z
" transform="scale(0.015625)"/>
       <path id="Satoshi-Regular-74" d="M 1171 0 
L 1171 2726 
L 1792 2726 
L 1792 3098 
L 1171 3098 
L 1171 4077 
L 736 4077 
L 736 3098 
L 115 3098 
L 115 2726 
L 736 2726 
L 736 0 
L 1171 0 
z
" transform="scale(0.015625)"/>
       <path id="Satoshi-Regular-20" transform="scale(0.015625)"/>
       <path id="Satoshi-Regular-66" d="M 115 3098 
L 115 2726 
L 589 2726 
L 589 0 
L 1030 0 
L 1030 2726 
L 1760 2726 
L 1760 3098 
L 1030 3098 
L 1030 3699 
C 1030 4064 1133 4262 1523 4262 
L 1786 4262 
L 1786 4640 
C 1683 4659 1555 4666 1446 4666 
C 973 4666 589 4397 589 3699 
L 589 3098 
L 115 3098 
z
" transform="scale(0.015625)"/>
       <path id="Satoshi-Regular-50" d="M 2304 1683 
C 3181 1683 3744 2310 3744 3142 
C 3744 4006 3187 4582 2304 4582 
L 557 4582 
L 557 0 
L 1018 0 
L 1018 1683 
L 2304 1683 
z
M 2240 4166 
C 2874 4166 3264 3782 3264 3149 
C 3264 2522 2880 2099 2214 2099 
L 1018 2099 
L 1018 4166 
L 2240 4166 
z
" transform="scale(0.015625)"/>
       <path id="Satoshi-Regular-65" d="M 1760 -77 
C 2490 -77 2970 275 3136 928 
L 2714 928 
C 2598 518 2272 301 1766 301 
C 1101 301 704 736 672 1491 
L 3136 1491 
L 3136 1709 
C 3136 2586 2566 3181 1728 3181 
C 845 3181 243 2515 243 1549 
C 243 576 851 -77 1760 -77 
z
M 1728 2803 
C 2310 2803 2694 2406 2694 1811 
L 685 1811 
C 762 2419 1146 2803 1728 2803 
z
" transform="scale(0.015625)"/>
       <path id="Satoshi-Regular-72" d="M 2080 3136 
C 1971 3162 1888 3168 1792 3168 
C 1357 3168 1030 2950 909 2618 
L 877 3098 
L 461 3098 
L 461 0 
L 902 0 
L 902 1766 
C 902 2355 1267 2739 1837 2739 
L 2080 2739 
L 2080 3136 
z
" transform="scale(0.015625)"/>
       <path id="Satoshi-Regular-52" d="M 1018 0 
L 1018 1901 
L 2355 1901 
L 3290 0 
L 3802 0 
L 2822 1978 
C 3411 2138 3757 2598 3757 3258 
C 3757 4070 3194 4582 2266 4582 
L 557 4582 
L 557 0 
L 1018 0 
z
M 1018 4166 
L 2266 4166 
C 2893 4166 3283 3840 3283 3245 
C 3283 2662 2912 2317 2278 2317 
L 1018 2317 
L 1018 4166 
z
" transform="scale(0.015625)"/>
       <path id="Satoshi-Regular-69" d="M 678 3949 
C 858 3949 1011 4096 1011 4275 
C 1011 4454 858 4608 678 4608 
C 499 4608 352 4454 352 4275 
C 352 4096 499 3949 678 3949 
z
M 461 0 
L 902 0 
L 902 3098 
L 461 3098 
L 461 0 
z
" transform="scale(0.015625)"/>
       <path id="Satoshi-Regular-63" d="M 243 1542 
C 243 570 838 -77 1715 -77 
C 2419 -77 2970 339 3117 973 
L 2669 973 
C 2547 576 2176 320 1715 320 
C 1088 320 678 813 678 1549 
C 678 2310 1120 2790 1747 2790 
C 2176 2790 2547 2554 2662 2125 
L 3104 2125 
C 2982 2765 2458 3181 1741 3181 
C 838 3181 243 2515 243 1542 
z
" transform="scale(0.015625)"/>
       <path id="Satoshi-Regular-61" d="M 1350 -77 
C 1875 -77 2298 154 2490 544 
L 2547 0 
L 2918 0 
L 2918 2003 
C 2918 2822 2394 3181 1677 3181 
C 915 3181 403 2778 403 2150 
L 806 2150 
C 806 2566 1126 2810 1664 2810 
C 2118 2810 2483 2618 2483 2010 
L 2483 1907 
L 1459 1824 
C 736 1766 301 1408 301 838 
C 301 294 691 -77 1350 -77 
z
M 1453 282 
C 1030 282 749 474 749 851 
C 749 1197 986 1453 1568 1504 
L 2483 1574 
L 2483 1408 
C 2483 736 2106 282 1453 282 
z
" transform="scale(0.015625)"/>
       <path id="Satoshi-Regular-57" d="M 1459 0 
L 1901 0 
L 3130 3891 
L 4358 0 
L 4794 0 
L 6170 4582 
L 5702 4582 
L 4755 1427 
C 4704 1254 4646 1030 4576 678 
C 4506 973 4442 1203 4371 1434 
L 3373 4582 
L 2893 4582 
L 1894 1434 
C 1824 1210 1760 1011 1683 678 
C 1626 979 1568 1210 1504 1434 
L 576 4582 
L 96 4582 
L 1459 0 
z
" transform="scale(0.015625)"/>
       <path id="Satoshi-Regular-6b" d="M 922 0 
L 922 928 
L 1523 1549 
L 2509 0 
L 3021 0 
L 1824 1862 
L 3014 3098 
L 2458 3098 
L 922 1498 
L 922 4666 
L 480 4666 
L 480 0 
L 922 0 
z
" transform="scale(0.015625)"/>
       <path id="Satoshi-Regular-73" d="M 198 870 
C 198 294 634 -77 1331 -77 
C 2035 -77 2509 288 2509 845 
C 2509 1293 2266 1542 1728 1677 
L 1197 1811 
C 858 1894 691 2061 691 2298 
C 691 2630 934 2816 1370 2816 
C 1786 2816 2035 2605 2048 2246 
L 2477 2246 
C 2458 2822 2035 3181 1382 3181 
C 717 3181 262 2835 262 2291 
C 262 1869 525 1587 1062 1453 
L 1594 1318 
C 1958 1229 2086 1082 2086 826 
C 2086 493 1805 288 1325 288 
C 890 288 621 512 621 870 
L 198 870 
z
" transform="scale(0.015625)"/>
      </defs>
      <use xlink:href="#Satoshi-Regular-43"/>
      <use xlink:href="#Satoshi-Regular-6f" x="72.899994"/>
      <use xlink:href="#Satoshi-Regular-75" x="129.699982"/>
      <use xlink:href="#Satoshi-Regular-6e" x="184.999969"/>
      <use xlink:href="#Satoshi-Regular-74" x="241.199966"/>
      <use xlink:href="#Satoshi-Regular-20" x="270.999954"/>
      <use xlink:href="#Satoshi-Regular-6f" x="298.699951"/>
      <use xlink:href="#Satoshi-Regular-66" x="355.499939"/>
      <use xlink:href="#Satoshi-Regular-20" x="385.199936"/>
      <use xlink:href="#Satoshi-Regular-50" x="412.899933"/>
      <use xlink:href="#Satoshi-Regular-75" x="474.299927"/>
      <use xlink:href="#Satoshi-Regular-65" x="529.599915"/>
      <use xlink:href="#Satoshi-Regular-72" x="582.399902"/>
      <use xlink:href="#Satoshi-Regular-74" x="616.899887"/>
      <use xlink:href="#Satoshi-Regular-6f" x="646.699875"/>
      <use xlink:href="#Satoshi-Regular-20" x="703.499863"/>
      <use xlink:href="#Satoshi-Regular-52" x="731.19986"/>
      <use xlink:href="#Satoshi-Regular-69" x="795.199844"/>
      <use xlink:href="#Satoshi-Regular-63" x="816.499832"/>
      <use xlink:href="#Satoshi-Regular-61" x="868.499817"/>
      <use xlink:href="#Satoshi-Regular-6e" x="920.699814"/>
      <use xlink:href="#Satoshi-Regular-20" x="976.899811"/>
      <use xlink:href="#Satoshi-Regular-57" x="1004.599808"/>
      <use xlink:href="#Satoshi-Regular-6f" x="1102.499802"/>
      <use xlink:href="#Satoshi-Regular-72" x="1159.299789"/>
      <use xlink:href="#Satoshi-Regular-6b" x="1193.799774"/>
      <use xlink:href="#Satoshi-Regular-65" x="1241.999771"/>
      <use xlink:href="#Satoshi-Regular-72" x="1294.799759"/>
      <use xlink:href="#Satoshi-Regular-73" x="1329.299744"/>
     </g>
    </g>
   </g>
   <g id="patch_3">
    <path d="M 72.072125 320.243478 
L 97.070525 320.243478 
L 97.070525 319.899818 
L 72.072125 319.899818 
z
" clip-path="url(#p8a58ca4136)" style="fill: #3f69a2; stroke: #ffffff; stroke-linejoin: miter"/>
   </g>
   <g id="patch_4">
    <path d="M 384.552125 320.243478 
L 409.550525 320.243478 
L 409.550525 319.212497 
L 384.552125 319.212497 
z
" clip-path="url(#p8a58ca4136)" style="fill: #3f69a2; stroke: #ffffff; stroke-linejoin: miter"/>
   </g>
   <g id="patch_5">
    <path d="M 540.792125 320.243478 
L 565.790525 320.243478 
L 565.790525 317.494194 
L 540.792125 317.494194 
z
" clip-path="url(#p8a58ca4136)" style="fill: #3f69a2; stroke: #ffffff; stroke-linejoin: miter"/>
   </g>
   <g id="patch_6">
    <path d="M 697.032125 320.243478 
L 722.030525 320.243478 
L 722.030525 272.131008 
L 697.032125 272.131008 
z
" clip-path="url(#p8a58ca4136)" style="fill: #3f69a2; stroke: #ffffff; stroke-linejoin: miter"/>
   </g>
   <g id="patch_7">
    <path d="M 97.070525 320.243478 
L 122.068925 320.243478 
L 122.068925 319.899818 
L 97.070525 319.899818 
z
" clip-path="url(#p8a58ca4136)" style="fill: #d2b642; stroke: #ffffff; stroke-linejoin: miter"/>
   </g>
   <g id="patch_8">
    <path d="M 253.310525 320.243478 
L 278.308925 320.243478 
L 278.308925 313.713929 
L 253.310525 313.713929 
z
" clip-path="url(#p8a58ca4136)" style="fill: #d2b642; stroke: #ffffff; stroke-linejoin: miter"/>
   </g>
   <g id="patch_9">
    <path d="M 409.550525 320.243478 
L 434.548925 320.243478 
L 434.548925 310.964645 
L 409.550525 310.964645 
z
" clip-path="url(#p8a58ca4136)" style="fill: #d2b642; stroke: #ffffff; stroke-linejoin: miter"/>
   </g>
   <g id="patch_10">
    <path d="M 565.790525 320.243478 
L 590.788925 320.243478 
L 590.788925 252.542359 
L 565.790525 252.542359 
z
" clip-path="url(#p8a58ca4136)" style="fill: #d2b642; stroke: #ffffff; stroke-linejoin: miter"/>
   </g>
   <g id="patch_11">
    <path d="M 722.030525 320.243478 
L 747.028925 320.243478 
L 747.028925 235.359334 
L 722.030525 235.359334 
z
" clip-path="url(#p8a58ca4136)" style="fill: #d2b642; stroke: #ffffff; stroke-linejoin: miter"/>
   </g>
   <g id="patch_12">
    <path d="M 122.068925 320.243478 
L 147.067325 320.243478 
L 147.067325 319.899818 
L 122.068925 319.899818 
z
" clip-path="url(#p8a58ca4136)" style="fill: #8c4040; stroke: #ffffff; stroke-linejoin: miter"/>
   </g>
   <g id="patch_13">
    <path d="M 278.308925 320.243478 
L 303.307325 320.243478 
L 303.307325 318.868836 
L 278.308925 318.868836 
z
" clip-path="url(#p8a58ca4136)" style="fill: #8c4040; stroke: #ffffff; stroke-linejoin: miter"/>
   </g>
   <g id="patch_14">
    <path d="M 434.548925 320.243478 
L 459.547325 320.243478 
L 459.547325 305.809737 
L 434.548925 305.809737 
z
" clip-path="url(#p8a58ca4136)" style="fill: #8c4040; stroke: #ffffff; stroke-linejoin: miter"/>
   </g>
   <g id="patch_15">
    <path d="M 590.788925 320.243478 
L 615.787325 320.243478 
L 615.787325 90.678261 
L 590.788925 90.678261 
z
" clip-path="url(#p8a58ca4136)" style="fill: #8c4040; stroke: #ffffff; stroke-linejoin: miter"/>
   </g>
   <g id="patch_16">
    <path d="M 747.028925 320.243478 
L 772.027325 320.243478 
L 772.027325 130.199219 
L 747.028925 130.199219 
z
" clip-path="url(#p8a58ca4136)" style="fill: #8c4040; stroke: #ffffff; stroke-linejoin: miter"/>
   </g>
   <g id="patch_17">
    <path d="M 303.307325 320.243478 
L 328.305725 320.243478 
L 328.305725 319.556157 
L 303.307325 319.556157 
z
" clip-path="url(#p8a58ca4136)" style="fill: #ce9245; stroke: #ffffff; stroke-linejoin: miter"/>
   </g>
   <g id="patch_18">
    <path d="M 459.547325 320.243478 
L 484.545725 320.243478 
L 484.545725 294.812601 
L 459.547325 294.812601 
z
" clip-path="url(#p8a58ca4136)" style="fill: #ce9245; stroke: #ffffff; stroke-linejoin: miter"/>
   </g>
   <g id="patch_19">
    <path d="M 615.787325 320.243478 
L 640.785725 320.243478 
L 640.785725 255.978964 
L 615.787325 255.978964 
z
" clip-path="url(#p8a58ca4136)" style="fill: #ce9245; stroke: #ffffff; stroke-linejoin: miter"/>
   </g>
   <g id="patch_20">
    <path d="M 772.027325 320.243478 
L 797.025725 320.243478 
L 797.025725 271.443687 
L 772.027325 271.443687 
z
" clip-path="url(#p8a58ca4136)" style="fill: #ce9245; stroke: #ffffff; stroke-linejoin: miter"/>
   </g>
   <g id="patch_21">
    <path d="M 484.545725 320.243478 
L 509.544125 320.243478 
L 509.544125 314.74491 
L 484.545725 314.74491 
z
" clip-path="url(#p8a58ca4136)" style="fill: #467475; stroke: #ffffff; stroke-linejoin: miter"/>
   </g>
   <g id="patch_22">
    <path d="M 640.785725 320.243478 
L 665.784125 320.243478 
L 665.784125 281.409841 
L 640.785725 281.409841 
z
" clip-path="url(#p8a58ca4136)" style="fill: #467475; stroke: #ffffff; stroke-linejoin: miter"/>
   </g>
   <g id="patch_23">
    <path d="M 797.025725 320.243478 
L 822.024125 320.243478 
L 822.024125 302.029471 
L 797.025725 302.029471 
z
" clip-path="url(#p8a58ca4136)" style="fill: #467475; stroke: #ffffff; stroke-linejoin: miter"/>
   </g>
   <g id="patch_24">
    <path d="M 134.568125 320.243478 
L 134.568125 320.243478 
L 134.568125 320.243478 
L 134.568125 320.243478 
z
" clip-path="url(#p8a58ca4136)" style="fill: #3f69a2; stroke: #ffffff; stroke-linejoin: miter"/>
   </g>
   <g id="patch_25">
    <path d="M 134.568125 320.243478 
L 134.568125 320.243478 
L 134.568125 320.243478 
L 134.568125 320.243478 
z
" clip-path="url(#p8a58ca4136)" style="fill: #d2b642; stroke: #ffffff; stroke-linejoin: miter"/>
   </g>
   <g id="patch_26">
    <path d="M 134.568125 320.243478 
L 134.568125 320.243478 
L 134.568125 320.243478 
L 134.568125 320.243478 
z
" clip-path="url(#p8a58ca4136)" style="fill: #8c4040; stroke: #ffffff; stroke-linejoin: miter"/>
   </g>
   <g id="patch_27">
    <path d="M 134.568125 320.243478 
L 134.568125 320.243478 
L 134.568125 320.243478 
L 134.568125 320.243478 
z
" clip-path="url(#p8a58ca4136)" style="fill: #ce9245; stroke: #ffffff; stroke-linejoin: miter"/>
   </g>
   <g id="patch_28">
    <path d="M 134.568125 320.243478 
L 134.568125 320.243478 
L 134.568125 320.243478 
L 134.568125 320.243478 
z
" clip-path="url(#p8a58ca4136)" style="fill: #467475; stroke: #ffffff; stroke-linejoin: miter"/>
   </g>
   <g id="patch_29">
    <path d="M 56.448125 320.243478 
L 56.448125 79.2 
" style="fill: none; stroke: #cccccc; stroke-width: 1.25; stroke-linejoin: miter; stroke-linecap: square"/>
   </g>
   <g id="patch_30">
    <path d="M 837.648125 320.243478 
L 837.648125 79.2 
" style="fill: none; stroke: #cccccc; stroke-width: 1.25; stroke-linejoin: miter; stroke-linecap: square"/>
   </g>
   <g id="patch_31">
    <path d="M 56.448125 320.243478 
L 837.648125 320.243478 
" style="fill: none; stroke: #cccccc; stroke-width: 1.25; stroke-linejoin: miter; stroke-linecap: square"/>
   </g>
   <g id="patch_32">
    <path d="M 56.448125 79.2 
L 837.648125 79.2 
" style="fill: none; stroke: #cccccc; stroke-width: 1.25; stroke-linejoin: miter; stroke-linecap: square"/>
   </g>
   <g id="text_10">
    <!-- Puerto Rican Workforce -->
    <g style="fill: #262626" transform="translate(353.614375 73.2) scale(0.16 -0.16)">
     <defs>
      <path id="Satoshi-Black-50" d="M 2413 1574 
C 3379 1574 4026 2208 4026 3155 
C 4026 4102 3379 4736 2413 4736 
L 493 4736 
L 493 0 
L 1530 0 
L 1530 1574 
L 2413 1574 
z
M 2182 3814 
C 2682 3814 2931 3597 2931 3155 
C 2931 2714 2682 2496 2182 2496 
L 1530 2496 
L 1530 3814 
L 2182 3814 
z
" transform="scale(0.015625)"/>
      <path id="Satoshi-Black-75" d="M 2496 3200 
L 2496 1536 
C 2496 1011 2323 794 1901 794 
C 1498 794 1318 1024 1318 1549 
L 1318 3200 
L 333 3200 
L 333 1190 
C 333 403 781 -83 1510 -83 
C 1894 -83 2291 96 2490 358 
L 2554 0 
L 3482 0 
L 3482 3200 
L 2496 3200 
z
" transform="scale(0.015625)"/>
      <path id="Satoshi-Black-65" d="M 1856 -83 
C 2733 -83 3366 371 3482 1082 
L 2579 1082 
C 2509 851 2246 717 1875 717 
C 1440 717 1203 915 1146 1338 
L 3469 1350 
L 3469 1600 
C 3469 2643 2842 3302 1837 3302 
C 870 3302 198 2605 198 1606 
C 198 621 890 -83 1856 -83 
z
M 1843 2502 
C 2240 2502 2490 2285 2490 1946 
L 1158 1946 
C 1235 2330 1453 2502 1843 2502 
z
" transform="scale(0.015625)"/>
      <path id="Satoshi-Black-72" d="M 2573 3200 
C 2438 3232 2310 3245 2195 3245 
C 1766 3245 1485 3034 1350 2720 
L 1299 3194 
L 371 3194 
L 371 0 
L 1357 0 
L 1357 1389 
C 1357 2022 1696 2272 2259 2272 
L 2573 2272 
L 2573 3200 
z
" transform="scale(0.015625)"/>
      <path id="Satoshi-Black-74" d="M 1664 0 
L 1664 2381 
L 2272 2381 
L 2272 3200 
L 1664 3200 
L 1664 4192 
L 678 4192 
L 678 3200 
L 70 3200 
L 70 2381 
L 678 2381 
L 678 0 
L 1664 0 
z
" transform="scale(0.015625)"/>
      <path id="Satoshi-Black-6f" d="M 198 1606 
C 198 595 941 -77 1965 -77 
C 2982 -77 3725 595 3725 1606 
C 3725 2618 2982 3296 1965 3296 
C 941 3296 198 2618 198 1606 
z
M 1190 1613 
C 1190 2093 1504 2413 1965 2413 
C 2419 2413 2733 2093 2733 1613 
C 2733 1126 2419 806 1965 806 
C 1504 806 1190 1126 1190 1613 
z
" transform="scale(0.015625)"/>
      <path id="Satoshi-Black-20" transform="scale(0.015625)"/>
      <path id="Satoshi-Black-52" d="M 1530 0 
L 1530 1658 
L 2330 1658 
L 3040 0 
L 4173 0 
L 3341 1882 
C 3866 2150 4128 2586 4128 3200 
C 4128 4179 3475 4736 2323 4736 
L 493 4736 
L 493 0 
L 1530 0 
z
M 1530 3814 
L 2323 3814 
C 2784 3814 3034 3597 3034 3200 
C 3034 2797 2771 2566 2317 2566 
L 1530 2566 
L 1530 3814 
z
" transform="scale(0.015625)"/>
      <path id="Satoshi-Black-69" d="M 858 3699 
C 1165 3699 1414 3949 1414 4262 
C 1414 4576 1165 4819 858 4819 
C 544 4819 294 4576 294 4262 
C 294 3949 544 3699 858 3699 
z
M 371 0 
L 1357 0 
L 1357 3200 
L 371 3200 
L 371 0 
z
" transform="scale(0.015625)"/>
      <path id="Satoshi-Black-63" d="M 198 1613 
C 198 589 851 -83 1862 -83 
C 2758 -83 3411 467 3475 1274 
L 2483 1274 
C 2419 960 2208 800 1862 800 
C 1440 800 1190 1101 1190 1613 
C 1190 2106 1459 2419 1875 2419 
C 2214 2419 2413 2266 2483 1946 
L 3475 1946 
C 3411 2784 2784 3302 1837 3302 
C 877 3302 198 2598 198 1613 
z
" transform="scale(0.015625)"/>
      <path id="Satoshi-Black-61" d="M 1338 -83 
C 1818 -83 2240 128 2342 422 
L 2406 0 
L 3277 0 
L 3277 1869 
C 3277 2784 2752 3302 1824 3302 
C 909 3302 314 2829 314 2106 
L 1133 2106 
C 1133 2394 1357 2554 1773 2554 
C 2125 2554 2317 2387 2317 2074 
L 2317 2022 
L 1421 1952 
C 653 1894 237 1530 237 941 
C 237 314 659 -83 1338 -83 
z
M 1683 646 
C 1382 646 1242 755 1242 986 
C 1242 1190 1395 1286 1824 1325 
L 2323 1370 
L 2323 1197 
C 2323 832 2061 646 1683 646 
z
" transform="scale(0.015625)"/>
      <path id="Satoshi-Black-6e" d="M 1357 0 
L 1357 1754 
C 1357 2150 1606 2406 1997 2406 
C 2336 2406 2560 2144 2560 1741 
L 2560 0 
L 3546 0 
L 3546 1978 
C 3546 2816 3104 3302 2342 3302 
C 1926 3302 1562 3142 1363 2867 
L 1299 3200 
L 371 3200 
L 371 0 
L 1357 0 
z
" transform="scale(0.015625)"/>
      <path id="Satoshi-Black-57" d="M 1517 0 
L 2534 0 
L 3424 3110 
L 4288 0 
L 5299 0 
L 6746 4736 
L 5690 4736 
L 5056 2669 
C 4973 2394 4902 2131 4806 1651 
C 4723 2106 4646 2394 4570 2682 
L 4013 4736 
L 2854 4736 
L 2272 2682 
C 2189 2387 2112 2118 2035 1651 
C 1958 2118 1882 2400 1798 2682 
L 1178 4736 
L 96 4736 
L 1517 0 
z
" transform="scale(0.015625)"/>
      <path id="Satoshi-Black-6b" d="M 1357 0 
L 1357 800 
L 1734 1197 
L 2451 0 
L 3590 0 
L 2426 1933 
L 3629 3200 
L 2394 3200 
L 1357 2048 
L 1357 4826 
L 371 4826 
L 371 0 
L 1357 0 
z
" transform="scale(0.015625)"/>
      <path id="Satoshi-Black-66" d="M 70 3200 
L 70 2381 
L 512 2381 
L 512 0 
L 1498 0 
L 1498 2381 
L 2266 2381 
L 2266 3200 
L 1498 3200 
L 1498 3456 
C 1498 3731 1587 3942 1990 3942 
L 2266 3942 
L 2266 4787 
C 2112 4813 1958 4826 1824 4826 
C 1011 4826 512 4410 512 3456 
L 512 3200 
L 70 3200 
z
" transform="scale(0.015625)"/>
     </defs>
     <use xlink:href="#Satoshi-Black-50"/>
     <use xlink:href="#Satoshi-Black-75" x="65.399994"/>
     <use xlink:href="#Satoshi-Black-65" x="125.599991"/>
     <use xlink:href="#Satoshi-Black-72" x="183.099976"/>
     <use xlink:href="#Satoshi-Black-74" x="225.299973"/>
     <use xlink:href="#Satoshi-Black-6f" x="261.899963"/>
     <use xlink:href="#Satoshi-Black-20" x="323.199951"/>
     <use xlink:href="#Satoshi-Black-52" x="349.699936"/>
     <use xlink:href="#Satoshi-Black-69" x="418.499924"/>
     <use xlink:href="#Satoshi-Black-63" x="445.499908"/>
     <use xlink:href="#Satoshi-Black-61" x="502.399902"/>
     <use xlink:href="#Satoshi-Black-6e" x="558.799896"/>
     <use xlink:href="#Satoshi-Black-20" x="619.399887"/>
     <use xlink:href="#Satoshi-Black-57" x="645.899872"/>
     <use xlink:href="#Satoshi-Black-6f" x="752.799866"/>
     <use xlink:href="#Satoshi-Black-72" x="814.099854"/>
     <use xlink:href="#Satoshi-Black-6b" x="856.29985"/>
     <use xlink:href="#Satoshi-Black-66" x="913.499847"/>
     <use xlink:href="#Satoshi-Black-6f" x="949.999832"/>
     <use xlink:href="#Satoshi-Black-72" x="1011.29982"/>
     <use xlink:href="#Satoshi-Black-63" x="1053.499817"/>
     <use xlink:href="#Satoshi-Black-65" x="1110.399811"/>
    </g>
   </g>
   <g id="legend_1">
    <g id="patch_33">
     <path d="M 845.348125 182.4025 
L 969.34875 182.4025 
Q 971.54875 182.4025 971.54875 180.2025 
L 971.54875 86.9 
Q 971.54875 84.7 969.34875 84.7 
L 845.348125 84.7 
Q 843.148125 84.7 843.148125 86.9 
L 843.148125 180.2025 
Q 843.148125 182.4025 845.348125 182.4025 
z
" style="fill: #ffffff; opacity: 0.8; stroke: #cccccc; stroke-linejoin: miter"/>
    </g>
    <g id="text_11">
     <!-- Waterfront Connection -->
     <g style="fill: #262626" transform="translate(847.548125 97.689375) scale(0.12 -0.12)">
      <defs>
       <path id="ArialMT-57" d="M 1294 0 
L 78 4581 
L 700 4581 
L 1397 1578 
Q 1509 1106 1591 641 
Q 1766 1375 1797 1488 
L 2669 4581 
L 3400 4581 
L 4056 2263 
Q 4303 1400 4413 641 
Q 4500 1075 4641 1638 
L 5359 4581 
L 5969 4581 
L 4713 0 
L 4128 0 
L 3163 3491 
Q 3041 3928 3019 4028 
Q 2947 3713 2884 3491 
L 1913 0 
L 1294 0 
z
" transform="scale(0.015625)"/>
       <path id="ArialMT-61" d="M 2588 409 
Q 2275 144 1986 34 
Q 1697 -75 1366 -75 
Q 819 -75 525 192 
Q 231 459 231 875 
Q 231 1119 342 1320 
Q 453 1522 633 1644 
Q 813 1766 1038 1828 
Q 1203 1872 1538 1913 
Q 2219 1994 2541 2106 
Q 2544 2222 2544 2253 
Q 2544 2597 2384 2738 
Q 2169 2928 1744 2928 
Q 1347 2928 1158 2789 
Q 969 2650 878 2297 
L 328 2372 
Q 403 2725 575 2942 
Q 747 3159 1072 3276 
Q 1397 3394 1825 3394 
Q 2250 3394 2515 3294 
Q 2781 3194 2906 3042 
Q 3031 2891 3081 2659 
Q 3109 2516 3109 2141 
L 3109 1391 
Q 3109 606 3145 398 
Q 3181 191 3288 0 
L 2700 0 
Q 2613 175 2588 409 
z
M 2541 1666 
Q 2234 1541 1622 1453 
Q 1275 1403 1131 1340 
Q 988 1278 909 1158 
Q 831 1038 831 891 
Q 831 666 1001 516 
Q 1172 366 1500 366 
Q 1825 366 2078 508 
Q 2331 650 2450 897 
Q 2541 1088 2541 1459 
L 2541 1666 
z
" transform="scale(0.015625)"/>
       <path id="ArialMT-74" d="M 1650 503 
L 1731 6 
Q 1494 -44 1306 -44 
Q 1000 -44 831 53 
Q 663 150 594 308 
Q 525 466 525 972 
L 525 2881 
L 113 2881 
L 113 3319 
L 525 3319 
L 525 4141 
L 1084 4478 
L 1084 3319 
L 1650 3319 
L 1650 2881 
L 1084 2881 
L 1084 941 
Q 1084 700 1114 631 
Q 1144 563 1211 522 
Q 1278 481 1403 481 
Q 1497 481 1650 503 
z
" transform="scale(0.015625)"/>
       <path id="ArialMT-65" d="M 2694 1069 
L 3275 997 
Q 3138 488 2766 206 
Q 2394 -75 1816 -75 
Q 1088 -75 661 373 
Q 234 822 234 1631 
Q 234 2469 665 2931 
Q 1097 3394 1784 3394 
Q 2450 3394 2872 2941 
Q 3294 2488 3294 1666 
Q 3294 1616 3291 1516 
L 816 1516 
Q 847 969 1125 678 
Q 1403 388 1819 388 
Q 2128 388 2347 550 
Q 2566 713 2694 1069 
z
M 847 1978 
L 2700 1978 
Q 2663 2397 2488 2606 
Q 2219 2931 1791 2931 
Q 1403 2931 1139 2672 
Q 875 2413 847 1978 
z
" transform="scale(0.015625)"/>
       <path id="ArialMT-72" d="M 416 0 
L 416 3319 
L 922 3319 
L 922 2816 
Q 1116 3169 1280 3281 
Q 1444 3394 1641 3394 
Q 1925 3394 2219 3213 
L 2025 2691 
Q 1819 2813 1613 2813 
Q 1428 2813 1281 2702 
Q 1134 2591 1072 2394 
Q 978 2094 978 1738 
L 978 0 
L 416 0 
z
" transform="scale(0.015625)"/>
       <path id="ArialMT-66" d="M 556 0 
L 556 2881 
L 59 2881 
L 59 3319 
L 556 3319 
L 556 3672 
Q 556 4006 616 4169 
Q 697 4388 901 4523 
Q 1106 4659 1475 4659 
Q 1713 4659 2000 4603 
L 1916 4113 
Q 1741 4144 1584 4144 
Q 1328 4144 1222 4034 
Q 1116 3925 1116 3625 
L 1116 3319 
L 1763 3319 
L 1763 2881 
L 1116 2881 
L 1116 0 
L 556 0 
z
" transform="scale(0.015625)"/>
       <path id="ArialMT-6f" d="M 213 1659 
Q 213 2581 725 3025 
Q 1153 3394 1769 3394 
Q 2453 3394 2887 2945 
Q 3322 2497 3322 1706 
Q 3322 1066 3130 698 
Q 2938 331 2570 128 
Q 2203 -75 1769 -75 
Q 1072 -75 642 372 
Q 213 819 213 1659 
z
M 791 1659 
Q 791 1022 1069 705 
Q 1347 388 1769 388 
Q 2188 388 2466 706 
Q 2744 1025 2744 1678 
Q 2744 2294 2464 2611 
Q 2184 2928 1769 2928 
Q 1347 2928 1069 2612 
Q 791 2297 791 1659 
z
" transform="scale(0.015625)"/>
       <path id="ArialMT-6e" d="M 422 0 
L 422 3319 
L 928 3319 
L 928 2847 
Q 1294 3394 1984 3394 
Q 2284 3394 2536 3286 
Q 2788 3178 2913 3003 
Q 3038 2828 3088 2588 
Q 3119 2431 3119 2041 
L 3119 0 
L 2556 0 
L 2556 2019 
Q 2556 2363 2490 2533 
Q 2425 2703 2258 2804 
Q 2091 2906 1866 2906 
Q 1506 2906 1245 2678 
Q 984 2450 984 1813 
L 984 0 
L 422 0 
z
" transform="scale(0.015625)"/>
       <path id="ArialMT-20" transform="scale(0.015625)"/>
       <path id="ArialMT-43" d="M 3763 1606 
L 4369 1453 
Q 4178 706 3683 314 
Q 3188 -78 2472 -78 
Q 1731 -78 1267 223 
Q 803 525 561 1097 
Q 319 1669 319 2325 
Q 319 3041 592 3573 
Q 866 4106 1370 4382 
Q 1875 4659 2481 4659 
Q 3169 4659 3637 4309 
Q 4106 3959 4291 3325 
L 3694 3184 
Q 3534 3684 3231 3912 
Q 2928 4141 2469 4141 
Q 1941 4141 1586 3887 
Q 1231 3634 1087 3207 
Q 944 2781 944 2328 
Q 944 1744 1114 1308 
Q 1284 872 1643 656 
Q 2003 441 2422 441 
Q 2931 441 3284 734 
Q 3638 1028 3763 1606 
z
" transform="scale(0.015625)"/>
       <path id="ArialMT-63" d="M 2588 1216 
L 3141 1144 
Q 3050 572 2676 248 
Q 2303 -75 1759 -75 
Q 1078 -75 664 370 
Q 250 816 250 1647 
Q 250 2184 428 2587 
Q 606 2991 970 3192 
Q 1334 3394 1763 3394 
Q 2303 3394 2647 3120 
Q 2991 2847 3088 2344 
L 2541 2259 
Q 2463 2594 2264 2762 
Q 2066 2931 1784 2931 
Q 1359 2931 1093 2626 
Q 828 2322 828 1663 
Q 828 994 1084 691 
Q 1341 388 1753 388 
Q 2084 388 2306 591 
Q 2528 794 2588 1216 
z
" transform="scale(0.015625)"/>
       <path id="ArialMT-69" d="M 425 3934 
L 425 4581 
L 988 4581 
L 988 3934 
L 425 3934 
z
M 425 0 
L 425 3319 
L 988 3319 
L 988 0 
L 425 0 
z
" transform="scale(0.015625)"/>
      </defs>
      <use xlink:href="#ArialMT-57"/>
      <use xlink:href="#ArialMT-61" x="90.634766"/>
      <use xlink:href="#ArialMT-74" x="146.25"/>
      <use xlink:href="#ArialMT-65" x="174.033203"/>
      <use xlink:href="#ArialMT-72" x="229.648438"/>
      <use xlink:href="#ArialMT-66" x="262.949219"/>
      <use xlink:href="#ArialMT-72" x="290.732422"/>
      <use xlink:href="#ArialMT-6f" x="324.033203"/>
      <use xlink:href="#ArialMT-6e" x="379.648438"/>
      <use xlink:href="#ArialMT-74" x="435.263672"/>
      <use xlink:href="#ArialMT-20" x="463.046875"/>
      <use xlink:href="#ArialMT-43" x="490.830078"/>
      <use xlink:href="#ArialMT-6f" x="563.046875"/>
      <use xlink:href="#ArialMT-6e" x="618.662109"/>
      <use xlink:href="#ArialMT-6e" x="674.277344"/>
      <use xlink:href="#ArialMT-65" x="729.892578"/>
      <use xlink:href="#ArialMT-63" x="785.507812"/>
      <use xlink:href="#ArialMT-74" x="835.507812"/>
      <use xlink:href="#ArialMT-69" x="863.291016"/>
      <use xlink:href="#ArialMT-6f" x="885.507812"/>
      <use xlink:href="#ArialMT-6e" x="941.123047"/>
     </g>
    </g>
    <g id="patch_34">
     <path d="M 850.281641 113.447969 
L 872.281641 113.447969 
L 872.281641 105.747969 
L 850.281641 105.747969 
z
" style="fill: #3f69a2; stroke: #ffffff; stroke-linejoin: miter"/>
    </g>
    <g id="text_12">
     <!-- Unemployed -->
     <g style="fill: #262626" transform="translate(881.081641 113.447969) scale(0.11 -0.11)">
      <defs>
       <path id="ArialMT-55" d="M 3500 4581 
L 4106 4581 
L 4106 1934 
Q 4106 1244 3950 837 
Q 3794 431 3386 176 
Q 2978 -78 2316 -78 
Q 1672 -78 1262 144 
Q 853 366 678 786 
Q 503 1206 503 1934 
L 503 4581 
L 1109 4581 
L 1109 1938 
Q 1109 1341 1220 1058 
Q 1331 775 1601 622 
Q 1872 469 2263 469 
Q 2931 469 3215 772 
Q 3500 1075 3500 1938 
L 3500 4581 
z
" transform="scale(0.015625)"/>
       <path id="ArialMT-6d" d="M 422 0 
L 422 3319 
L 925 3319 
L 925 2853 
Q 1081 3097 1340 3245 
Q 1600 3394 1931 3394 
Q 2300 3394 2536 3241 
Q 2772 3088 2869 2813 
Q 3263 3394 3894 3394 
Q 4388 3394 4653 3120 
Q 4919 2847 4919 2278 
L 4919 0 
L 4359 0 
L 4359 2091 
Q 4359 2428 4304 2576 
Q 4250 2725 4106 2815 
Q 3963 2906 3769 2906 
Q 3419 2906 3187 2673 
Q 2956 2441 2956 1928 
L 2956 0 
L 2394 0 
L 2394 2156 
Q 2394 2531 2256 2718 
Q 2119 2906 1806 2906 
Q 1569 2906 1367 2781 
Q 1166 2656 1075 2415 
Q 984 2175 984 1722 
L 984 0 
L 422 0 
z
" transform="scale(0.015625)"/>
       <path id="ArialMT-70" d="M 422 -1272 
L 422 3319 
L 934 3319 
L 934 2888 
Q 1116 3141 1344 3267 
Q 1572 3394 1897 3394 
Q 2322 3394 2647 3175 
Q 2972 2956 3137 2557 
Q 3303 2159 3303 1684 
Q 3303 1175 3120 767 
Q 2938 359 2589 142 
Q 2241 -75 1856 -75 
Q 1575 -75 1351 44 
Q 1128 163 984 344 
L 984 -1272 
L 422 -1272 
z
M 931 1641 
Q 931 1000 1190 694 
Q 1450 388 1819 388 
Q 2194 388 2461 705 
Q 2728 1022 2728 1688 
Q 2728 2322 2467 2637 
Q 2206 2953 1844 2953 
Q 1484 2953 1207 2617 
Q 931 2281 931 1641 
z
" transform="scale(0.015625)"/>
       <path id="ArialMT-6c" d="M 409 0 
L 409 4581 
L 972 4581 
L 972 0 
L 409 0 
z
" transform="scale(0.015625)"/>
       <path id="ArialMT-79" d="M 397 -1278 
L 334 -750 
Q 519 -800 656 -800 
Q 844 -800 956 -737 
Q 1069 -675 1141 -563 
Q 1194 -478 1313 -144 
Q 1328 -97 1363 -6 
L 103 3319 
L 709 3319 
L 1400 1397 
Q 1534 1031 1641 628 
Q 1738 1016 1872 1384 
L 2581 3319 
L 3144 3319 
L 1881 -56 
Q 1678 -603 1566 -809 
Q 1416 -1088 1222 -1217 
Q 1028 -1347 759 -1347 
Q 597 -1347 397 -1278 
z
" transform="scale(0.015625)"/>
       <path id="ArialMT-64" d="M 2575 0 
L 2575 419 
Q 2259 -75 1647 -75 
Q 1250 -75 917 144 
Q 584 363 401 755 
Q 219 1147 219 1656 
Q 219 2153 384 2558 
Q 550 2963 881 3178 
Q 1213 3394 1622 3394 
Q 1922 3394 2156 3267 
Q 2391 3141 2538 2938 
L 2538 4581 
L 3097 4581 
L 3097 0 
L 2575 0 
z
M 797 1656 
Q 797 1019 1065 703 
Q 1334 388 1700 388 
Q 2069 388 2326 689 
Q 2584 991 2584 1609 
Q 2584 2291 2321 2609 
Q 2059 2928 1675 2928 
Q 1300 2928 1048 2622 
Q 797 2316 797 1656 
z
" transform="scale(0.015625)"/>
      </defs>
      <use xlink:href="#ArialMT-55"/>
      <use xlink:href="#ArialMT-6e" x="72.216797"/>
      <use xlink:href="#ArialMT-65" x="127.832031"/>
      <use xlink:href="#ArialMT-6d" x="183.447266"/>
      <use xlink:href="#ArialMT-70" x="266.748047"/>
      <use xlink:href="#ArialMT-6c" x="322.363281"/>
      <use xlink:href="#ArialMT-6f" x="344.580078"/>
      <use xlink:href="#ArialMT-79" x="400.195312"/>
      <use xlink:href="#ArialMT-65" x="450.195312"/>
      <use xlink:href="#ArialMT-64" x="505.810547"/>
     </g>
    </g>
    <g id="patch_35">
     <path d="M 850.281641 129.136719 
L 872.281641 129.136719 
L 872.281641 121.436719 
L 850.281641 121.436719 
z
" style="fill: #d2b642; stroke: #ffffff; stroke-linejoin: miter"/>
    </g>
    <g id="text_13">
     <!-- Non-industrial -->
     <g style="fill: #262626" transform="translate(881.081641 129.136719) scale(0.11 -0.11)">
      <defs>
       <path id="ArialMT-4e" d="M 488 0 
L 488 4581 
L 1109 4581 
L 3516 984 
L 3516 4581 
L 4097 4581 
L 4097 0 
L 3475 0 
L 1069 3600 
L 1069 0 
L 488 0 
z
" transform="scale(0.015625)"/>
       <path id="ArialMT-2d" d="M 203 1375 
L 203 1941 
L 1931 1941 
L 1931 1375 
L 203 1375 
z
" transform="scale(0.015625)"/>
       <path id="ArialMT-75" d="M 2597 0 
L 2597 488 
Q 2209 -75 1544 -75 
Q 1250 -75 995 37 
Q 741 150 617 320 
Q 494 491 444 738 
Q 409 903 409 1263 
L 409 3319 
L 972 3319 
L 972 1478 
Q 972 1038 1006 884 
Q 1059 663 1231 536 
Q 1403 409 1656 409 
Q 1909 409 2131 539 
Q 2353 669 2445 892 
Q 2538 1116 2538 1541 
L 2538 3319 
L 3100 3319 
L 3100 0 
L 2597 0 
z
" transform="scale(0.015625)"/>
       <path id="ArialMT-73" d="M 197 991 
L 753 1078 
Q 800 744 1014 566 
Q 1228 388 1613 388 
Q 2000 388 2187 545 
Q 2375 703 2375 916 
Q 2375 1106 2209 1216 
Q 2094 1291 1634 1406 
Q 1016 1563 777 1677 
Q 538 1791 414 1992 
Q 291 2194 291 2438 
Q 291 2659 392 2848 
Q 494 3038 669 3163 
Q 800 3259 1026 3326 
Q 1253 3394 1513 3394 
Q 1903 3394 2198 3281 
Q 2494 3169 2634 2976 
Q 2775 2784 2828 2463 
L 2278 2388 
Q 2241 2644 2061 2787 
Q 1881 2931 1553 2931 
Q 1166 2931 1000 2803 
Q 834 2675 834 2503 
Q 834 2394 903 2306 
Q 972 2216 1119 2156 
Q 1203 2125 1616 2013 
Q 2213 1853 2448 1751 
Q 2684 1650 2818 1456 
Q 2953 1263 2953 975 
Q 2953 694 2789 445 
Q 2625 197 2315 61 
Q 2006 -75 1616 -75 
Q 969 -75 630 194 
Q 291 463 197 991 
z
" transform="scale(0.015625)"/>
      </defs>
      <use xlink:href="#ArialMT-4e"/>
      <use xlink:href="#ArialMT-6f" x="72.216797"/>
      <use xlink:href="#ArialMT-6e" x="127.832031"/>
      <use xlink:href="#ArialMT-2d" x="183.447266"/>
      <use xlink:href="#ArialMT-69" x="216.748047"/>
      <use xlink:href="#ArialMT-6e" x="238.964844"/>
      <use xlink:href="#ArialMT-64" x="294.580078"/>
      <use xlink:href="#ArialMT-75" x="350.195312"/>
      <use xlink:href="#ArialMT-73" x="405.810547"/>
      <use xlink:href="#ArialMT-74" x="455.810547"/>
      <use xlink:href="#ArialMT-72" x="483.59375"/>
      <use xlink:href="#ArialMT-69" x="516.894531"/>
      <use xlink:href="#ArialMT-61" x="539.111328"/>
      <use xlink:href="#ArialMT-6c" x="594.726562"/>
     </g>
    </g>
    <g id="patch_36">
     <path d="M 850.281641 144.696563 
L 872.281641 144.696563 
L 872.281641 136.996563 
L 850.281641 136.996563 
z
" style="fill: #8c4040; stroke: #ffffff; stroke-linejoin: miter"/>
    </g>
    <g id="text_14">
     <!-- General labor -->
     <g style="fill: #262626" transform="translate(881.081641 144.696563) scale(0.11 -0.11)">
      <defs>
       <path id="ArialMT-47" d="M 2638 1797 
L 2638 2334 
L 4578 2338 
L 4578 638 
Q 4131 281 3656 101 
Q 3181 -78 2681 -78 
Q 2006 -78 1454 211 
Q 903 500 622 1047 
Q 341 1594 341 2269 
Q 341 2938 620 3517 
Q 900 4097 1425 4378 
Q 1950 4659 2634 4659 
Q 3131 4659 3532 4498 
Q 3934 4338 4162 4050 
Q 4391 3763 4509 3300 
L 3963 3150 
Q 3859 3500 3706 3700 
Q 3553 3900 3268 4020 
Q 2984 4141 2638 4141 
Q 2222 4141 1919 4014 
Q 1616 3888 1430 3681 
Q 1244 3475 1141 3228 
Q 966 2803 966 2306 
Q 966 1694 1177 1281 
Q 1388 869 1791 669 
Q 2194 469 2647 469 
Q 3041 469 3416 620 
Q 3791 772 3984 944 
L 3984 1797 
L 2638 1797 
z
" transform="scale(0.015625)"/>
       <path id="ArialMT-62" d="M 941 0 
L 419 0 
L 419 4581 
L 981 4581 
L 981 2947 
Q 1338 3394 1891 3394 
Q 2197 3394 2470 3270 
Q 2744 3147 2920 2923 
Q 3097 2700 3197 2384 
Q 3297 2069 3297 1709 
Q 3297 856 2875 390 
Q 2453 -75 1863 -75 
Q 1275 -75 941 416 
L 941 0 
z
M 934 1684 
Q 934 1088 1097 822 
Q 1363 388 1816 388 
Q 2184 388 2453 708 
Q 2722 1028 2722 1663 
Q 2722 2313 2464 2622 
Q 2206 2931 1841 2931 
Q 1472 2931 1203 2611 
Q 934 2291 934 1684 
z
" transform="scale(0.015625)"/>
      </defs>
      <use xlink:href="#ArialMT-47"/>
      <use xlink:href="#ArialMT-65" x="77.783203"/>
      <use xlink:href="#ArialMT-6e" x="133.398438"/>
      <use xlink:href="#ArialMT-65" x="189.013672"/>
      <use xlink:href="#ArialMT-72" x="244.628906"/>
      <use xlink:href="#ArialMT-61" x="277.929688"/>
      <use xlink:href="#ArialMT-6c" x="333.544922"/>
      <use xlink:href="#ArialMT-20" x="355.761719"/>
      <use xlink:href="#ArialMT-6c" x="383.544922"/>
      <use xlink:href="#ArialMT-61" x="405.761719"/>
      <use xlink:href="#ArialMT-62" x="461.376953"/>
      <use xlink:href="#ArialMT-6f" x="516.992188"/>
      <use xlink:href="#ArialMT-72" x="572.607422"/>
     </g>
    </g>
    <g id="patch_37">
     <path d="M 850.281641 160.256406 
L 872.281641 160.256406 
L 872.281641 152.556406 
L 850.281641 152.556406 
z
" style="fill: #ce9245; stroke: #ffffff; stroke-linejoin: miter"/>
    </g>
    <g id="text_15">
     <!-- Waterfront-linked -->
     <g style="fill: #262626" transform="translate(881.081641 160.256406) scale(0.11 -0.11)">
      <defs>
       <path id="ArialMT-6b" d="M 425 0 
L 425 4581 
L 988 4581 
L 988 1969 
L 2319 3319 
L 3047 3319 
L 1778 2088 
L 3175 0 
L 2481 0 
L 1384 1697 
L 988 1316 
L 988 0 
L 425 0 
z
" transform="scale(0.015625)"/>
      </defs>
      <use xlink:href="#ArialMT-57"/>
      <use xlink:href="#ArialMT-61" x="90.634766"/>
      <use xlink:href="#ArialMT-74" x="146.25"/>
      <use xlink:href="#ArialMT-65" x="174.033203"/>
      <use xlink:href="#ArialMT-72" x="229.648438"/>
      <use xlink:href="#ArialMT-66" x="262.949219"/>
      <use xlink:href="#ArialMT-72" x="290.732422"/>
      <use xlink:href="#ArialMT-6f" x="324.033203"/>
      <use xlink:href="#ArialMT-6e" x="379.648438"/>
      <use xlink:href="#ArialMT-74" x="435.263672"/>
      <use xlink:href="#ArialMT-2d" x="463.046875"/>
      <use xlink:href="#ArialMT-6c" x="496.347656"/>
      <use xlink:href="#ArialMT-69" x="518.564453"/>
      <use xlink:href="#ArialMT-6e" x="540.78125"/>
      <use xlink:href="#ArialMT-6b" x="596.396484"/>
      <use xlink:href="#ArialMT-65" x="646.396484"/>
      <use xlink:href="#ArialMT-64" x="702.011719"/>
     </g>
    </g>
    <g id="patch_38">
     <path d="M 850.281641 175.81625 
L 872.281641 175.81625 
L 872.281641 168.11625 
L 850.281641 168.11625 
z
" style="fill: #467475; stroke: #ffffff; stroke-linejoin: miter"/>
    </g>
    <g id="text_16">
     <!-- Dockworkers -->
     <g style="fill: #262626" transform="translate(881.081641 175.81625) scale(0.11 -0.11)">
      <defs>
       <path id="ArialMT-44" d="M 494 0 
L 494 4581 
L 2072 4581 
Q 2606 4581 2888 4516 
Q 3281 4425 3559 4188 
Q 3922 3881 4101 3404 
Q 4281 2928 4281 2316 
Q 4281 1794 4159 1391 
Q 4038 988 3847 723 
Q 3656 459 3429 307 
Q 3203 156 2883 78 
Q 2563 0 2147 0 
L 494 0 
z
M 1100 541 
L 2078 541 
Q 2531 541 2789 625 
Q 3047 709 3200 863 
Q 3416 1078 3536 1442 
Q 3656 1806 3656 2325 
Q 3656 3044 3420 3430 
Q 3184 3816 2847 3947 
Q 2603 4041 2063 4041 
L 1100 4041 
L 1100 541 
z
" transform="scale(0.015625)"/>
       <path id="ArialMT-77" d="M 1034 0 
L 19 3319 
L 600 3319 
L 1128 1403 
L 1325 691 
Q 1338 744 1497 1375 
L 2025 3319 
L 2603 3319 
L 3100 1394 
L 3266 759 
L 3456 1400 
L 4025 3319 
L 4572 3319 
L 3534 0 
L 2950 0 
L 2422 1988 
L 2294 2553 
L 1622 0 
L 1034 0 
z
" transform="scale(0.015625)"/>
      </defs>
      <use xlink:href="#ArialMT-44"/>
      <use xlink:href="#ArialMT-6f" x="72.216797"/>
      <use xlink:href="#ArialMT-63" x="127.832031"/>
      <use xlink:href="#ArialMT-6b" x="177.832031"/>
      <use xlink:href="#ArialMT-77" x="227.832031"/>
      <use xlink:href="#ArialMT-6f" x="300.048828"/>
      <use xlink:href="#ArialMT-72" x="355.664062"/>
      <use xlink:href="#ArialMT-6b" x="388.964844"/>
      <use xlink:href="#ArialMT-65" x="438.964844"/>
      <use xlink:href="#ArialMT-72" x="494.580078"/>
      <use xlink:href="#ArialMT-73" x="527.880859"/>
     </g>
    </g>
   </g>
  </g>
  <g id="axes_2">
   <g id="patch_39">
    <path d="M 56.448125 633.6 
L 837.648125 633.6 
L 837.648125 392.556522 
L 56.448125 392.556522 
z
" style="fill: #ffffff"/>
   </g>
   <g id="matplotlib.axis_3">
    <g id="xtick_6">
     <g id="text_17">
      <!-- 1900 -->
      <g style="fill: #262626" transform="translate(122.334063 650.973594) scale(0.11 -0.11)">
       <defs>
        <path id="ArialMT-39" d="M 350 1059 
L 891 1109 
Q 959 728 1153 556 
Q 1347 384 1650 384 
Q 1909 384 2104 503 
Q 2300 622 2425 820 
Q 2550 1019 2634 1356 
Q 2719 1694 2719 2044 
Q 2719 2081 2716 2156 
Q 2547 1888 2255 1720 
Q 1963 1553 1622 1553 
Q 1053 1553 659 1965 
Q 266 2378 266 3053 
Q 266 3750 677 4175 
Q 1088 4600 1706 4600 
Q 2153 4600 2523 4359 
Q 2894 4119 3086 3673 
Q 3278 3228 3278 2384 
Q 3278 1506 3087 986 
Q 2897 466 2520 194 
Q 2144 -78 1638 -78 
Q 1100 -78 759 220 
Q 419 519 350 1059 
z
M 2653 3081 
Q 2653 3566 2395 3850 
Q 2138 4134 1775 4134 
Q 1400 4134 1122 3828 
Q 844 3522 844 3034 
Q 844 2597 1108 2323 
Q 1372 2050 1759 2050 
Q 2150 2050 2401 2323 
Q 2653 2597 2653 3081 
z
" transform="scale(0.015625)"/>
       </defs>
       <use xlink:href="#ArialMT-31"/>
       <use xlink:href="#ArialMT-39" x="55.615234"/>
       <use xlink:href="#ArialMT-30" x="111.230469"/>
       <use xlink:href="#ArialMT-30" x="166.845703"/>
      </g>
     </g>
    </g>
    <g id="xtick_7">
     <g id="text_18">
      <!-- 1910 -->
      <g style="fill: #262626" transform="translate(278.574063 650.973594) scale(0.11 -0.11)">
       <use xlink:href="#ArialMT-31"/>
       <use xlink:href="#ArialMT-39" x="55.615234"/>
       <use xlink:href="#ArialMT-31" x="111.230469"/>
       <use xlink:href="#ArialMT-30" x="166.845703"/>
      </g>
     </g>
    </g>
    <g id="xtick_8">
     <g id="text_19">
      <!-- 1920 -->
      <g style="fill: #262626" transform="translate(434.814063 650.973594) scale(0.11 -0.11)">
       <use xlink:href="#ArialMT-31"/>
       <use xlink:href="#ArialMT-39" x="55.615234"/>
       <use xlink:href="#ArialMT-32" x="111.230469"/>
       <use xlink:href="#ArialMT-30" x="166.845703"/>
      </g>
     </g>
    </g>
    <g id="xtick_9">
     <g id="text_20">
      <!-- 1930 -->
      <g style="fill: #262626" transform="translate(591.054062 650.973594) scale(0.11 -0.11)">
       <use xlink:href="#ArialMT-31"/>
       <use xlink:href="#ArialMT-39" x="55.615234"/>
       <use xlink:href="#ArialMT-33" x="111.230469"/>
       <use xlink:href="#ArialMT-30" x="166.845703"/>
      </g>
     </g>
    </g>
    <g id="xtick_10">
     <g id="text_21">
      <!-- 1940 -->
      <g style="fill: #262626" transform="translate(747.294062 650.973594) scale(0.11 -0.11)">
       <use xlink:href="#ArialMT-31"/>
       <use xlink:href="#ArialMT-39" x="55.615234"/>
       <use xlink:href="#ArialMT-34" x="111.230469"/>
       <use xlink:href="#ArialMT-30" x="166.845703"/>
      </g>
     </g>
    </g>
    <g id="text_22">
     <!-- Year -->
     <g style="fill: #262626" transform="translate(433.589375 666.208594) scale(0.12 -0.12)">
      <defs>
       <path id="Satoshi-Black-59" d="M 1664 1798 
L 1664 0 
L 2701 0 
L 2701 1798 
L 4301 4736 
L 3174 4736 
L 2381 3206 
C 2304 3053 2253 2931 2195 2816 
C 2144 2938 2093 3053 2016 3200 
L 1222 4736 
L 64 4736 
L 1664 1798 
z
" transform="scale(0.015625)"/>
      </defs>
      <use xlink:href="#Satoshi-Black-59"/>
      <use xlink:href="#Satoshi-Black-65" x="68.199982"/>
      <use xlink:href="#Satoshi-Black-61" x="125.699966"/>
      <use xlink:href="#Satoshi-Black-72" x="182.09996"/>
     </g>
    </g>
   </g>
   <g id="matplotlib.axis_4">
    <g id="ytick_9">
     <g id="line2d_9">
      <path d="M 56.448125 633.6 
L 837.648125 633.6 
" clip-path="url(#pa07e0611cf)" style="fill: none; stroke: #cccccc; stroke-opacity: 0.5; stroke-linecap: round"/>
     </g>
     <g id="text_23">
      <!-- 0 -->
      <g style="fill: #262626" transform="translate(40.831094 637.536797) scale(0.11 -0.11)">
       <use xlink:href="#ArialMT-30"/>
      </g>
     </g>
    </g>
    <g id="ytick_10">
     <g id="line2d_10">
      <path d="M 56.448125 598.200583 
L 837.648125 598.200583 
" clip-path="url(#pa07e0611cf)" style="fill: none; stroke: #cccccc; stroke-opacity: 0.5; stroke-linecap: round"/>
     </g>
     <g id="text_24">
      <!-- 1000 -->
      <g style="fill: #262626" transform="translate(22.48 602.13738) scale(0.11 -0.11)">
       <use xlink:href="#ArialMT-31"/>
       <use xlink:href="#ArialMT-30" x="55.615234"/>
       <use xlink:href="#ArialMT-30" x="111.230469"/>
       <use xlink:href="#ArialMT-30" x="166.845703"/>
      </g>
     </g>
    </g>
    <g id="ytick_11">
     <g id="line2d_11">
      <path d="M 56.448125 562.801167 
L 837.648125 562.801167 
" clip-path="url(#pa07e0611cf)" style="fill: none; stroke: #cccccc; stroke-opacity: 0.5; stroke-linecap: round"/>
     </g>
     <g id="text_25">
      <!-- 2000 -->
      <g style="fill: #262626" transform="translate(22.48 566.737963) scale(0.11 -0.11)">
       <use xlink:href="#ArialMT-32"/>
       <use xlink:href="#ArialMT-30" x="55.615234"/>
       <use xlink:href="#ArialMT-30" x="111.230469"/>
       <use xlink:href="#ArialMT-30" x="166.845703"/>
      </g>
     </g>
    </g>
    <g id="ytick_12">
     <g id="line2d_12">
      <path d="M 56.448125 527.40175 
L 837.648125 527.40175 
" clip-path="url(#pa07e0611cf)" style="fill: none; stroke: #cccccc; stroke-opacity: 0.5; stroke-linecap: round"/>
     </g>
     <g id="text_26">
      <!-- 3000 -->
      <g style="fill: #262626" transform="translate(22.48 531.338547) scale(0.11 -0.11)">
       <use xlink:href="#ArialMT-33"/>
       <use xlink:href="#ArialMT-30" x="55.615234"/>
       <use xlink:href="#ArialMT-30" x="111.230469"/>
       <use xlink:href="#ArialMT-30" x="166.845703"/>
      </g>
     </g>
    </g>
    <g id="ytick_13">
     <g id="line2d_13">
      <path d="M 56.448125 492.002333 
L 837.648125 492.002333 
" clip-path="url(#pa07e0611cf)" style="fill: none; stroke: #cccccc; stroke-opacity: 0.5; stroke-linecap: round"/>
     </g>
     <g id="text_27">
      <!-- 4000 -->
      <g style="fill: #262626" transform="translate(22.48 495.93913) scale(0.11 -0.11)">
       <use xlink:href="#ArialMT-34"/>
       <use xlink:href="#ArialMT-30" x="55.615234"/>
       <use xlink:href="#ArialMT-30" x="111.230469"/>
       <use xlink:href="#ArialMT-30" x="166.845703"/>
      </g>
     </g>
    </g>
    <g id="ytick_14">
     <g id="line2d_14">
      <path d="M 56.448125 456.602916 
L 837.648125 456.602916 
" clip-path="url(#pa07e0611cf)" style="fill: none; stroke: #cccccc; stroke-opacity: 0.5; stroke-linecap: round"/>
     </g>
     <g id="text_28">
      <!-- 5000 -->
      <g style="fill: #262626" transform="translate(22.48 460.539713) scale(0.11 -0.11)">
       <use xlink:href="#ArialMT-35"/>
       <use xlink:href="#ArialMT-30" x="55.615234"/>
       <use xlink:href="#ArialMT-30" x="111.230469"/>
       <use xlink:href="#ArialMT-30" x="166.845703"/>
      </g>
     </g>
    </g>
    <g id="ytick_15">
     <g id="line2d_15">
      <path d="M 56.448125 421.2035 
L 837.648125 421.2035 
" clip-path="url(#pa07e0611cf)" style="fill: none; stroke: #cccccc; stroke-opacity: 0.5; stroke-linecap: round"/>
     </g>
     <g id="text_29">
      <!-- 6000 -->
      <g style="fill: #262626" transform="translate(22.48 425.140297) scale(0.11 -0.11)">
       <use xlink:href="#ArialMT-36"/>
       <use xlink:href="#ArialMT-30" x="55.615234"/>
       <use xlink:href="#ArialMT-30" x="111.230469"/>
       <use xlink:href="#ArialMT-30" x="166.845703"/>
      </g>
     </g>
    </g>
    <g id="text_30">
     <!-- Count of Italian Workers -->
     <g style="fill: #262626" transform="translate(15.94875 577.093573) rotate(-90) scale(0.12 -0.12)">
      <defs>
       <path id="Satoshi-Regular-49" d="M 1018 4582 
L 557 4582 
L 557 0 
L 1018 0 
L 1018 4582 
z
" transform="scale(0.015625)"/>
       <path id="Satoshi-Regular-6c" d="M 922 0 
L 922 4666 
L 480 4666 
L 480 0 
L 922 0 
z
" transform="scale(0.015625)"/>
      </defs>
      <use xlink:href="#Satoshi-Regular-43"/>
      <use xlink:href="#Satoshi-Regular-6f" x="72.899994"/>
      <use xlink:href="#Satoshi-Regular-75" x="129.699982"/>
      <use xlink:href="#Satoshi-Regular-6e" x="184.999969"/>
      <use xlink:href="#Satoshi-Regular-74" x="241.199966"/>
      <use xlink:href="#Satoshi-Regular-20" x="270.999954"/>
      <use xlink:href="#Satoshi-Regular-6f" x="298.699951"/>
      <use xlink:href="#Satoshi-Regular-66" x="355.499939"/>
      <use xlink:href="#Satoshi-Regular-20" x="385.199936"/>
      <use xlink:href="#Satoshi-Regular-49" x="412.899933"/>
      <use xlink:href="#Satoshi-Regular-74" x="437.499924"/>
      <use xlink:href="#Satoshi-Regular-61" x="467.299911"/>
      <use xlink:href="#Satoshi-Regular-6c" x="519.499908"/>
      <use xlink:href="#Satoshi-Regular-69" x="541.399902"/>
      <use xlink:href="#Satoshi-Regular-61" x="562.69989"/>
      <use xlink:href="#Satoshi-Regular-6e" x="614.899887"/>
      <use xlink:href="#Satoshi-Regular-20" x="671.099884"/>
      <use xlink:href="#Satoshi-Regular-57" x="698.799881"/>
      <use xlink:href="#Satoshi-Regular-6f" x="796.699875"/>
      <use xlink:href="#Satoshi-Regular-72" x="853.499863"/>
      <use xlink:href="#Satoshi-Regular-6b" x="887.999847"/>
      <use xlink:href="#Satoshi-Regular-65" x="936.199844"/>
      <use xlink:href="#Satoshi-Regular-72" x="988.999832"/>
      <use xlink:href="#Satoshi-Regular-73" x="1023.499817"/>
     </g>
    </g>
   </g>
   <g id="patch_40">
    <path d="M 72.072125 633.6 
L 97.070525 633.6 
L 97.070525 621.245604 
L 72.072125 621.245604 
z
" clip-path="url(#pa07e0611cf)" style="fill: #3f69a2; stroke: #ffffff; stroke-linejoin: miter"/>
   </g>
   <g id="patch_41">
    <path d="M 228.312125 633.6 
L 253.310525 633.6 
L 253.310525 630.55565 
L 228.312125 630.55565 
z
" clip-path="url(#pa07e0611cf)" style="fill: #3f69a2; stroke: #ffffff; stroke-linejoin: miter"/>
   </g>
   <g id="patch_42">
    <path d="M 384.552125 633.6 
L 409.550525 633.6 
L 409.550525 629.883061 
L 384.552125 629.883061 
z
" clip-path="url(#pa07e0611cf)" style="fill: #3f69a2; stroke: #ffffff; stroke-linejoin: miter"/>
   </g>
   <g id="patch_43">
    <path d="M 540.792125 633.6 
L 565.790525 633.6 
L 565.790525 617.316268 
L 540.792125 617.316268 
z
" clip-path="url(#pa07e0611cf)" style="fill: #3f69a2; stroke: #ffffff; stroke-linejoin: miter"/>
   </g>
   <g id="patch_44">
    <path d="M 697.032125 633.6 
L 722.030525 633.6 
L 722.030525 585.739989 
L 697.032125 585.739989 
z
" clip-path="url(#pa07e0611cf)" style="fill: #3f69a2; stroke: #ffffff; stroke-linejoin: miter"/>
   </g>
   <g id="patch_45">
    <path d="M 97.070525 633.6 
L 122.068925 633.6 
L 122.068925 589.456927 
L 97.070525 589.456927 
z
" clip-path="url(#pa07e0611cf)" style="fill: #d2b642; stroke: #ffffff; stroke-linejoin: miter"/>
   </g>
   <g id="patch_46">
    <path d="M 253.310525 633.6 
L 278.308925 633.6 
L 278.308925 549.24319 
L 253.310525 549.24319 
z
" clip-path="url(#pa07e0611cf)" style="fill: #d2b642; stroke: #ffffff; stroke-linejoin: miter"/>
   </g>
   <g id="patch_47">
    <path d="M 409.550525 633.6 
L 434.548925 633.6 
L 434.548925 528.145138 
L 409.550525 528.145138 
z
" clip-path="url(#pa07e0611cf)" style="fill: #d2b642; stroke: #ffffff; stroke-linejoin: miter"/>
   </g>
   <g id="patch_48">
    <path d="M 565.790525 633.6 
L 590.788925 633.6 
L 590.788925 490.055365 
L 565.790525 490.055365 
z
" clip-path="url(#pa07e0611cf)" style="fill: #d2b642; stroke: #ffffff; stroke-linejoin: miter"/>
   </g>
   <g id="patch_49">
    <path d="M 722.030525 633.6 
L 747.028925 633.6 
L 747.028925 526.941557 
L 722.030525 526.941557 
z
" clip-path="url(#pa07e0611cf)" style="fill: #d2b642; stroke: #ffffff; stroke-linejoin: miter"/>
   </g>
   <g id="patch_50">
    <path d="M 122.068925 633.6 
L 147.067325 633.6 
L 147.067325 590.589709 
L 122.068925 590.589709 
z
" clip-path="url(#pa07e0611cf)" style="fill: #8c4040; stroke: #ffffff; stroke-linejoin: miter"/>
   </g>
   <g id="patch_51">
    <path d="M 278.308925 633.6 
L 303.307325 633.6 
L 303.307325 525.59638 
L 278.308925 525.59638 
z
" clip-path="url(#pa07e0611cf)" style="fill: #8c4040; stroke: #ffffff; stroke-linejoin: miter"/>
   </g>
   <g id="patch_52">
    <path d="M 434.548925 633.6 
L 459.547325 633.6 
L 459.547325 479.47094 
L 434.548925 479.47094 
z
" clip-path="url(#pa07e0611cf)" style="fill: #8c4040; stroke: #ffffff; stroke-linejoin: miter"/>
   </g>
   <g id="patch_53">
    <path d="M 590.788925 633.6 
L 615.787325 633.6 
L 615.787325 404.034783 
L 590.788925 404.034783 
z
" clip-path="url(#pa07e0611cf)" style="fill: #8c4040; stroke: #ffffff; stroke-linejoin: miter"/>
   </g>
   <g id="patch_54">
    <path d="M 747.028925 633.6 
L 772.027325 633.6 
L 772.027325 436.283651 
L 747.028925 436.283651 
z
" clip-path="url(#pa07e0611cf)" style="fill: #8c4040; stroke: #ffffff; stroke-linejoin: miter"/>
   </g>
   <g id="patch_55">
    <path d="M 147.067325 633.6 
L 172.065725 633.6 
L 172.065725 623.617364 
L 147.067325 623.617364 
z
" clip-path="url(#pa07e0611cf)" style="fill: #ce9245; stroke: #ffffff; stroke-linejoin: miter"/>
   </g>
   <g id="patch_56">
    <path d="M 303.307325 633.6 
L 328.305725 633.6 
L 328.305725 595.935021 
L 303.307325 595.935021 
z
" clip-path="url(#pa07e0611cf)" style="fill: #ce9245; stroke: #ffffff; stroke-linejoin: miter"/>
   </g>
   <g id="patch_57">
    <path d="M 459.547325 633.6 
L 484.545725 633.6 
L 484.545725 548.606 
L 459.547325 548.606 
z
" clip-path="url(#pa07e0611cf)" style="fill: #ce9245; stroke: #ffffff; stroke-linejoin: miter"/>
   </g>
   <g id="patch_58">
    <path d="M 615.787325 633.6 
L 640.785725 633.6 
L 640.785725 587.509959 
L 615.787325 587.509959 
z
" clip-path="url(#pa07e0611cf)" style="fill: #ce9245; stroke: #ffffff; stroke-linejoin: miter"/>
   </g>
   <g id="patch_59">
    <path d="M 772.027325 633.6 
L 797.025725 633.6 
L 797.025725 611.333767 
L 772.027325 611.333767 
z
" clip-path="url(#pa07e0611cf)" style="fill: #ce9245; stroke: #ffffff; stroke-linejoin: miter"/>
   </g>
   <g id="patch_60">
    <path d="M 172.065725 633.6 
L 197.064125 633.6 
L 197.064125 595.439429 
L 172.065725 595.439429 
z
" clip-path="url(#pa07e0611cf)" style="fill: #467475; stroke: #ffffff; stroke-linejoin: miter"/>
   </g>
   <g id="patch_61">
    <path d="M 328.305725 633.6 
L 353.304125 633.6 
L 353.304125 551.721149 
L 328.305725 551.721149 
z
" clip-path="url(#pa07e0611cf)" style="fill: #467475; stroke: #ffffff; stroke-linejoin: miter"/>
   </g>
   <g id="patch_62">
    <path d="M 484.545725 633.6 
L 509.544125 633.6 
L 509.544125 503.754939 
L 484.545725 503.754939 
z
" clip-path="url(#pa07e0611cf)" style="fill: #467475; stroke: #ffffff; stroke-linejoin: miter"/>
   </g>
   <g id="patch_63">
    <path d="M 640.785725 633.6 
L 665.784125 633.6 
L 665.784125 484.462257 
L 640.785725 484.462257 
z
" clip-path="url(#pa07e0611cf)" style="fill: #467475; stroke: #ffffff; stroke-linejoin: miter"/>
   </g>
   <g id="patch_64">
    <path d="M 797.025725 633.6 
L 822.024125 633.6 
L 822.024125 526.19817 
L 797.025725 526.19817 
z
" clip-path="url(#pa07e0611cf)" style="fill: #467475; stroke: #ffffff; stroke-linejoin: miter"/>
   </g>
   <g id="patch_65">
    <path d="M 134.568125 633.6 
L 134.568125 633.6 
L 134.568125 633.6 
L 134.568125 633.6 
z
" clip-path="url(#pa07e0611cf)" style="fill: #3f69a2; stroke: #ffffff; stroke-linejoin: miter"/>
   </g>
   <g id="patch_66">
    <path d="M 134.568125 633.6 
L 134.568125 633.6 
L 134.568125 633.6 
L 134.568125 633.6 
z
" clip-path="url(#pa07e0611cf)" style="fill: #d2b642; stroke: #ffffff; stroke-linejoin: miter"/>
   </g>
   <g id="patch_67">
    <path d="M 134.568125 633.6 
L 134.568125 633.6 
L 134.568125 633.6 
L 134.568125 633.6 
z
" clip-path="url(#pa07e0611cf)" style="fill: #8c4040; stroke: #ffffff; stroke-linejoin: miter"/>
   </g>
   <g id="patch_68">
    <path d="M 134.568125 633.6 
L 134.568125 633.6 
L 134.568125 633.6 
L 134.568125 633.6 
z
" clip-path="url(#pa07e0611cf)" style="fill: #ce9245; stroke: #ffffff; stroke-linejoin: miter"/>
   </g>
   <g id="patch_69">
    <path d="M 134.568125 633.6 
L 134.568125 633.6 
L 134.568125 633.6 
L 134.568125 633.6 
z
" clip-path="url(#pa07e0611cf)" style="fill: #467475; stroke: #ffffff; stroke-linejoin: miter"/>
   </g>
   <g id="patch_70">
    <path d="M 56.448125 633.6 
L 56.448125 392.556522 
" style="fill: none; stroke: #cccccc; stroke-width: 1.25; stroke-linejoin: miter; stroke-linecap: square"/>
   </g>
   <g id="patch_71">
    <path d="M 837.648125 633.6 
L 837.648125 392.556522 
" style="fill: none; stroke: #cccccc; stroke-width: 1.25; stroke-linejoin: miter; stroke-linecap: square"/>
   </g>
   <g id="patch_72">
    <path d="M 56.448125 633.6 
L 837.648125 633.6 
" style="fill: none; stroke: #cccccc; stroke-width: 1.25; stroke-linejoin: miter; stroke-linecap: square"/>
   </g>
   <g id="patch_73">
    <path d="M 56.448125 392.556522 
L 837.648125 392.556522 
" style="fill: none; stroke: #cccccc; stroke-width: 1.25; stroke-linejoin: miter; stroke-linecap: square"/>
   </g>
   <g id="text_31">
    <!-- Italian Workforce -->
    <g style="fill: #262626" transform="translate(379.519375 386.556522) scale(0.16 -0.16)">
     <defs>
      <path id="Satoshi-Black-49" d="M 1530 4736 
L 493 4736 
L 493 0 
L 1530 0 
L 1530 4736 
z
" transform="scale(0.015625)"/>
      <path id="Satoshi-Black-6c" d="M 1357 0 
L 1357 4826 
L 371 4826 
L 371 0 
L 1357 0 
z
" transform="scale(0.015625)"/>
     </defs>
     <use xlink:href="#Satoshi-Black-49"/>
     <use xlink:href="#Satoshi-Black-74" x="31.599991"/>
     <use xlink:href="#Satoshi-Black-61" x="68.199982"/>
     <use xlink:href="#Satoshi-Black-6c" x="124.599976"/>
     <use xlink:href="#Satoshi-Black-69" x="151.59996"/>
     <use xlink:href="#Satoshi-Black-61" x="178.599945"/>
     <use xlink:href="#Satoshi-Black-6e" x="234.999939"/>
     <use xlink:href="#Satoshi-Black-20" x="295.59993"/>
     <use xlink:href="#Satoshi-Black-57" x="322.099915"/>
     <use xlink:href="#Satoshi-Black-6f" x="428.999908"/>
     <use xlink:href="#Satoshi-Black-72" x="490.299896"/>
     <use xlink:href="#Satoshi-Black-6b" x="532.499893"/>
     <use xlink:href="#Satoshi-Black-66" x="589.69989"/>
     <use xlink:href="#Satoshi-Black-6f" x="626.199875"/>
     <use xlink:href="#Satoshi-Black-72" x="687.499863"/>
     <use xlink:href="#Satoshi-Black-63" x="729.69986"/>
     <use xlink:href="#Satoshi-Black-65" x="786.599854"/>
    </g>
   </g>
   <g id="legend_2">
    <g id="patch_74">
     <path d="M 845.348125 495.759022 
L 969.34875 495.759022 
Q 971.54875 495.759022 971.54875 493.559022 
L 971.54875 400.256522 
Q 971.54875 398.056522 969.34875 398.056522 
L 845.348125 398.056522 
Q 843.148125 398.056522 843.148125 400.256522 
L 843.148125 493.559022 
Q 843.148125 495.759022 845.348125 495.759022 
z
" style="fill: #ffffff; opacity: 0.8; stroke: #cccccc; stroke-linejoin: miter"/>
    </g>
    <g id="text_32">
     <!-- Waterfront Connection -->
     <g style="fill: #262626" transform="translate(847.548125 411.045897) scale(0.12 -0.12)">
      <use xlink:href="#ArialMT-57"/>
      <use xlink:href="#ArialMT-61" x="90.634766"/>
      <use xlink:href="#ArialMT-74" x="146.25"/>
      <use xlink:href="#ArialMT-65" x="174.033203"/>
      <use xlink:href="#ArialMT-72" x="229.648438"/>
      <use xlink:href="#ArialMT-66" x="262.949219"/>
      <use xlink:href="#ArialMT-72" x="290.732422"/>
      <use xlink:href="#ArialMT-6f" x="324.033203"/>
      <use xlink:href="#ArialMT-6e" x="379.648438"/>
      <use xlink:href="#ArialMT-74" x="435.263672"/>
      <use xlink:href="#ArialMT-20" x="463.046875"/>
      <use xlink:href="#ArialMT-43" x="490.830078"/>
      <use xlink:href="#ArialMT-6f" x="563.046875"/>
      <use xlink:href="#ArialMT-6e" x="618.662109"/>
      <use xlink:href="#ArialMT-6e" x="674.277344"/>
      <use xlink:href="#ArialMT-65" x="729.892578"/>
      <use xlink:href="#ArialMT-63" x="785.507812"/>
      <use xlink:href="#ArialMT-74" x="835.507812"/>
      <use xlink:href="#ArialMT-69" x="863.291016"/>
      <use xlink:href="#ArialMT-6f" x="885.507812"/>
      <use xlink:href="#ArialMT-6e" x="941.123047"/>
     </g>
    </g>
    <g id="patch_75">
     <path d="M 850.281641 426.80449 
L 872.281641 426.80449 
L 872.281641 419.10449 
L 850.281641 419.10449 
z
" style="fill: #3f69a2; stroke: #ffffff; stroke-linejoin: miter"/>
    </g>
    <g id="text_33">
     <!-- Unemployed -->
     <g style="fill: #262626" transform="translate(881.081641 426.80449) scale(0.11 -0.11)">
      <use xlink:href="#ArialMT-55"/>
      <use xlink:href="#ArialMT-6e" x="72.216797"/>
      <use xlink:href="#ArialMT-65" x="127.832031"/>
      <use xlink:href="#ArialMT-6d" x="183.447266"/>
      <use xlink:href="#ArialMT-70" x="266.748047"/>
      <use xlink:href="#ArialMT-6c" x="322.363281"/>
      <use xlink:href="#ArialMT-6f" x="344.580078"/>
      <use xlink:href="#ArialMT-79" x="400.195312"/>
      <use xlink:href="#ArialMT-65" x="450.195312"/>
      <use xlink:href="#ArialMT-64" x="505.810547"/>
     </g>
    </g>
    <g id="patch_76">
     <path d="M 850.281641 442.49324 
L 872.281641 442.49324 
L 872.281641 434.79324 
L 850.281641 434.79324 
z
" style="fill: #d2b642; stroke: #ffffff; stroke-linejoin: miter"/>
    </g>
    <g id="text_34">
     <!-- Non-industrial -->
     <g style="fill: #262626" transform="translate(881.081641 442.49324) scale(0.11 -0.11)">
      <use xlink:href="#ArialMT-4e"/>
      <use xlink:href="#ArialMT-6f" x="72.216797"/>
      <use xlink:href="#ArialMT-6e" x="127.832031"/>
      <use xlink:href="#ArialMT-2d" x="183.447266"/>
      <use xlink:href="#ArialMT-69" x="216.748047"/>
      <use xlink:href="#ArialMT-6e" x="238.964844"/>
      <use xlink:href="#ArialMT-64" x="294.580078"/>
      <use xlink:href="#ArialMT-75" x="350.195312"/>
      <use xlink:href="#ArialMT-73" x="405.810547"/>
      <use xlink:href="#ArialMT-74" x="455.810547"/>
      <use xlink:href="#ArialMT-72" x="483.59375"/>
      <use xlink:href="#ArialMT-69" x="516.894531"/>
      <use xlink:href="#ArialMT-61" x="539.111328"/>
      <use xlink:href="#ArialMT-6c" x="594.726562"/>
     </g>
    </g>
    <g id="patch_77">
     <path d="M 850.281641 458.053084 
L 872.281641 458.053084 
L 872.281641 450.353084 
L 850.281641 450.353084 
z
" style="fill: #8c4040; stroke: #ffffff; stroke-linejoin: miter"/>
    </g>
    <g id="text_35">
     <!-- General labor -->
     <g style="fill: #262626" transform="translate(881.081641 458.053084) scale(0.11 -0.11)">
      <use xlink:href="#ArialMT-47"/>
      <use xlink:href="#ArialMT-65" x="77.783203"/>
      <use xlink:href="#ArialMT-6e" x="133.398438"/>
      <use xlink:href="#ArialMT-65" x="189.013672"/>
      <use xlink:href="#ArialMT-72" x="244.628906"/>
      <use xlink:href="#ArialMT-61" x="277.929688"/>
      <use xlink:href="#ArialMT-6c" x="333.544922"/>
      <use xlink:href="#ArialMT-20" x="355.761719"/>
      <use xlink:href="#ArialMT-6c" x="383.544922"/>
      <use xlink:href="#ArialMT-61" x="405.761719"/>
      <use xlink:href="#ArialMT-62" x="461.376953"/>
      <use xlink:href="#ArialMT-6f" x="516.992188"/>
      <use xlink:href="#ArialMT-72" x="572.607422"/>
     </g>
    </g>
    <g id="patch_78">
     <path d="M 850.281641 473.612928 
L 872.281641 473.612928 
L 872.281641 465.912928 
L 850.281641 465.912928 
z
" style="fill: #ce9245; stroke: #ffffff; stroke-linejoin: miter"/>
    </g>
    <g id="text_36">
     <!-- Waterfront-linked -->
     <g style="fill: #262626" transform="translate(881.081641 473.612928) scale(0.11 -0.11)">
      <use xlink:href="#ArialMT-57"/>
      <use xlink:href="#ArialMT-61" x="90.634766"/>
      <use xlink:href="#ArialMT-74" x="146.25"/>
      <use xlink:href="#ArialMT-65" x="174.033203"/>
      <use xlink:href="#ArialMT-72" x="229.648438"/>
      <use xlink:href="#ArialMT-66" x="262.949219"/>
      <use xlink:href="#ArialMT-72" x="290.732422"/>
      <use xlink:href="#ArialMT-6f" x="324.033203"/>
      <use xlink:href="#ArialMT-6e" x="379.648438"/>
      <use xlink:href="#ArialMT-74" x="435.263672"/>
      <use xlink:href="#ArialMT-2d" x="463.046875"/>
      <use xlink:href="#ArialMT-6c" x="496.347656"/>
      <use xlink:href="#ArialMT-69" x="518.564453"/>
      <use xlink:href="#ArialMT-6e" x="540.78125"/>
      <use xlink:href="#ArialMT-6b" x="596.396484"/>
      <use xlink:href="#ArialMT-65" x="646.396484"/>
      <use xlink:href="#ArialMT-64" x="702.011719"/>
     </g>
    </g>
    <g id="patch_79">
     <path d="M 850.281641 489.172772 
L 872.281641 489.172772 
L 872.281641 481.472772 
L 850.281641 481.472772 
z
" style="fill: #467475; stroke: #ffffff; stroke-linejoin: miter"/>
    </g>
    <g id="text_37">
     <!-- Dockworkers -->
     <g style="fill: #262626" transform="translate(881.081641 489.172772) scale(0.11 -0.11)">
      <use xlink:href="#ArialMT-44"/>
      <use xlink:href="#ArialMT-6f" x="72.216797"/>
      <use xlink:href="#ArialMT-63" x="127.832031"/>
      <use xlink:href="#ArialMT-6b" x="177.832031"/>
      <use xlink:href="#ArialMT-77" x="227.832031"/>
      <use xlink:href="#ArialMT-6f" x="300.048828"/>
      <use xlink:href="#ArialMT-72" x="355.664062"/>
      <use xlink:href="#ArialMT-6b" x="388.964844"/>
      <use xlink:href="#ArialMT-65" x="438.964844"/>
      <use xlink:href="#ArialMT-72" x="494.580078"/>
      <use xlink:href="#ArialMT-73" x="527.880859"/>
     </g>
    </g>
   </g>
  </g>
  <g id="text_38">
   <!-- South Brooklyn Employment Relative to the Waterfront -->
   <g style="fill: #262626" transform="translate(142.492656 23.789375) scale(0.22 -0.22)">
    <defs>
     <path id="Satoshi-Black-53" d="M 230 3360 
C 230 2586 666 2106 1510 1933 
L 2234 1786 
C 2547 1722 2669 1587 2669 1325 
C 2669 1024 2374 838 1907 838 
C 1446 838 1190 1030 1190 1376 
L 160 1376 
C 160 486 845 -83 1901 -83 
C 2989 -83 3706 512 3706 1427 
C 3706 2176 3302 2579 2458 2752 
L 1747 2899 
C 1414 2970 1267 3110 1267 3398 
C 1267 3712 1536 3904 1958 3904 
C 2349 3904 2598 3699 2598 3366 
L 3629 3366 
C 3629 4262 2989 4826 1971 4826 
C 954 4826 230 4218 230 3360 
z
" transform="scale(0.015625)"/>
     <path id="Satoshi-Black-68" d="M 1357 0 
L 1357 1754 
C 1357 2150 1606 2406 1997 2406 
C 2336 2406 2560 2144 2560 1741 
L 2560 0 
L 3546 0 
L 3546 1978 
C 3546 2816 3104 3302 2342 3302 
C 1926 3302 1562 3142 1363 2867 
L 1363 4826 
L 371 4826 
L 371 0 
L 1357 0 
z
" transform="scale(0.015625)"/>
     <path id="Satoshi-Black-42" d="M 493 0 
L 2464 0 
C 3488 0 4051 467 4051 1306 
C 4051 1843 3802 2208 3334 2362 
C 3763 2547 3994 2918 3994 3424 
C 3994 4237 3418 4736 2464 4736 
L 493 4736 
L 493 0 
z
M 2355 3827 
C 2733 3827 2931 3654 2931 3322 
C 2931 2982 2726 2797 2355 2797 
L 1530 2797 
L 1530 3827 
L 2355 3827 
z
M 2406 1926 
C 2784 1926 2989 1754 2989 1434 
C 2989 1082 2790 909 2406 909 
L 1530 909 
L 1530 1926 
L 2406 1926 
z
" transform="scale(0.015625)"/>
     <path id="Satoshi-Black-79" d="M 115 -1536 
C 307 -1594 531 -1626 768 -1626 
C 1331 -1626 1690 -1350 1958 -698 
L 3584 3200 
L 2560 3200 
L 1786 1146 
L 1088 3200 
L 32 3200 
L 1318 -109 
L 1261 -262 
C 1133 -608 992 -710 659 -710 
L 115 -710 
L 115 -1536 
z
" transform="scale(0.015625)"/>
     <path id="Satoshi-Black-45" d="M 3501 0 
L 3501 960 
L 1530 960 
L 1530 1939 
L 3277 1939 
L 3277 2848 
L 1530 2848 
L 1530 3776 
L 3501 3776 
L 3501 4736 
L 493 4736 
L 493 0 
L 3501 0 
z
" transform="scale(0.015625)"/>
     <path id="Satoshi-Black-6d" d="M 1357 0 
L 1357 1715 
C 1357 2253 1645 2406 1926 2406 
C 2240 2406 2445 2214 2445 1818 
L 2445 0 
L 3430 0 
L 3430 1715 
C 3430 2259 3712 2413 3994 2413 
C 4307 2413 4518 2221 4518 1818 
L 4518 0 
L 5504 0 
L 5504 2093 
C 5504 2822 5094 3302 4269 3302 
C 3808 3302 3430 3078 3264 2739 
C 3078 3078 2771 3302 2291 3302 
C 1830 3302 1517 3091 1357 2867 
L 1293 3200 
L 371 3200 
L 371 0 
L 1357 0 
z
" transform="scale(0.015625)"/>
     <path id="Satoshi-Black-70" d="M 371 -1536 
L 1357 -1536 
L 1357 320 
C 1542 77 1952 -90 2394 -90 
C 3347 -90 3898 640 3898 1651 
C 3898 2682 3277 3302 2387 3302 
C 1933 3302 1530 3104 1350 2810 
L 1299 3200 
L 371 3200 
L 371 -1536 
z
M 1363 1600 
C 1363 2080 1683 2400 2144 2400 
C 2611 2400 2906 2074 2906 1600 
C 2906 1126 2611 800 2144 800 
C 1683 800 1363 1120 1363 1600 
z
" transform="scale(0.015625)"/>
     <path id="Satoshi-Black-76" d="M 1280 0 
L 2253 0 
L 3590 3200 
L 2566 3200 
L 2138 2080 
C 1978 1664 1837 1248 1798 1062 
C 1773 1210 1645 1613 1485 2080 
L 1094 3200 
L 32 3200 
L 1280 0 
z
" transform="scale(0.015625)"/>
    </defs>
    <use xlink:href="#Satoshi-Black-53"/>
    <use xlink:href="#Satoshi-Black-6f" x="60.899994"/>
    <use xlink:href="#Satoshi-Black-75" x="122.199982"/>
    <use xlink:href="#Satoshi-Black-74" x="182.399979"/>
    <use xlink:href="#Satoshi-Black-68" x="218.999969"/>
    <use xlink:href="#Satoshi-Black-20" x="279.59996"/>
    <use xlink:href="#Satoshi-Black-42" x="306.099945"/>
    <use xlink:href="#Satoshi-Black-72" x="372.59993"/>
    <use xlink:href="#Satoshi-Black-6f" x="414.799927"/>
    <use xlink:href="#Satoshi-Black-6f" x="476.099915"/>
    <use xlink:href="#Satoshi-Black-6b" x="537.399902"/>
    <use xlink:href="#Satoshi-Black-6c" x="594.599899"/>
    <use xlink:href="#Satoshi-Black-79" x="621.599884"/>
    <use xlink:href="#Satoshi-Black-6e" x="678.099869"/>
    <use xlink:href="#Satoshi-Black-20" x="738.69986"/>
    <use xlink:href="#Satoshi-Black-45" x="765.199844"/>
    <use xlink:href="#Satoshi-Black-6d" x="825.499832"/>
    <use xlink:href="#Satoshi-Black-70" x="916.699814"/>
    <use xlink:href="#Satoshi-Black-6c" x="980.699799"/>
    <use xlink:href="#Satoshi-Black-6f" x="1007.699783"/>
    <use xlink:href="#Satoshi-Black-79" x="1068.999771"/>
    <use xlink:href="#Satoshi-Black-6d" x="1125.499756"/>
    <use xlink:href="#Satoshi-Black-65" x="1216.699738"/>
    <use xlink:href="#Satoshi-Black-6e" x="1274.199722"/>
    <use xlink:href="#Satoshi-Black-74" x="1334.799713"/>
    <use xlink:href="#Satoshi-Black-20" x="1371.399704"/>
    <use xlink:href="#Satoshi-Black-52" x="1397.899689"/>
    <use xlink:href="#Satoshi-Black-65" x="1466.699677"/>
    <use xlink:href="#Satoshi-Black-6c" x="1524.199661"/>
    <use xlink:href="#Satoshi-Black-61" x="1551.199646"/>
    <use xlink:href="#Satoshi-Black-74" x="1607.59964"/>
    <use xlink:href="#Satoshi-Black-69" x="1644.199631"/>
    <use xlink:href="#Satoshi-Black-76" x="1671.199615"/>
    <use xlink:href="#Satoshi-Black-65" x="1727.799606"/>
    <use xlink:href="#Satoshi-Black-20" x="1785.299591"/>
    <use xlink:href="#Satoshi-Black-74" x="1811.799576"/>
    <use xlink:href="#Satoshi-Black-6f" x="1848.399567"/>
    <use xlink:href="#Satoshi-Black-20" x="1909.699554"/>
    <use xlink:href="#Satoshi-Black-74" x="1936.199539"/>
    <use xlink:href="#Satoshi-Black-68" x="1972.79953"/>
    <use xlink:href="#Satoshi-Black-65" x="2033.399521"/>
    <use xlink:href="#Satoshi-Black-20" x="2090.899506"/>
    <use xlink:href="#Satoshi-Black-57" x="2117.39949"/>
    <use xlink:href="#Satoshi-Black-61" x="2224.299484"/>
    <use xlink:href="#Satoshi-Black-74" x="2280.699478"/>
    <use xlink:href="#Satoshi-Black-65" x="2317.299469"/>
    <use xlink:href="#Satoshi-Black-72" x="2374.799454"/>
    <use xlink:href="#Satoshi-Black-66" x="2416.999451"/>
    <use xlink:href="#Satoshi-Black-72" x="2453.499435"/>
    <use xlink:href="#Satoshi-Black-6f" x="2495.699432"/>
    <use xlink:href="#Satoshi-Black-6e" x="2556.99942"/>
    <use xlink:href="#Satoshi-Black-74" x="2617.599411"/>
   </g>
  </g>
 </g>
 <defs>
  <clipPath id="p8a58ca4136">
   <rect x="56.448125" y="79.2" width="781.2" height="241.043478"/>
  </clipPath>
  <clipPath id="pa07e0611cf">
   <rect x="56.448125" y="392.556522" width="781.2" height="241.043478"/>
  </clipPath>
 </defs>
</svg>
