<?xml version="1.0" encoding="utf-8" standalone="no"?>
<!DOCTYPE svg PUBLIC "-//W3C//DTD SVG 1.1//EN"
  "http://www.w3.org/Graphics/SVG/1.1/DTD/svg11.dtd">
<svg xmlns:xlink="http://www.w3.org/1999/xlink" width="399.096875pt" height="397.577344pt" viewBox="0 0 399.096875 397.577344" xmlns="http://www.w3.org/2000/svg" version="1.1">
 <metadata>
  <rdf:RDF xmlns:dc="http://purl.org/dc/elements/1.1/" xmlns:cc="http://creativecommons.org/ns#" xmlns:rdf="http://www.w3.org/1999/02/22-rdf-syntax-ns#">
   <cc:Work>
    <dc:type rdf:resource="http://purl.org/dc/dcmitype/StillImage"/>
    <dc:date>2025-03-31T11:16:11.804729</dc:date>
    <dc:format>image/svg+xml</dc:format>
    <dc:creator>
     <cc:Agent>
      <dc:title>Matplotlib v3.9.2, https://matplotlib.org/</dc:title>
     </cc:Agent>
    </dc:creator>
   </cc:Work>
  </rdf:RDF>
 </metadata>
 <defs>
  <style type="text/css">*{stroke-linejoin: round; stroke-linecap: butt}</style>
 </defs>
 <g id="figure_1">
  <g id="patch_1">
   <path d="M 0 397.577344 
L 399.096875 397.577344 
L 399.096875 0 
L 0 0 
z
" style="fill: #ffffff"/>
  </g>
  <g id="axes_1">
   <g id="patch_2">
    <path d="M 57.096875 354.88875 
L 391.896875 354.88875 
L 391.896875 22.24875 
L 57.096875 22.24875 
z
" style="fill: #ffffff"/>
   </g>
   <g id="matplotlib.axis_1">
    <g id="xtick_1">
     <g id="text_1">
      <!-- 1880 -->
      <g style="fill: #262626" transform="translate(100.662813 372.262344) scale(0.11 -0.11)">
       <defs>
        <path id="ArialMT-31" d="M 2384 0 
L 1822 0 
L 1822 3584 
Q 1619 3391 1289 3197 
Q 959 3003 697 2906 
L 697 3450 
Q 1169 3672 1522 3987 
Q 1875 4303 2022 4600 
L 2384 4600 
L 2384 0 
z
" transform="scale(0.015625)"/>
        <path id="ArialMT-38" d="M 1131 2484 
Q 781 2613 612 2850 
Q 444 3088 444 3419 
Q 444 3919 803 4259 
Q 1163 4600 1759 4600 
Q 2359 4600 2725 4251 
Q 3091 3903 3091 3403 
Q 3091 3084 2923 2848 
Q 2756 2613 2416 2484 
Q 2838 2347 3058 2040 
Q 3278 1734 3278 1309 
Q 3278 722 2862 322 
Q 2447 -78 1769 -78 
Q 1091 -78 675 323 
Q 259 725 259 1325 
Q 259 1772 486 2073 
Q 713 2375 1131 2484 
z
M 1019 3438 
Q 1019 3113 1228 2906 
Q 1438 2700 1772 2700 
Q 2097 2700 2305 2904 
Q 2513 3109 2513 3406 
Q 2513 3716 2298 3927 
Q 2084 4138 1766 4138 
Q 1444 4138 1231 3931 
Q 1019 3725 1019 3438 
z
M 838 1322 
Q 838 1081 952 856 
Q 1066 631 1291 507 
Q 1516 384 1775 384 
Q 2178 384 2440 643 
Q 2703 903 2703 1303 
Q 2703 1709 2433 1975 
Q 2163 2241 1756 2241 
Q 1359 2241 1098 1978 
Q 838 1716 838 1322 
z
" transform="scale(0.015625)"/>
        <path id="ArialMT-30" d="M 266 2259 
Q 266 3072 433 3567 
Q 600 4063 929 4331 
Q 1259 4600 1759 4600 
Q 2128 4600 2406 4451 
Q 2684 4303 2865 4023 
Q 3047 3744 3150 3342 
Q 3253 2941 3253 2259 
Q 3253 1453 3087 958 
Q 2922 463 2592 192 
Q 2263 -78 1759 -78 
Q 1097 -78 719 397 
Q 266 969 266 2259 
z
M 844 2259 
Q 844 1131 1108 757 
Q 1372 384 1759 384 
Q 2147 384 2411 759 
Q 2675 1134 2675 2259 
Q 2675 3391 2411 3762 
Q 2147 4134 1753 4134 
Q 1366 4134 1134 3806 
Q 844 3388 844 2259 
z
" transform="scale(0.015625)"/>
       </defs>
       <use xlink:href="#ArialMT-31"/>
       <use xlink:href="#ArialMT-38" x="55.615234"/>
       <use xlink:href="#ArialMT-38" x="111.230469"/>
       <use xlink:href="#ArialMT-30" x="166.845703"/>
      </g>
     </g>
    </g>
    <g id="xtick_2">
     <g id="text_2">
      <!-- 1900 -->
      <g style="fill: #262626" transform="translate(212.262812 372.262344) scale(0.11 -0.11)">
       <defs>
        <path id="ArialMT-39" d="M 350 1059 
L 891 1109 
Q 959 728 1153 556 
Q 1347 384 1650 384 
Q 1909 384 2104 503 
Q 2300 622 2425 820 
Q 2550 1019 2634 1356 
Q 2719 1694 2719 2044 
Q 2719 2081 2716 2156 
Q 2547 1888 2255 1720 
Q 1963 1553 1622 1553 
Q 1053 1553 659 1965 
Q 266 2378 266 3053 
Q 266 3750 677 4175 
Q 1088 4600 1706 4600 
Q 2153 4600 2523 4359 
Q 2894 4119 3086 3673 
Q 3278 3228 3278 2384 
Q 3278 1506 3087 986 
Q 2897 466 2520 194 
Q 2144 -78 1638 -78 
Q 1100 -78 759 220 
Q 419 519 350 1059 
z
M 2653 3081 
Q 2653 3566 2395 3850 
Q 2138 4134 1775 4134 
Q 1400 4134 1122 3828 
Q 844 3522 844 3034 
Q 844 2597 1108 2323 
Q 1372 2050 1759 2050 
Q 2150 2050 2401 2323 
Q 2653 2597 2653 3081 
z
" transform="scale(0.015625)"/>
       </defs>
       <use xlink:href="#ArialMT-31"/>
       <use xlink:href="#ArialMT-39" x="55.615234"/>
       <use xlink:href="#ArialMT-30" x="111.230469"/>
       <use xlink:href="#ArialMT-30" x="166.845703"/>
      </g>
     </g>
    </g>
    <g id="xtick_3">
     <g id="text_3">
      <!-- 1910 -->
      <g style="fill: #262626" transform="translate(323.862812 372.262344) scale(0.11 -0.11)">
       <use xlink:href="#ArialMT-31"/>
       <use xlink:href="#ArialMT-39" x="55.615234"/>
       <use xlink:href="#ArialMT-31" x="111.230469"/>
       <use xlink:href="#ArialMT-30" x="166.845703"/>
      </g>
     </g>
    </g>
    <g id="text_4">
     <!-- Year -->
     <g style="fill: #262626" transform="translate(211.038125 387.497344) scale(0.12 -0.12)">
      <defs>
       <path id="Satoshi-Black-59" d="M 1664 1798 
L 1664 0 
L 2701 0 
L 2701 1798 
L 4301 4736 
L 3174 4736 
L 2381 3206 
C 2304 3053 2253 2931 2195 2816 
C 2144 2938 2093 3053 2016 3200 
L 1222 4736 
L 64 4736 
L 1664 1798 
z
" transform="scale(0.015625)"/>
       <path id="Satoshi-Black-65" d="M 1856 -83 
C 2733 -83 3366 371 3482 1082 
L 2579 1082 
C 2509 851 2246 717 1875 717 
C 1440 717 1203 915 1146 1338 
L 3469 1350 
L 3469 1600 
C 3469 2643 2842 3302 1837 3302 
C 870 3302 198 2605 198 1606 
C 198 621 890 -83 1856 -83 
z
M 1843 2502 
C 2240 2502 2490 2285 2490 1946 
L 1158 1946 
C 1235 2330 1453 2502 1843 2502 
z
" transform="scale(0.015625)"/>
       <path id="Satoshi-Black-61" d="M 1338 -83 
C 1818 -83 2240 128 2342 422 
L 2406 0 
L 3277 0 
L 3277 1869 
C 3277 2784 2752 3302 1824 3302 
C 909 3302 314 2829 314 2106 
L 1133 2106 
C 1133 2394 1357 2554 1773 2554 
C 2125 2554 2317 2387 2317 2074 
L 2317 2022 
L 1421 1952 
C 653 1894 237 1530 237 941 
C 237 314 659 -83 1338 -83 
z
M 1683 646 
C 1382 646 1242 755 1242 986 
C 1242 1190 1395 1286 1824 1325 
L 2323 1370 
L 2323 1197 
C 2323 832 2061 646 1683 646 
z
" transform="scale(0.015625)"/>
       <path id="Satoshi-Black-72" d="M 2573 3200 
C 2438 3232 2310 3245 2195 3245 
C 1766 3245 1485 3034 1350 2720 
L 1299 3194 
L 371 3194 
L 371 0 
L 1357 0 
L 1357 1389 
C 1357 2022 1696 2272 2259 2272 
L 2573 2272 
L 2573 3200 
z
" transform="scale(0.015625)"/>
      </defs>
      <use xlink:href="#Satoshi-Black-59"/>
      <use xlink:href="#Satoshi-Black-65" x="68.199982"/>
      <use xlink:href="#Satoshi-Black-61" x="125.699966"/>
      <use xlink:href="#Satoshi-Black-72" x="182.09996"/>
     </g>
    </g>
   </g>
   <g id="matplotlib.axis_2">
    <g id="ytick_1">
     <g id="line2d_1">
      <path d="M 57.096875 354.88875 
L 391.896875 354.88875 
" clip-path="url(#pfc6d53a43a)" style="fill: none; stroke: #cccccc; stroke-opacity: 0.5; stroke-linecap: round"/>
     </g>
     <g id="text_5">
      <!-- 0 -->
      <g style="fill: #262626" transform="translate(41.479844 358.825547) scale(0.11 -0.11)">
       <use xlink:href="#ArialMT-30"/>
      </g>
     </g>
    </g>
    <g id="ytick_2">
     <g id="line2d_2">
      <path d="M 57.096875 291.856518 
L 391.896875 291.856518 
" clip-path="url(#pfc6d53a43a)" style="fill: none; stroke: #cccccc; stroke-opacity: 0.5; stroke-linecap: round"/>
     </g>
     <g id="text_6">
      <!-- 1000 -->
      <g style="fill: #262626" transform="translate(23.12875 295.793314) scale(0.11 -0.11)">
       <use xlink:href="#ArialMT-31"/>
       <use xlink:href="#ArialMT-30" x="55.615234"/>
       <use xlink:href="#ArialMT-30" x="111.230469"/>
       <use xlink:href="#ArialMT-30" x="166.845703"/>
      </g>
     </g>
    </g>
    <g id="ytick_3">
     <g id="line2d_3">
      <path d="M 57.096875 228.824285 
L 391.896875 228.824285 
" clip-path="url(#pfc6d53a43a)" style="fill: none; stroke: #cccccc; stroke-opacity: 0.5; stroke-linecap: round"/>
     </g>
     <g id="text_7">
      <!-- 2000 -->
      <g style="fill: #262626" transform="translate(23.12875 232.761082) scale(0.11 -0.11)">
       <defs>
        <path id="ArialMT-32" d="M 3222 541 
L 3222 0 
L 194 0 
Q 188 203 259 391 
Q 375 700 629 1000 
Q 884 1300 1366 1694 
Q 2113 2306 2375 2664 
Q 2638 3022 2638 3341 
Q 2638 3675 2398 3904 
Q 2159 4134 1775 4134 
Q 1369 4134 1125 3890 
Q 881 3647 878 3216 
L 300 3275 
Q 359 3922 746 4261 
Q 1134 4600 1788 4600 
Q 2447 4600 2831 4234 
Q 3216 3869 3216 3328 
Q 3216 3053 3103 2787 
Q 2991 2522 2730 2228 
Q 2469 1934 1863 1422 
Q 1356 997 1212 845 
Q 1069 694 975 541 
L 3222 541 
z
" transform="scale(0.015625)"/>
       </defs>
       <use xlink:href="#ArialMT-32"/>
       <use xlink:href="#ArialMT-30" x="55.615234"/>
       <use xlink:href="#ArialMT-30" x="111.230469"/>
       <use xlink:href="#ArialMT-30" x="166.845703"/>
      </g>
     </g>
    </g>
    <g id="ytick_4">
     <g id="line2d_4">
      <path d="M 57.096875 165.792053 
L 391.896875 165.792053 
" clip-path="url(#pfc6d53a43a)" style="fill: none; stroke: #cccccc; stroke-opacity: 0.5; stroke-linecap: round"/>
     </g>
     <g id="text_8">
      <!-- 3000 -->
      <g style="fill: #262626" transform="translate(23.12875 169.72885) scale(0.11 -0.11)">
       <defs>
        <path id="ArialMT-33" d="M 269 1209 
L 831 1284 
Q 928 806 1161 595 
Q 1394 384 1728 384 
Q 2125 384 2398 659 
Q 2672 934 2672 1341 
Q 2672 1728 2419 1979 
Q 2166 2231 1775 2231 
Q 1616 2231 1378 2169 
L 1441 2663 
Q 1497 2656 1531 2656 
Q 1891 2656 2178 2843 
Q 2466 3031 2466 3422 
Q 2466 3731 2256 3934 
Q 2047 4138 1716 4138 
Q 1388 4138 1169 3931 
Q 950 3725 888 3313 
L 325 3413 
Q 428 3978 793 4289 
Q 1159 4600 1703 4600 
Q 2078 4600 2393 4439 
Q 2709 4278 2876 4000 
Q 3044 3722 3044 3409 
Q 3044 3113 2884 2869 
Q 2725 2625 2413 2481 
Q 2819 2388 3044 2092 
Q 3269 1797 3269 1353 
Q 3269 753 2831 336 
Q 2394 -81 1725 -81 
Q 1122 -81 723 278 
Q 325 638 269 1209 
z
" transform="scale(0.015625)"/>
       </defs>
       <use xlink:href="#ArialMT-33"/>
       <use xlink:href="#ArialMT-30" x="55.615234"/>
       <use xlink:href="#ArialMT-30" x="111.230469"/>
       <use xlink:href="#ArialMT-30" x="166.845703"/>
      </g>
     </g>
    </g>
    <g id="ytick_5">
     <g id="line2d_5">
      <path d="M 57.096875 102.75982 
L 391.896875 102.75982 
" clip-path="url(#pfc6d53a43a)" style="fill: none; stroke: #cccccc; stroke-opacity: 0.5; stroke-linecap: round"/>
     </g>
     <g id="text_9">
      <!-- 4000 -->
      <g style="fill: #262626" transform="translate(23.12875 106.696617) scale(0.11 -0.11)">
       <defs>
        <path id="ArialMT-34" d="M 2069 0 
L 2069 1097 
L 81 1097 
L 81 1613 
L 2172 4581 
L 2631 4581 
L 2631 1613 
L 3250 1613 
L 3250 1097 
L 2631 1097 
L 2631 0 
L 2069 0 
z
M 2069 1613 
L 2069 3678 
L 634 1613 
L 2069 1613 
z
" transform="scale(0.015625)"/>
       </defs>
       <use xlink:href="#ArialMT-34"/>
       <use xlink:href="#ArialMT-30" x="55.615234"/>
       <use xlink:href="#ArialMT-30" x="111.230469"/>
       <use xlink:href="#ArialMT-30" x="166.845703"/>
      </g>
     </g>
    </g>
    <g id="ytick_6">
     <g id="line2d_6">
      <path d="M 57.096875 39.727588 
L 391.896875 39.727588 
" clip-path="url(#pfc6d53a43a)" style="fill: none; stroke: #cccccc; stroke-opacity: 0.5; stroke-linecap: round"/>
     </g>
     <g id="text_10">
      <!-- 5000 -->
      <g style="fill: #262626" transform="translate(23.12875 43.664385) scale(0.11 -0.11)">
       <defs>
        <path id="ArialMT-35" d="M 266 1200 
L 856 1250 
Q 922 819 1161 601 
Q 1400 384 1738 384 
Q 2144 384 2425 690 
Q 2706 997 2706 1503 
Q 2706 1984 2436 2262 
Q 2166 2541 1728 2541 
Q 1456 2541 1237 2417 
Q 1019 2294 894 2097 
L 366 2166 
L 809 4519 
L 3088 4519 
L 3088 3981 
L 1259 3981 
L 1013 2750 
Q 1425 3038 1878 3038 
Q 2478 3038 2890 2622 
Q 3303 2206 3303 1553 
Q 3303 931 2941 478 
Q 2500 -78 1738 -78 
Q 1113 -78 717 272 
Q 322 622 266 1200 
z
" transform="scale(0.015625)"/>
       </defs>
       <use xlink:href="#ArialMT-35"/>
       <use xlink:href="#ArialMT-30" x="55.615234"/>
       <use xlink:href="#ArialMT-30" x="111.230469"/>
       <use xlink:href="#ArialMT-30" x="166.845703"/>
      </g>
     </g>
    </g>
    <g id="text_11">
     <!-- Count of Dockworkers -->
     <g style="fill: #262626" transform="translate(16.24875 253.98) rotate(-90) scale(0.12 -0.12)">
      <defs>
       <path id="Satoshi-Black-43" d="M 2541 -77 
C 3725 -77 4608 621 4774 1677 
L 3699 1677 
C 3571 1210 3142 922 2560 922 
C 1798 922 1325 1478 1325 2368 
C 1325 3270 1792 3814 2560 3814 
C 3130 3814 3533 3546 3674 3072 
L 4768 3072 
C 4621 4134 3770 4813 2586 4813 
C 1171 4813 230 3840 230 2362 
C 230 864 1120 -77 2541 -77 
z
" transform="scale(0.015625)"/>
       <path id="Satoshi-Black-6f" d="M 198 1606 
C 198 595 941 -77 1965 -77 
C 2982 -77 3725 595 3725 1606 
C 3725 2618 2982 3296 1965 3296 
C 941 3296 198 2618 198 1606 
z
M 1190 1613 
C 1190 2093 1504 2413 1965 2413 
C 2419 2413 2733 2093 2733 1613 
C 2733 1126 2419 806 1965 806 
C 1504 806 1190 1126 1190 1613 
z
" transform="scale(0.015625)"/>
       <path id="Satoshi-Black-75" d="M 2496 3200 
L 2496 1536 
C 2496 1011 2323 794 1901 794 
C 1498 794 1318 1024 1318 1549 
L 1318 3200 
L 333 3200 
L 333 1190 
C 333 403 781 -83 1510 -83 
C 1894 -83 2291 96 2490 358 
L 2554 0 
L 3482 0 
L 3482 3200 
L 2496 3200 
z
" transform="scale(0.015625)"/>
       <path id="Satoshi-Black-6e" d="M 1357 0 
L 1357 1754 
C 1357 2150 1606 2406 1997 2406 
C 2336 2406 2560 2144 2560 1741 
L 2560 0 
L 3546 0 
L 3546 1978 
C 3546 2816 3104 3302 2342 3302 
C 1926 3302 1562 3142 1363 2867 
L 1299 3200 
L 371 3200 
L 371 0 
L 1357 0 
z
" transform="scale(0.015625)"/>
       <path id="Satoshi-Black-74" d="M 1664 0 
L 1664 2381 
L 2272 2381 
L 2272 3200 
L 1664 3200 
L 1664 4192 
L 678 4192 
L 678 3200 
L 70 3200 
L 70 2381 
L 678 2381 
L 678 0 
L 1664 0 
z
" transform="scale(0.015625)"/>
       <path id="Satoshi-Black-20" transform="scale(0.015625)"/>
       <path id="Satoshi-Black-66" d="M 70 3200 
L 70 2381 
L 512 2381 
L 512 0 
L 1498 0 
L 1498 2381 
L 2266 2381 
L 2266 3200 
L 1498 3200 
L 1498 3456 
C 1498 3731 1587 3942 1990 3942 
L 2266 3942 
L 2266 4787 
C 2112 4813 1958 4826 1824 4826 
C 1011 4826 512 4410 512 3456 
L 512 3200 
L 70 3200 
z
" transform="scale(0.015625)"/>
       <path id="Satoshi-Black-44" d="M 2349 0 
C 3699 0 4640 973 4640 2355 
C 4640 3763 3674 4736 2285 4736 
L 493 4736 
L 493 0 
L 2349 0 
z
M 2182 3776 
C 3040 3776 3546 3251 3546 2355 
C 3546 1478 3066 960 2246 960 
L 1530 960 
L 1530 3776 
L 2182 3776 
z
" transform="scale(0.015625)"/>
       <path id="Satoshi-Black-63" d="M 198 1613 
C 198 589 851 -83 1862 -83 
C 2758 -83 3411 467 3475 1274 
L 2483 1274 
C 2419 960 2208 800 1862 800 
C 1440 800 1190 1101 1190 1613 
C 1190 2106 1459 2419 1875 2419 
C 2214 2419 2413 2266 2483 1946 
L 3475 1946 
C 3411 2784 2784 3302 1837 3302 
C 877 3302 198 2598 198 1613 
z
" transform="scale(0.015625)"/>
       <path id="Satoshi-Black-6b" d="M 1357 0 
L 1357 800 
L 1734 1197 
L 2451 0 
L 3590 0 
L 2426 1933 
L 3629 3200 
L 2394 3200 
L 1357 2048 
L 1357 4826 
L 371 4826 
L 371 0 
L 1357 0 
z
" transform="scale(0.015625)"/>
       <path id="Satoshi-Black-77" d="M 1094 0 
L 2054 0 
L 2362 998 
C 2566 1670 2624 1920 2650 2054 
C 2669 1920 2752 1542 2912 1018 
L 3219 0 
L 4134 0 
L 5254 3200 
L 4211 3200 
L 3904 2157 
C 3872 2042 3718 1478 3680 1248 
C 3648 1453 3494 2048 3462 2157 
L 3162 3200 
L 2150 3200 
L 1824 2157 
C 1683 1709 1651 1587 1594 1248 
C 1542 1568 1472 1882 1395 2157 
L 1101 3200 
L 64 3200 
L 1094 0 
z
" transform="scale(0.015625)"/>
       <path id="Satoshi-Black-73" d="M 141 1011 
C 141 365 672 -83 1517 -83 
C 2349 -83 2931 333 2931 1018 
C 2931 1530 2643 1773 2118 1888 
L 1523 2016 
C 1299 2067 1178 2150 1178 2298 
C 1178 2470 1318 2586 1542 2586 
C 1779 2586 1914 2438 1914 2221 
L 2848 2221 
C 2848 2867 2330 3302 1587 3302 
C 819 3302 250 2918 250 2253 
C 250 1690 538 1434 1126 1306 
L 1715 1178 
C 1952 1126 2003 1024 2003 928 
C 2003 762 1862 653 1555 653 
C 1254 653 1088 787 1075 1011 
L 141 1011 
z
" transform="scale(0.015625)"/>
      </defs>
      <use xlink:href="#Satoshi-Black-43"/>
      <use xlink:href="#Satoshi-Black-6f" x="77.699982"/>
      <use xlink:href="#Satoshi-Black-75" x="138.999969"/>
      <use xlink:href="#Satoshi-Black-6e" x="199.199966"/>
      <use xlink:href="#Satoshi-Black-74" x="259.799957"/>
      <use xlink:href="#Satoshi-Black-20" x="296.399948"/>
      <use xlink:href="#Satoshi-Black-6f" x="322.899933"/>
      <use xlink:href="#Satoshi-Black-66" x="384.199921"/>
      <use xlink:href="#Satoshi-Black-20" x="420.699905"/>
      <use xlink:href="#Satoshi-Black-44" x="447.19989"/>
      <use xlink:href="#Satoshi-Black-6f" x="523.299881"/>
      <use xlink:href="#Satoshi-Black-63" x="584.599869"/>
      <use xlink:href="#Satoshi-Black-6b" x="641.499863"/>
      <use xlink:href="#Satoshi-Black-77" x="698.69986"/>
      <use xlink:href="#Satoshi-Black-6f" x="781.79985"/>
      <use xlink:href="#Satoshi-Black-72" x="843.099838"/>
      <use xlink:href="#Satoshi-Black-6b" x="885.299835"/>
      <use xlink:href="#Satoshi-Black-65" x="942.499832"/>
      <use xlink:href="#Satoshi-Black-72" x="999.999817"/>
      <use xlink:href="#Satoshi-Black-73" x="1042.199814"/>
     </g>
    </g>
   </g>
   <g id="patch_3">
    <path d="M 68.256875 354.88875 
L 157.536875 354.88875 
L 157.536875 262.861691 
L 68.256875 262.861691 
z
" clip-path="url(#pfc6d53a43a)" style="fill: #8c4040; stroke: #000000; stroke-linejoin: miter"/>
   </g>
   <g id="patch_4">
    <path d="M 179.856875 354.88875 
L 269.136875 354.88875 
L 269.136875 142.533159 
L 179.856875 142.533159 
z
" clip-path="url(#pfc6d53a43a)" style="fill: #8c4040; stroke: #000000; stroke-linejoin: miter"/>
   </g>
   <g id="patch_5">
    <path d="M 291.456875 354.88875 
L 380.736875 354.88875 
L 380.736875 38.08875 
L 291.456875 38.08875 
z
" clip-path="url(#pfc6d53a43a)" style="fill: #8c4040; stroke: #000000; stroke-linejoin: miter"/>
   </g>
   <g id="line2d_7">
    <path clip-path="url(#pfc6d53a43a)" style="fill: none; stroke: #424242; stroke-width: 2.25; stroke-linecap: round"/>
   </g>
   <g id="line2d_8">
    <path clip-path="url(#pfc6d53a43a)" style="fill: none; stroke: #424242; stroke-width: 2.25; stroke-linecap: round"/>
   </g>
   <g id="line2d_9">
    <path clip-path="url(#pfc6d53a43a)" style="fill: none; stroke: #424242; stroke-width: 2.25; stroke-linecap: round"/>
   </g>
   <g id="patch_6">
    <path d="M 57.096875 354.88875 
L 57.096875 22.24875 
" style="fill: none; stroke: #cccccc; stroke-width: 1.25; stroke-linejoin: miter; stroke-linecap: square"/>
   </g>
   <g id="patch_7">
    <path d="M 57.096875 354.88875 
L 391.896875 354.88875 
" style="fill: none; stroke: #cccccc; stroke-width: 1.25; stroke-linejoin: miter; stroke-linecap: square"/>
   </g>
   <g id="text_12">
    <!-- Brooklyn Longshoremen, 1880-1910. -->
    <g style="fill: #262626" transform="translate(117.542188 16.24875) scale(0.12 -0.12)">
     <defs>
      <path id="Satoshi-Black-42" d="M 493 0 
L 2464 0 
C 3488 0 4051 467 4051 1306 
C 4051 1843 3802 2208 3334 2362 
C 3763 2547 3994 2918 3994 3424 
C 3994 4237 3418 4736 2464 4736 
L 493 4736 
L 493 0 
z
M 2355 3827 
C 2733 3827 2931 3654 2931 3322 
C 2931 2982 2726 2797 2355 2797 
L 1530 2797 
L 1530 3827 
L 2355 3827 
z
M 2406 1926 
C 2784 1926 2989 1754 2989 1434 
C 2989 1082 2790 909 2406 909 
L 1530 909 
L 1530 1926 
L 2406 1926 
z
" transform="scale(0.015625)"/>
      <path id="Satoshi-Black-6c" d="M 1357 0 
L 1357 4826 
L 371 4826 
L 371 0 
L 1357 0 
z
" transform="scale(0.015625)"/>
      <path id="Satoshi-Black-79" d="M 115 -1536 
C 307 -1594 531 -1626 768 -1626 
C 1331 -1626 1690 -1350 1958 -698 
L 3584 3200 
L 2560 3200 
L 1786 1146 
L 1088 3200 
L 32 3200 
L 1318 -109 
L 1261 -262 
C 1133 -608 992 -710 659 -710 
L 115 -710 
L 115 -1536 
z
" transform="scale(0.015625)"/>
      <path id="Satoshi-Black-4c" d="M 1530 4736 
L 493 4736 
L 493 0 
L 3398 0 
L 3398 960 
L 1530 960 
L 1530 4736 
z
" transform="scale(0.015625)"/>
      <path id="Satoshi-Black-67" d="M 211 1658 
C 211 698 832 38 1728 38 
C 2144 38 2502 186 2694 416 
L 2694 0 
C 2694 -454 2394 -736 1920 -736 
C 1485 -736 1216 -525 1197 -166 
L 198 -166 
C 288 -1075 947 -1632 1926 -1632 
C 3021 -1632 3680 -941 3680 205 
L 3680 3200 
L 2752 3200 
L 2701 2880 
C 2528 3142 2182 3309 1747 3309 
C 845 3309 211 2630 211 1658 
z
M 1203 1683 
C 1203 2138 1504 2451 1939 2451 
C 2394 2451 2694 2150 2694 1683 
C 2694 1210 2394 896 1946 896 
C 1510 896 1203 1222 1203 1683 
z
" transform="scale(0.015625)"/>
      <path id="Satoshi-Black-68" d="M 1357 0 
L 1357 1754 
C 1357 2150 1606 2406 1997 2406 
C 2336 2406 2560 2144 2560 1741 
L 2560 0 
L 3546 0 
L 3546 1978 
C 3546 2816 3104 3302 2342 3302 
C 1926 3302 1562 3142 1363 2867 
L 1363 4826 
L 371 4826 
L 371 0 
L 1357 0 
z
" transform="scale(0.015625)"/>
      <path id="Satoshi-Black-6d" d="M 1357 0 
L 1357 1715 
C 1357 2253 1645 2406 1926 2406 
C 2240 2406 2445 2214 2445 1818 
L 2445 0 
L 3430 0 
L 3430 1715 
C 3430 2259 3712 2413 3994 2413 
C 4307 2413 4518 2221 4518 1818 
L 4518 0 
L 5504 0 
L 5504 2093 
C 5504 2822 5094 3302 4269 3302 
C 3808 3302 3430 3078 3264 2739 
C 3078 3078 2771 3302 2291 3302 
C 1830 3302 1517 3091 1357 2867 
L 1293 3200 
L 371 3200 
L 371 0 
L 1357 0 
z
" transform="scale(0.015625)"/>
      <path id="Satoshi-Black-2c" d="M 1574 326 
C 1574 768 1318 1075 947 1075 
C 614 1075 397 838 397 486 
C 397 205 627 -19 928 -19 
C 998 -19 1062 -6 1114 19 
C 1094 -243 864 -416 544 -474 
L 544 -826 
C 1146 -762 1574 -288 1574 326 
z
" transform="scale(0.015625)"/>
      <path id="Satoshi-Black-31" d="M 1293 3808 
L 1293 0 
L 2285 0 
L 2285 4736 
L 218 4736 
L 218 3808 
L 1293 3808 
z
" transform="scale(0.015625)"/>
      <path id="Satoshi-Black-38" d="M 230 1370 
C 230 480 954 -77 2106 -77 
C 3258 -77 3987 486 3987 1376 
C 3987 1926 3686 2374 3213 2554 
C 3603 2726 3814 3066 3814 3507 
C 3814 4301 3136 4826 2118 4826 
C 1101 4826 403 4294 403 3520 
C 403 3078 608 2746 986 2560 
C 525 2374 230 1920 230 1370 
z
M 1338 3418 
C 1338 3744 1632 3949 2099 3949 
C 2566 3949 2861 3744 2861 3418 
C 2861 3098 2566 2899 2099 2899 
C 1632 2899 1338 3098 1338 3418 
z
M 1248 1440 
C 1248 1824 1574 2054 2106 2054 
C 2637 2054 2963 1824 2963 1440 
C 2963 1056 2643 832 2106 832 
C 1568 832 1248 1056 1248 1440 
z
" transform="scale(0.015625)"/>
      <path id="Satoshi-Black-30" d="M 230 2355 
C 230 890 998 -83 2298 -83 
C 3597 -83 4365 890 4365 2355 
C 4365 3821 3533 4826 2298 4826 
C 1062 4826 230 3821 230 2355 
z
M 1254 2355 
C 1254 3405 1638 3917 2298 3917 
C 2957 3917 3341 3405 3341 2355 
C 3341 1338 2957 826 2298 826 
C 1638 826 1254 1338 1254 2355 
z
" transform="scale(0.015625)"/>
      <path id="Satoshi-Black-2d" d="M 384 1293 
L 2573 1293 
L 2573 2163 
L 384 2163 
L 384 1293 
z
" transform="scale(0.015625)"/>
      <path id="Satoshi-Black-39" d="M 3053 1274 
C 3629 2061 3840 2490 3840 3072 
C 3840 4064 3066 4819 2003 4819 
C 954 4819 192 4115 192 3078 
C 192 2106 858 1434 1830 1434 
C 1894 1434 1958 1440 2022 1453 
L 941 0 
L 2125 0 
L 3053 1274 
z
M 2778 3085 
C 2778 2598 2470 2272 2003 2272 
C 1549 2272 1242 2598 1242 3085 
C 1242 3571 1555 3904 2003 3904 
C 2464 3904 2778 3571 2778 3085 
z
" transform="scale(0.015625)"/>
      <path id="Satoshi-Black-2e" d="M 986 -83 
C 1299 -83 1574 179 1574 493 
C 1574 813 1299 1075 986 1075 
C 659 1075 397 813 397 493 
C 397 179 659 -83 986 -83 
z
" transform="scale(0.015625)"/>
     </defs>
     <use xlink:href="#Satoshi-Black-42"/>
     <use xlink:href="#Satoshi-Black-72" x="66.499985"/>
     <use xlink:href="#Satoshi-Black-6f" x="108.699982"/>
     <use xlink:href="#Satoshi-Black-6f" x="169.999969"/>
     <use xlink:href="#Satoshi-Black-6b" x="231.299957"/>
     <use xlink:href="#Satoshi-Black-6c" x="288.499954"/>
     <use xlink:href="#Satoshi-Black-79" x="315.499939"/>
     <use xlink:href="#Satoshi-Black-6e" x="371.999924"/>
     <use xlink:href="#Satoshi-Black-20" x="432.599915"/>
     <use xlink:href="#Satoshi-Black-4c" x="459.099899"/>
     <use xlink:href="#Satoshi-Black-6f" x="514.69989"/>
     <use xlink:href="#Satoshi-Black-6e" x="575.999878"/>
     <use xlink:href="#Satoshi-Black-67" x="636.599869"/>
     <use xlink:href="#Satoshi-Black-73" x="699.899857"/>
     <use xlink:href="#Satoshi-Black-68" x="747.899841"/>
     <use xlink:href="#Satoshi-Black-6f" x="808.499832"/>
     <use xlink:href="#Satoshi-Black-72" x="869.79982"/>
     <use xlink:href="#Satoshi-Black-65" x="911.999817"/>
     <use xlink:href="#Satoshi-Black-6d" x="969.499802"/>
     <use xlink:href="#Satoshi-Black-65" x="1060.699783"/>
     <use xlink:href="#Satoshi-Black-6e" x="1118.199768"/>
     <use xlink:href="#Satoshi-Black-2c" x="1178.799759"/>
     <use xlink:href="#Satoshi-Black-20" x="1209.599747"/>
     <use xlink:href="#Satoshi-Black-31" x="1236.099731"/>
     <use xlink:href="#Satoshi-Black-38" x="1279.799728"/>
     <use xlink:href="#Satoshi-Black-38" x="1345.699722"/>
     <use xlink:href="#Satoshi-Black-30" x="1411.599716"/>
     <use xlink:href="#Satoshi-Black-2d" x="1483.399704"/>
     <use xlink:href="#Satoshi-Black-31" x="1529.599701"/>
     <use xlink:href="#Satoshi-Black-39" x="1573.299698"/>
     <use xlink:href="#Satoshi-Black-31" x="1636.299683"/>
     <use xlink:href="#Satoshi-Black-30" x="1679.99968"/>
     <use xlink:href="#Satoshi-Black-2e" x="1751.799667"/>
    </g>
   </g>
  </g>
 </g>
 <defs>
  <clipPath id="pfc6d53a43a">
   <rect x="57.096875" y="22.24875" width="334.8" height="332.64"/>
  </clipPath>
 </defs>
</svg>
